<?xml version="1.0" encoding="UTF-8" standalone="no"?>
<svg width="21px" height="21px" viewBox="0 0 21 21" version="1.1" xmlns="http://www.w3.org/2000/svg" xmlns:xlink="http://www.w3.org/1999/xlink">
    <!-- Generator: Sketch 3.7 (28169) - http://www.bohemiancoding.com/sketch -->
    <title>phone</title>
    <desc>Created with Sketch.</desc>
    <defs></defs>
    <g id="Page-1" stroke="none" stroke-width="1" fill="none" fill-rule="evenodd" opacity="0.0552122201">
        <g id="Tablet-Portrait-Copy-44" transform="translate(-500.000000, -256.000000)" stroke="#000000">
            <g id="contact-page" transform="translate(-189.000000, 80.000000)">
                <g id="mike" transform="translate(249.000000, 177.000000)">
                    <path d="M451.96221,10.9602934 C450.081803,12.839133 447.90324,14.6372135 447.04203,13.7761776 C445.810204,12.5445994 445.049964,11.4709767 442.332105,13.6550388 C439.615434,15.8379131 441.702531,17.2939545 442.896346,18.4863407 C444.274281,19.8639981 449.410654,18.5599741 454.487633,13.4852069 C459.563424,8.40925196 460.864147,3.27391528 459.485024,1.89625789 C458.29121,0.701496398 456.842002,-1.38399186 454.658687,1.33213094 C452.474184,4.04825374 453.546836,4.80834058 454.781038,6.04110641 C455.638684,6.90214228 453.841429,9.08026612 451.96221,10.9602934 L451.96221,10.9602934 Z" id="phone"></path>
                </g>
            </g>
        </g>
    </g>
</svg>