<svg id="Layer_1" data-name="Layer 1" xmlns="http://www.w3.org/2000/svg" viewBox="0 0 80 104"><defs><style>.cls-1{fill:#22b573;}.cls-2{fill:#ab8365;}.cls-3{fill:#cd9d79;}.cls-4{fill:#d3775e;}.cls-5{fill:#8d6a4f;}.cls-6{fill:#514238;}</style></defs><title>userResearch2</title><circle class="cls-1" cx="40" cy="35" r="25"/><path class="cls-2" d="M50.76,35.65a1.13,1.13,0,0,0-1.41,0c.46-2.61.63-4.52.63-4.52s.9-6.66-6.91-7.41c-4.28-.41-7.74-.68-9.9-.13-3.76,1-3.49,7.76-2.88,12.2a1.4,1.4,0,0,0-1.24.23c-.64.6-.45,2.36,0,3.58.2.54,1.16,2.38,2.61,1.92h0c.77,2.17,1.63,5.07,3.28,6.87a7.33,7.33,0,0,0,6.13,2.41,7.33,7.33,0,0,0,4.78-2.89c1.25-1.76,1.46-4.24,2.16-6.64a2.26,2.26,0,0,0,.45.31c1.18.3,2.32-1.8,2.52-2.34C51.56,37.75,51.4,36.24,50.76,35.65Z"/><path class="cls-3" d="M42,41.92a5.94,5.94,0,0,1-1.81.82A6.12,6.12,0,0,1,38.46,42l1.11-7.46h1.61Z"/><path class="cls-4" d="M36.53,45.65c0,.67,1.81,1.22,4,1.22s4-.54,4-1.22Z"/><path class="cls-5" d="M44.53,45.65c0-.67-1.81-1.22-4-1.22s-4,.54-4,1.22Z"/><path class="cls-6" d="M36.52,35a1.57,1.57,0,0,0-1.74,1.32,1.57,1.57,0,0,0,1.74,1.32,1.57,1.57,0,0,0,1.74-1.32A1.57,1.57,0,0,0,36.52,35Zm7.77,0a1.57,1.57,0,0,0-1.74,1.32,1.8,1.8,0,0,0,3.47,0A1.57,1.57,0,0,0,44.29,35Zm-8.72-2c-1.7.81-2.87,1.9-2.64,2.45l6.21-3C38.84,31.93,37.26,32.15,35.56,33ZM50,25.73s.32-1.45-.06-2a3.82,3.82,0,0,0-2.41-1.85,4.94,4.94,0,0,0-1.3-.2,2,2,0,0,0-1.93-2.37c-5.13-.75-6.66,1.63-7.79,2.1-.92.38-1.22-1-3.63.06-2.17.92-2,2.34-2.4,3.14A16.15,16.15,0,0,0,28.9,28a13.62,13.62,0,0,0,.21,3.27,37.66,37.66,0,0,0,.79,4.26c.09.26.49.21.65.54.29.59.39,1.51.7,1.31.64-.42-1-4.26-1.13-5.71-.12-1.05-.08-3.7.89-4.14,1.4-.63-2.3,3.8,4.5,2.73,6.27-1,7.63-4.16,8.82-4.89.21-.13.21-.58.45-.5a3.58,3.58,0,0,1,1.89,3,4.69,4.69,0,0,0,1.52-.42c.46-.22.57-.53.8-.39s1.09,3,1,4c-.14,1.47-1,4.59-1.23,5.77,0,.1.1.36.2.37.4,0,.73-1,.82-1.37a38.37,38.37,0,0,0,1.11-5.82C50.88,26.41,50,25.73,50,25.73ZM44.57,32.6c-1.88-.06-3.42.38-3.47,1l6.87.22C48,33.19,46.45,32.66,44.57,32.6Z"/><path class="cls-1" d="M75,5V99H5V5H75m1-1H4v96H76V4Z"/><rect class="cls-1" x="31" y="74" width="34" height="2"/><polygon class="cls-1" points="18.54 75.17 16.41 73.05 15 74.46 17.12 76.59 18.54 78 19.95 76.59 24.9 71.64 23.48 70.22 18.54 75.17"/><rect class="cls-1" x="31" y="87" width="34" height="2"/><polygon class="cls-1" points="18.54 88.17 16.41 86.05 15 87.46 17.12 89.59 18.54 91 19.95 89.59 24.9 84.64 23.48 83.22 18.54 88.17"/></svg>