<svg id="Layer_1" data-name="Layer 1" xmlns="http://www.w3.org/2000/svg" viewBox="0 0 80 104"><defs><style>.cls-1{fill:#29abe2;}.cls-2{fill:#f3eae4;}.cls-3{fill:#22b573;}.cls-4{fill:#e07894;}.cls-5{fill:#e1cbbc;}.cls-6{fill:#775b46;}</style></defs><title>userResearch1</title><circle class="cls-1" cx="40" cy="34.99" r="25"/><path class="cls-2" d="M50.9,32.34c0,7.06-5.21,12.45-9.72,12.45S30.32,39.4,30.32,32.34s4.61-12.78,10.29-12.78S50.9,25.29,50.9,32.34Z"/><circle class="cls-3" cx="45.25" cy="30.73" r="1.75"/><circle class="cls-3" cx="37.69" cy="30.79" r="1.75"/><ellipse class="cls-4" cx="41.22" cy="39.5" rx="2.72" ry="1.74"/><polygon class="cls-5" points="42.63 36.35 39.73 36.35 40.63 29.97 41.9 29.97 42.63 36.35"/><path class="cls-6" d="M56.78,50.11c-.25-.42-.17-.9-.42-1.44s-.8-.8-1.06-1.14a7.91,7.91,0,0,1-.88-2.38c-.06-.33-.42-4.27-.43-4.94L52.26,28.73l-.15-1.06s-.54-2.66-1.42-3.62c-.19-.21-.85-.84-.85-.84-1.11-.68-1.57-2-2.64-3.28a9.79,9.79,0,0,0-6.12-3.25,9.68,9.68,0,0,0-4.43,1A7.26,7.26,0,0,0,34.28,19a13,13,0,0,0-4.16,7s-.9,2.78-1.24,3.69A38.4,38.4,0,0,0,26.83,38,17.34,17.34,0,0,0,27,40.22c-.72,3.17-.54,4.85,0,6.28a4.47,4.47,0,0,1,.21,1.77c0,1.15-5,1.48-5,3,0,1.92,2.55,1.35,5.51,1.35.43,0,2,.46,2.63.58A6.62,6.62,0,0,0,36,51.3c1-1,.41-4.14.34-5.53-.1-2.12-1-6.29-1.17-8.4a49.45,49.45,0,0,1,0-9.1A2.64,2.64,0,0,1,35.78,27c.76-.51,1.8-.76,2.68-1.38,1.13-.79,1.6-3.31,1.73-4.39l1.68,0a7.44,7.44,0,0,0,1.87,3.65c1.57,1.18,3.06,0,4.67.84.72.39.87,1.78.9,3.18,0,2.46-.06,7.4-.34,9.85-.4,3.48-2.39,6.58-2.93,8.84-.23.94-.47,3.07,0,3.86.65,1.08,3.39,1.63,4.64,1.76.86.09,3.3-.66,4.41-.67.5,0,.68.11,1.22.07a1.9,1.9,0,0,0,1.51-1.34C57.75,51,57.1,50.64,56.78,50.11Z"/><path class="cls-1" d="M75,5V99H5V5H75m1-1H4v96H76V4Z"/><rect class="cls-1" x="31" y="74" width="34" height="2"/><polygon class="cls-1" points="18.54 75.17 16.41 73.05 15 74.46 17.12 76.59 18.54 78 19.95 76.59 24.9 71.64 23.48 70.22 18.54 75.17"/><rect class="cls-1" x="31" y="87" width="34" height="2"/><polygon class="cls-1" points="18.54 88.17 16.41 86.05 15 87.46 17.12 89.59 18.54 91 19.95 89.59 24.9 84.64 23.48 83.22 18.54 88.17"/></svg>