<?xml version="1.0" encoding="UTF-8" standalone="no"?>
<svg width="499px" height="499px" viewBox="0 0 499 499" version="1.1" xmlns="http://www.w3.org/2000/svg" xmlns:xlink="http://www.w3.org/1999/xlink">
    <!-- Generator: Sketch 3.8.3 (29802) - http://www.bohemiancoding.com/sketch -->
    <title>Page 1</title>
    <desc>Created with Sketch.</desc>
    <defs></defs>
    <g id="Page-1" stroke="none" stroke-width="1" fill="none" fill-rule="evenodd">
        <g id="Desktop-Copy-2" transform="translate(-263.000000, -263.000000)" fill="#000000">
            <g id="Page-1" transform="translate(263.000000, 262.000000)">
                <g id="Group-3" transform="translate(0.000000, 0.008000)">
                    <path d="M375.0283,298.7544 C359.4203,308.8084 341.7503,312.4024 323.6203,312.6734 C287.3093,313.2174 250.8833,312.9294 214.5653,312.9764 C213.9173,312.9774 213.1613,312.8674 212.1613,312.7774 L212.1613,100.4984 C216.1613,100.4984 220.0673,100.4834 223.7233,100.5004 C257.2023,100.6624 290.7403,100.4784 324.2103,101.1474 C340.1683,101.4664 355.5983,105.3604 369.3583,113.9844 C385.5943,124.1614 393.6493,138.8954 392.0283,158.1194 C390.5053,176.1904 380.9673,189.0984 364.7743,197.1124 C362.2513,198.3614 359.5993,199.3434 356.2813,200.7574 C358.6293,201.5594 360.4053,202.1974 362.2003,202.7724 C383.0423,209.4394 395.7463,223.5104 398.9353,245.1264 C402.2773,267.7654 394.6033,286.1454 375.0283,298.7544 L375.0283,298.7544 Z M112.1613,312.9914 L166.1613,312.9914 L166.1613,100.9914 L112.1613,100.9914 L112.1613,312.9914 Z M498.0913,48.9754 C497.4533,21.0634 479.3793,2.8204 451.3833,2.0994 C427.9073,1.4944 404.4033,1.8974 380.9133,1.7884 C378.9953,1.7794 377.0783,1.2694 375.1613,0.9914 L119.1613,0.9914 C117.4213,1.2694 115.6803,1.7834 113.9393,1.7884 C93.2793,1.8444 72.6183,1.7394 51.9583,1.8524 C36.4393,1.9374 22.1963,5.5604 11.6123,17.9894 C3.9323,27.0094 1.2973,37.9324 0.3433,49.4044 C0.1783,51.3934 0.1703,53.3984 0.1683,55.3964 C0.1043,119.8754 0.0223,184.3544 0.0053,248.8334 C-0.0037,281.3224 -0.0287,313.8124 0.2723,346.2984 C0.3333,352.8934 1.1533,359.6434 2.7673,366.0324 C7.7353,385.6904 21.8543,397.3604 43.1223,399.9254 C48.5613,400.5814 54.0713,400.9264 59.5513,400.9454 C87.7093,401.0454 115.8683,400.9914 144.0263,400.9914 L150.1613,400.9914 L150.1613,406.5364 C150.1613,428.6964 150.0573,450.8574 150.2513,473.0154 C150.2883,477.2724 150.9303,481.7074 152.2743,485.7314 C155.2023,494.4904 161.7663,499.4454 170.9213,499.9124 C186.1893,500.6914 200.1243,496.2994 211.3123,485.8204 C227.7193,470.4544 243.5083,454.4274 259.5873,438.7084 C268.0393,430.4454 276.3823,422.0614 285.0693,414.0504 C296.7413,403.2874 311.1983,401.0944 326.4023,401.1204 C364.7173,401.1834 403.0353,401.1244 441.3503,400.9154 C447.6413,400.8814 454.0463,400.4204 460.1943,399.1644 C483.8573,394.3294 497.6983,377.4584 498.1353,353.3014 C498.4283,337.1484 498.6043,320.9914 498.6483,304.8364 C498.8073,247.3614 498.9903,189.8854 498.9523,132.4104 C498.9343,104.5984 498.7253,76.7794 498.0913,48.9754 L498.0913,48.9754 Z" id="Fill-1"></path>
                </g>
                <path d="M330.9893,229.3962 C326.9503,227.6242 322.4303,226.1792 318.0783,226.0292 C302.9603,225.5102 287.7803,225.6202 272.6493,225.4962 C270.5463,225.4792 268.1613,225.4932 266.1613,225.4932 L266.1613,271.0732 C267.1613,271.2352 268.0283,271.4712 268.8333,271.4722 C283.1393,271.4932 297.4863,271.9302 311.7643,271.2872 C318.4133,270.9872 325.3133,269.4202 331.4883,266.9272 C339.8463,263.5522 343.3853,256.2712 343.1583,247.2542 C342.9433,238.6722 338.5703,232.7222 330.9893,229.3962" id="Fill-4"></path>
                <path d="M316.7012,183.4621 C318.0092,183.4581 319.3522,183.0571 320.6392,182.7221 C331.0872,180.0021 336.5102,172.8101 336.3142,161.9551 C336.1332,151.9021 330.4012,145.1971 319.8642,143.0721 C316.6262,142.4201 313.2752,142.0751 309.9722,142.0461 C296.8242,141.9331 283.6362,141.9911 270.4872,142.0121 C269.0522,142.0141 268.1612,142.1871 266.1612,142.2801 L266.1612,183.4951 C283.1612,183.4951 299.9522,183.5121 316.7012,183.4621" id="Fill-6"></path>
            </g>
        </g>
    </g>
</svg>