<?xml version="1.0" encoding="UTF-8" standalone="no"?>
<svg width="120px" height="120px" viewBox="0 0 120 120" version="1.1" xmlns="http://www.w3.org/2000/svg" xmlns:xlink="http://www.w3.org/1999/xlink">
    <!-- Generator: Sketch 3.8.3 (29802) - http://www.bohemiancoding.com/sketch -->
    <title>Page 1</title>
    <desc>Created with Sketch.</desc>
    <defs></defs>
    <g id="Page-1" stroke="none" stroke-width="1" fill="none" fill-rule="evenodd">
        <g id="Frequent-Contacts-Copy-30" transform="translate(-228.000000, -408.000000)" fill="#000000">
            <g id="Page-1" transform="translate(228.000000, 407.000000)">
                <path d="M74.3838,54.728 L63.7858,54.728 L63.7858,65.728 L74.3838,65.728 C79.2688,65.728 82.3028,63.817 82.3028,60.117 C82.3028,56.639 79.2688,54.728 74.3838,54.728" id="Fill-1"></path>
                <path d="M80.6748,39.6538 C80.6748,36.3238 78.2328,34.7278 74.3838,34.7278 L63.7858,34.7278 L63.7858,44.7278 L74.3838,44.7278 C78.2328,44.7278 80.6748,42.9838 80.6748,39.6538" id="Fill-3"></path>
                <g id="Group-7" transform="translate(0.000000, 0.625000)">
                    <path d="M76.0127,75.103 L50.7857,75.103 L50.7857,24.103 L75.1237,24.103 C86.7427,24.103 94.1437,28.964 94.1437,36.883 C94.1437,42.359 90.7397,46.64 85.2627,48.194 C91.7757,49.452 95.9197,54.285 95.9197,61.02 C95.9197,69.826 88.2237,75.103 76.0127,75.103 Z M26.7857,75.103 L39.7857,75.103 L39.7857,24.103 L26.7857,24.103 L26.7857,75.103 Z M119.5327,12.505 C119.4667,4.812 114.8167,0.467 107.1367,0.444 C75.6377,0.351 44.1377,0.354 12.6397,0.438 C4.4557,0.46 0.0617,5.029 0.0417,13.264 C-0.0143,36.43 -0.0103,59.597 0.0367,82.762 C0.0557,91.783 4.5227,96.133 13.6317,96.181 C20.9167,96.22 28.2017,96.189 36.0337,96.189 C36.0337,102.344 36.0287,107.964 36.0357,113.584 C36.0417,117.936 38.5027,120.342 42.5717,119.96 C45.3187,119.703 48.4787,118.557 50.4907,116.742 C56.6687,111.166 62.2257,104.904 68.3737,99.292 C70.2157,97.611 73.1807,96.405 75.6727,96.327 C85.9947,95.999 96.3347,96.25 106.6667,96.167 C114.6257,96.103 119.4387,91.907 119.5147,84 C119.7467,60.17 119.7327,36.335 119.5327,12.505 L119.5327,12.505 Z" id="Fill-5"></path>
                </g>
            </g>
        </g>
    </g>
</svg>