<?xml version="1.0" standalone="no"?>
<!DOCTYPE svg PUBLIC "-//W3C//DTD SVG 1.1//EN" "http://www.w3.org/Graphics/SVG/1.1/DTD/svg11.dtd" >
<svg xmlns="http://www.w3.org/2000/svg">
<metadata>Generated by IcoMoon</metadata>
<defs>
<font id="aicon" horiz-adv-x="1024">
<font-face units-per-em="1024" ascent="960" descent="-64" />
<missing-glyph horiz-adv-x="1024" />
<glyph unicode="&#x20;" horiz-adv-x="512" d="" />
<glyph unicode="&#xe900;" glyph-name="comment" d="M640 480h-352v-64h352zM736 640h-448v-64h448zM848 832h-672c-26.51 0-48-21.49-48-48v0-512c0-26.51 21.49-48 48-48v0h112v-108c-0.024-0.585-0.038-1.272-0.038-1.962 0-26.94 21.273-48.912 47.937-50.035l0.101-0.003c11.078 0.075 21.198 4.116 29.024 10.773l-0.064-0.053 170.56 149.28h312.48c26.51 0 48 21.49 48 48v0 512c0 26.51-21.49 48-48 48v0zM832 288h-320l-18.24-16-141.76-123.68v139.68h-160v480h640z" />
<glyph unicode="&#xe901;" glyph-name="arrow-down" d="M512 64.64l328.16 328-45.28 45.28-250.88-250.88v644.32h-64v-644.32l-250.88 250.88-45.28-45.28 328.16-328z" />
<glyph unicode="&#xe902;" glyph-name="person" d="M894.56 123.52v0c-33.4 126.242-121.071 227.192-235.888 277.985l-2.672 1.055c-42.224 18.58-91.449 29.393-143.2 29.393s-100.976-10.814-145.539-30.305l2.339 0.912c-118.076-51.513-206.295-152.541-239.335-276.117l-0.665-2.923c-0.898-3.472-1.414-7.458-1.414-11.564 0-11.123 3.784-21.363 10.134-29.502l-0.080 0.107c8.835-11.3 22.45-18.51 37.752-18.56h672.008c0.037 0 0.080 0 0.123 0 26.51 0 48 21.49 48 48 0 4.090-0.512 8.061-1.474 11.852l0.071-0.332zM197.28 128c32.506 97.663 103.577 174.844 194.684 214.79l2.276 0.89c34.716 15.317 75.197 24.233 117.76 24.233s83.044-8.916 119.676-24.982l-1.916 0.749c93.371-40.853 164.435-118.027 196.235-213.179l0.725-2.501zM512 494.72c97.202 0 176 78.798 176 176s-78.798 176-176 176c-97.202 0-176-78.798-176-176v0c0-97.202 78.798-176 176-176v0zM512 782.72c61.856 0 112-50.144 112-112s-50.144-112-112-112c-61.856 0-112 50.144-112 112v0c0 61.856 50.144 112 112 112v0z" />
<glyph unicode="&#xe903;" glyph-name="close" d="M881.6 772.32l-45.28 45.28-324.32-324.32-324.32 324.32-45.28-45.28 324.32-324.32-324.32-324.32 45.28-45.28 324.32 324.32 324.32-324.32 45.28 45.28-324.32 324.32 324.32 324.32z" />
<glyph unicode="&#xe904;" glyph-name="email" d="M128 704v-512c0-35.346 28.654-64 64-64v0h640c35.346 0 64 28.654 64 64v0 512c0 35.346-28.654 64-64 64v0h-640c-35.346 0-64-28.654-64-64v0zM827.2 704l-315.2-277.44-315.2 277.44zM832 192h-640v431.040l288-253.76c8.453-7.585 19.685-12.223 32-12.223s23.547 4.638 32.045 12.262l-0.045-0.040 288 253.76z" />
<glyph unicode="&#xe905;" glyph-name="plus2" d="M544 480v288h-64v-288h-288v-64h288v-288h64v288h288v64h-288z" />
<glyph unicode="&#xe906;" glyph-name="plus3" d="M544 480v256h-64v-256h-256v-64h256v-256h64v256h256v64h-256z" />
<glyph unicode="&#xe907;" glyph-name="image" d="M768 576c35.346 0 64 28.654 64 64s-28.654 64-64 64v0c-0.434 0.011-0.945 0.017-1.457 0.017-34.551 0-62.56-28.009-62.56-62.56 0-0.512 0.006-1.023 0.018-1.533l-0.001 0.076c0-35.346 28.654-64 64-64v0zM192 192h592c17.521 0.199 31.648 14.449 31.648 31.998 0 5.892-1.592 11.412-4.37 16.153l0.082-0.151-144 240c-5.688 9.401-15.857 15.588-27.471 15.588-10.947 0-20.609-5.496-26.379-13.88l-0.070-0.108-61.12-89.28-125.92 185.6c-5.969 8.339-15.519 13.787-26.355 14.079l-0.045 0.001c-11.195-0.245-20.947-6.203-26.482-15.065l-0.078-0.135-208-336c-2.994-4.779-4.769-10.586-4.769-16.807 0-17.437 13.947-31.617 31.294-31.992l0.035-0.001zM401.28 501.28l124.64-183.2c5.813-8.514 15.457-14.041 26.394-14.080h0.006c10.916 0.001 20.556 5.468 26.33 13.814l0.070 0.106 59.36 86.88 89.44-148.8h-478.080zM928 864h-832c-35.346 0-64-28.654-64-64v0-704c0-35.346 28.654-64 64-64v0h832c35.346 0 64 28.654 64 64v0 704c0 35.346-28.654 64-64 64v0zM928 96h-832v704h832z" />
<glyph unicode="&#xe908;" glyph-name="arrow-left" d="M128.64 448l328-328.16 45.28 45.28-250.88 250.88h644.32v64h-644.32l250.88 250.88-45.28 45.28-328-328.16z" />
<glyph unicode="&#xe909;" glyph-name="arrow-right" d="M895.36 448l-328 328.16-45.28-45.28 250.88-250.88h-644.32v-64h644.32l-250.88-250.88 45.28-45.28 328 328.16z" />
<glyph unicode="&#xe90a;" glyph-name="dots-horizontal" d="M256 512c-35.346 0-64-28.654-64-64s28.654-64 64-64c35.346 0 64 28.654 64 64v0c0 35.346-28.654 64-64 64v0zM768 512c-35.346 0-64-28.654-64-64s28.654-64 64-64c35.346 0 64 28.654 64 64v0c0 35.346-28.654 64-64 64v0zM512 512c-35.346 0-64-28.654-64-64s28.654-64 64-64c35.346 0 64 28.654 64 64v0c0 35.346-28.654 64-64 64v0z" />
<glyph unicode="&#xe90b;" glyph-name="dots-vertical" d="M448 192c0-35.346 28.654-64 64-64s64 28.654 64 64c0 35.346-28.654 64-64 64v0c-35.346 0-64-28.654-64-64v0zM448 704c0-35.346 28.654-64 64-64s64 28.654 64 64c0 35.346-28.654 64-64 64v0c-35.346 0-64-28.654-64-64v0zM448 448c0-35.346 28.654-64 64-64s64 28.654 64 64c0 35.346-28.654 64-64 64v0c-35.346 0-64-28.654-64-64v0z" />
<glyph unicode="&#xe90c;" glyph-name="arrow-up" d="M512 831.36l-328.16-328 45.28-45.28 250.88 250.88v-644.32h64v644.32l250.88-250.88 45.28 45.28-328.16 328z" />
<glyph unicode="&#xe90d;" glyph-name="chevron-double-left" d="M464 702.56l-253.92-254.56 253.92-254.56 45.28 45.12-208.64 209.44 209.28 209.44zM813.28 657.44l-45.28 45.12-253.92-254.56 253.92-254.56 45.28 45.12-208.64 209.44z" />
<glyph unicode="&#xe90e;" glyph-name="chevron-double-right" d="M210.080 657.44l209.28-209.44-209.28-209.44 45.92-45.12 253.92 254.56-253.92 254.56zM560 702.56l-45.28-45.12 208.64-209.44-209.28-209.44 45.92-45.12 253.92 254.56z" />
<glyph unicode="&#xe90f;" glyph-name="check-mini" d="M422.080 242.56l-169.76 169.76 45.28 45.12 124.48-124.32 320.32 320.32 45.28-45.28-365.6-365.6z" />
<glyph unicode="&#xe910;" glyph-name="copy" d="M192 768h480v-32h64v32c0 35.346-28.654 64-64 64v0h-480c-35.346 0-64-28.654-64-64v0-480c0-35.346 28.654-64 64-64v0h32v64h-32zM832 672h-480c-35.346 0-64-28.654-64-64v0-480c0-35.346 28.654-64 64-64v0h480c35.346 0 64 28.654 64 64v0 480c0 35.346-28.654 64-64 64v0zM832 128h-480v480h480z" />
<glyph unicode="&#xe911;" glyph-name="chevron-down" d="M512 298.080l-254.56 254.56 45.12 45.28 209.44-209.28 209.44 209.28 45.12-45.28-254.56-254.56z" />
<glyph unicode="&#xe912;" glyph-name="chevron-left" d="M616.64 193.44l-254.56 254.56 254.56 254.56 45.28-45.12-209.28-209.44 209.28-209.44-45.28-45.12z" />
<glyph unicode="&#xe913;" glyph-name="chevron-right" d="M407.36 193.44l-45.28 45.12 209.44 209.44-209.44 209.44 45.28 45.12 254.56-254.56-254.56-254.56z" />
<glyph unicode="&#xe914;" glyph-name="chevron-up" d="M721.44 298.080l-209.44 209.28-209.44-209.28-45.12 45.28 254.56 254.56 254.56-254.56-45.12-45.28z" />
<glyph unicode="&#xe915;" glyph-name="open" d="M608 832v-64h178.72l-387.84-387.84 45.28-45.28 387.84 387.84v-178.72h64v288zM768 128h-576v576h256v64h-256c-35.346 0-64-28.654-64-64v0-576c0-35.346 28.654-64 64-64v0h576c35.346 0 64 28.654 64 64v0 256h-64z" />
<glyph unicode="&#xe916;" glyph-name="circle" d="M512 768c176.731 0 320-143.269 320-320s-143.269-320-320-320c-176.731 0-320 143.269-320 320v0c0 176.731 143.269 320 320 320v0zM512 832c-212.077 0-384-171.923-384-384s171.923-384 384-384c212.077 0 384 171.923 384 384v0c0 212.077-171.923 384-384 384v0z" />
<glyph unicode="&#xe917;" glyph-name="check" d="M844.48 724.8l-473.6-473.6-192.96 192.96-45.28-45.28 238.24-238.24 518.88 519.040-45.28 45.12z" />
<glyph unicode="&#xe918;" glyph-name="logout" d="M640 128h-512v640h512v-96h64v96c0 35.346-28.654 64-64 64v0h-512c-35.346 0-64-28.654-64-64v0-640c0-35.346 28.654-64 64-64v0h512c35.346 0 64 28.654 64 64v0 96h-64zM843.040 628.96l-45.28-45.28 103.68-103.68h-453.44v-64h453.44l-103.84-103.84 45.28-45.28 181.12 181.12z" />
<glyph unicode="&#xe919;" glyph-name="cog" d="M802.4 418.080c0.96 9.92 1.44 19.84 1.44 29.92s0 20-1.44 29.92v0l88.16 82.080-92.16 160-115.68-35.52c-6.975 5.101-15.071 10.389-23.437 15.266l-1.363 0.734c-7.009 4.15-15.672 8.64-24.574 12.695l-1.826 0.745-27.36 118.080h-184.32l-27.2-117.92c-10.728-4.8-19.391-9.29-27.786-14.187l1.386 0.747c-9.728-5.61-17.824-10.899-25.623-16.571l0.823 0.571-115.84 35.36-92.16-160 88.16-82.24c-0.96-9.92-1.44-19.84-1.44-29.92s0-20 1.44-29.92v0l-88.16-81.92 92.16-160 115.68 35.52c6.975-5.101 15.071-10.389 23.437-15.266l1.363-0.734c7.009-4.15 15.672-8.64 24.574-12.695l1.826-0.745 27.36-118.080h184.32l27.2 117.92c10.728 4.8 19.391 9.29 27.786 14.187l-1.386-0.747c9.728 5.61 17.824 10.899 25.623 16.571l-0.823-0.571 115.84-35.36 92.16 160-88.16 82.24zM512 309.76c-76.348 0-138.24 61.892-138.24 138.24s61.892 138.24 138.24 138.24c76.348 0 138.24-61.892 138.24-138.24v0c-0.182-76.275-61.965-138.058-138.223-138.24h-0.017z" />
<glyph unicode="&#xe91a;" glyph-name="cog-outline" d="M512 608c-88.366 0-160-71.634-160-160s71.634-160 160-160c88.366 0 160 71.634 160 160v0c0 88.366-71.634 160-160 160v0zM512 352c-53.019 0-96 42.981-96 96s42.981 96 96 96c53.019 0 96-42.981 96-96v0c0-53.019-42.981-96-96-96v0zM848 448c0 6.56 0 12.96-0.96 19.36l80.96 91.68-112 193.92-119.52-24.48c-9.47 6.308-20.625 12.797-32.162 18.639l-1.918 0.881-38.4 116h-224l-38.72-116c-13.455-6.723-24.61-13.212-35.334-20.299l1.254 0.779-119.2 24.48-112-193.92 81.28-91.68c0-6.4-0.96-12.8-0.96-19.36s0-12.96 0.96-19.36l-81.28-91.68 112-193.92 119.52 24.48c9.47-6.308 20.625-12.797 32.162-18.639l1.918-0.881 38.4-116h224l38.72 116c13.455 6.723 24.61 13.212 35.334 20.299l-1.254-0.779 119.2-24.48 112 193.92-81.28 91.68c1.28 6.4 1.28 12.8 1.28 19.36zM849.76 329.12l-65.76-114.24-74.4 16-25.92 5.28-22.080-14.56c-7.671-5.179-16.676-10.494-25.993-15.286l-1.527-0.714-23.52-11.84-8.32-25.12-24.32-72.64h-131.84l-24 72.16-8.32 25.12-23.52 11.84c-10.84 5.501-19.845 10.816-28.496 16.616l0.976-0.616-22.080 14.56-25.92-5.28-74.4-16-65.92 114.080 68 76.8-1.6 26.72v6.080c0 3.2 0 6.4 0 9.6s0 6.4 0 9.6v6.080l1.44 26.4-68 76.8 65.76 114.56 74.4-16 25.92-5.28 22.080 14.56c7.671 5.179 16.676 10.494 25.993 15.286l1.527 0.714 23.52 11.84 32 97.28h131.68l24-72.16 8.32-25.12 23.52-11.84c10.844-5.506 19.849-10.821 28.502-16.62l-0.982 0.62 22.080-14.56 25.92 5.28 74.4 16 65.92-114.080-68-76.8 2.4-26.24v-6.080c0-3.2 0-6.4 0-9.6s0-6.4 0-9.6v-6.080l-1.44-26.4 17.44-19.68z" />
<glyph unicode="&#xe91b;" glyph-name="close2" d="M806.56 697.44l-45.12 45.12-249.44-249.28-249.44 249.28-45.12-45.12 249.28-249.44-249.28-249.44 45.12-45.12 249.44 249.28 249.44-249.28 45.12 45.12-249.28 249.44 249.28 249.44z" />
<glyph unicode="&#xe91c;" glyph-name="comment-hide" d="M626.24 576c12.9 4.653 28.3 8.659 44.162 11.3l1.598 0.22v52.48h-448v-64zM416 288l-18.080-16-141.92-123.84v139.84h-128v480h640v-180c24.021-3.881 45.536-10.232 65.806-18.929l-1.806 0.689v214.24c0 26.51-21.49 48-48 48v0h-672c-26.51 0-48-21.49-48-48v0-512c0-26.51 21.49-48 48-48v0h80v-108c-0.024-0.585-0.038-1.272-0.038-1.962 0-26.94 21.273-48.912 47.937-50.035l0.101-0.003c11.078 0.075 21.198 4.116 29.024 10.773l-0.064-0.053 171.2 149.28h4.16c-5.678 18.866-9.513 40.735-10.691 63.308l-0.029 0.692zM720 544c-132.548 0-240-107.452-240-240s107.452-240 240-240c132.548 0 240 107.452 240 240v0c0 132.548-107.452 240-240 240v0zM851.040 218.24l-45.28-45.28-85.76 85.92-85.76-85.76-45.28 45.28 85.76 85.6-85.76 85.76 45.28 45.28 85.76-85.6 85.76 85.76 45.28-45.28-85.76-85.92zM224 480v-64h231.2c10.608 24.43 23.255 45.494 38.242 64.639l-0.482-0.639z" />
<glyph unicode="&#xe91d;" glyph-name="filter" d="M817.28 768l-241.28-331.52v-236.8l-128-62.080v298.88l-240 331.52h609.28zM849.28 832h-673.28c-0.002 0-0.005 0-0.008 0-26.51 0-48-21.49-48-48 0-10.581 3.423-20.362 9.223-28.296l-0.095 0.136 246.88-339.84v-304c0-0.005 0-0.012 0-0.018 0-26.51 21.49-48 48-48 7.626 0 14.837 1.779 21.241 4.944l-0.281-0.125 160 77.76c16.136 7.962 27.040 24.299 27.040 43.182 0 0.006 0 0.013 0 0.019v-0.001 226.24l247.52 339.52c5.852 7.863 9.368 17.765 9.368 28.488 0 26.51-21.49 48-48 48-0.312 0-0.624-0.003-0.935-0.009l0.047 0.001z" />
<glyph unicode="&#xe91e;" glyph-name="edit" d="M800 128h-608v608h352v64h-352c-35.346 0-64-28.654-64-64v0-608c0-35.346 28.654-64 64-64v0h608c35.346 0 64 28.654 64 64v0 352h-64zM872.64 785.92l-22.72 22.72c-14.476 14.472-34.473 23.423-56.56 23.423s-42.084-8.951-56.56-23.423l-304-304-34.4-170.24 170.72 35.040 304 304c14.139 14.418 22.866 34.188 22.866 55.997 0 22.049-8.92 42.014-23.348 56.485l0.002-0.002zM537.44 428.16l-57.44-12.16 11.52 56.8 220.96 220.96 45.28-45.28zM827.36 718.080l-24.32-24.32-45.28 45.28 24.32 24.32c2.892 2.875 6.878 4.653 11.28 4.653s8.388-1.777 11.281-4.653l22.719-22.719c2.875-2.892 4.653-6.878 4.653-11.28s-1.777-8.388-4.653-11.281l0.001 0.001z" />
<glyph unicode="&#xe91f;" glyph-name="edit-pencil" d="M867.84 758.56l-45.28 45.28c-17.368 17.347-41.351 28.076-67.84 28.076s-50.472-10.728-67.841-28.077l-486.559-486.399-72.32-253.44 253.44 72.32 486.4 486.56c17.347 17.368 28.076 41.351 28.076 67.84s-10.728 50.472-28.077 67.841l0.001-0.001zM347.84 193.28l-43.84-12.32c-3.893-1.137-8.366-1.792-12.992-1.792-26.51 0-48 21.49-48 48 0 4.625 0.654 9.098 1.875 13.33l-0.084-0.339 12.32 43.68 361.76 361.6 90.4-90.4zM822.56 668.16l-67.84-68-90.56 90.56 68 67.84c5.792 5.798 13.797 9.385 22.64 9.385s16.848-3.587 22.64-9.385v0l45.12-45.12c5.798-5.792 9.385-13.797 9.385-22.64s-3.587-16.848-9.385-22.64v0z" />
<glyph unicode="&#xe920;" glyph-name="menu" d="M160 416h704v64h-704zM160 192h704v64h-704zM160 704v-64h704v64z" />
<glyph unicode="&#xe921;" glyph-name="moon" d="M833.76 243.68h-2.72c-10.080 0-20.32-1.28-30.4-1.28-0.013 0-0.029 0-0.044 0-210.398 0-380.96 170.562-380.96 380.96 0 60.047 13.892 116.848 38.638 167.367l-0.994-2.247c1.999 3.916 3.17 8.542 3.17 13.441 0 16.546-13.359 29.972-29.88 30.079h-0.010c-4.042 0-7.892-0.824-11.39-2.312l0.19 0.072c-46.764-18.472-86.964-43.666-121.639-74.878l0.359 0.318c-5.6-4.96-10.56-10.24-16-16h-1.92v-1.92c-67.168-70.88-108.471-166.856-108.471-272.48 0-218.965 177.506-396.471 396.471-396.471 113.341 0 215.575 47.56 287.831 123.812l0.169 0.18c5.323 5.446 8.607 12.904 8.607 21.13 0 16.701-13.539 30.24-30.24 30.24-0.27 0-0.539-0.004-0.806-0.011l0.040 0.001zM563.68 128c-0.153 0-0.335 0-0.517 0-183.535 0-332.32 148.785-332.32 332.32 0 89.509 35.388 170.753 92.936 230.504l-0.1-0.104 7.040 7.040c3.52 3.52 6.88 6.88 9.92 9.6 8.467 7.72 17.649 15.124 27.265 21.956l0.895 0.604c-8.305-32.134-13.073-69.023-13.073-107.026 0-225.923 168.495-412.491 386.675-440.896l2.238-0.238c-51.028-33.699-113.639-53.76-180.936-53.76-0.009 0-0.017 0-0.026 0h0.001z" />
<glyph unicode="&#xe922;" glyph-name="filter-plus" d="M512 315.36v-115.52l-128-62.24v298.88l-240 331.52h608.8l-34.88-48c0.55 0.004 1.201 0.007 1.852 0.007 24.981 0 49.129-3.567 71.963-10.22l-1.814 0.453 33.12 45.44c5.777 7.83 9.245 17.67 9.245 28.321 0 26.51-21.49 48-48 48-0.1 0-0.201 0-0.301-0.001h-671.985c-0.002 0-0.005 0-0.008 0-26.51 0-48-21.49-48-48 0-10.581 3.423-20.362 9.223-28.296l-0.095 0.136 246.88-339.84v-304c0-0.005 0-0.012 0-0.018 0-26.51 21.49-48 48-48 7.626 0 14.837 1.779 21.241 4.944l-0.281-0.125 160 77.76c16.136 7.962 27.040 24.299 27.040 43.182 0 0.006 0 0.013 0 0.019v-0.001 62.72c-25.26 17.118-46.503 38.005-63.485 62.109l-0.515 0.771zM867.2 611.040c-37.644 37.663-89.66 60.96-147.116 60.96-114.875 0-208-93.125-208-208s93.125-208 208-208c57.457 0 109.472 23.297 147.116 60.959l0.001 0.001c37.522 37.621 60.724 89.541 60.724 146.88 0 57.419-23.266 109.403-60.885 147.041l0.001-0.001zM848 432h-96v-96h-64v96h-96v64h96v96h64v-96h96z" />
<glyph unicode="&#xe923;" glyph-name="filter-slider" d="M828.32 320c-15.231 64.439-72.262 111.653-140.32 111.653s-125.089-47.214-140.125-110.676l-0.195-0.978h-547.68v-64h547.68c15.231-64.439 72.262-111.653 140.32-111.653s125.089 47.214 140.125 110.676l0.195 0.978h195.68v64h-195.68zM688 208c-44.183 0-80 35.817-80 80s35.817 80 80 80c44.183 0 80-35.817 80-80v0c0-44.183-35.817-80-80-80v0zM476.32 640v0c-15.231 64.439-72.262 111.653-140.32 111.653s-125.089-47.214-140.125-110.676l-0.195-0.978h-195.68v-64h195.68c15.231-64.439 72.262-111.653 140.32-111.653s125.089 47.214 140.125 110.676l0.195 0.978h547.68v64zM336 528c-44.183 0-80 35.817-80 80s35.817 80 80 80c44.183 0 80-35.817 80-80v0c0-44.183-35.817-80-80-80v0z" />
<glyph unicode="&#xe924;" glyph-name="sun-fill" d="M119.2 362.4c-12.911-4.316-22.052-16.298-22.052-30.414 0-3.541 0.575-6.948 1.637-10.132l-0.065 0.226 4.96-16c4.526-12.535 16.32-21.333 30.17-21.333 3.632 0 7.122 0.605 10.376 1.72l-0.225-0.067 76.16 24.8-24.8 76zM291.52 683.36l64 47.040-47.040 64c-5.888 8.002-15.269 13.138-25.85 13.138-7.061 0-13.588-2.287-18.88-6.161l0.090 0.063-12.96-9.44c-8.002-5.888-13.138-15.269-13.138-25.85 0-7.061 2.287-13.588 6.161-18.88l-0.063 0.090zM512 208c132.548 0 240 107.452 240 240s-107.452 240-240 240c-132.548 0-240-107.452-240-240v0c0-132.548 107.452-240 240-240v0zM904.8 533.6c12.911 4.316 22.052 16.298 22.052 30.414 0 3.541-0.575 6.948-1.637 10.132l0.065-0.226-4.96 16c-4.526 12.535-16.32 21.333-30.17 21.333-3.632 0-7.122-0.605-10.376-1.72l0.225 0.067-76.16-24.8 24.8-76.16zM103.68 589.12l-4.96-16c-0.997-2.958-1.572-6.365-1.572-9.906 0-14.116 9.141-26.098 21.826-30.349l0.226-0.066 76.16-24.8 24.8 76.16-76.16 25.44c-2.958 0.997-6.365 1.572-9.906 1.572-14.116 0-26.098-9.141-30.349-21.826l-0.066-0.226zM552 848c0 17.673-14.327 32-32 32v0h-16c-17.673 0-32-14.327-32-32v0-80h80zM772.32 792.8l-12.96 9.44c-5.202 3.811-11.729 6.098-18.79 6.098-10.581 0-19.962-5.135-25.788-13.049l-0.062-0.088-47.040-64 64-47.040 47.040 64c3.949 5.262 6.323 11.902 6.323 19.098 0 10.399-4.961 19.64-12.645 25.485l-0.079 0.057zM904.8 362.4l-76.16 24.8-24.8-76.16 76.16-24.64c2.958-0.997 6.365-1.572 9.906-1.572 14.116 0 26.098 9.141 30.349 21.826l0.066 0.226 4.96 16c0.854 2.748 1.345 5.907 1.345 9.181 0 14.033-9.032 25.955-21.6 30.272l-0.225 0.067zM472 48c0-17.673 14.327-32 32-32v0h16c17.673 0 32 14.327 32 32v0 80h-80zM732.48 212.64l-64-47.040 47.040-64c5.888-8.002 15.269-13.138 25.85-13.138 7.061 0 13.588 2.287 18.88 6.161l-0.090-0.063 12.96 9.44c8.002 5.888 13.138 15.269 13.138 25.85 0 7.061-2.287 13.588-6.161 18.88l0.063-0.090zM244.48 147.84c-3.811-5.202-6.098-11.729-6.098-18.79 0-10.581 5.135-19.962 13.049-25.788l0.088-0.062 12.96-9.44c5.202-3.811 11.729-6.098 18.79-6.098 10.581 0 19.962 5.135 25.788 13.049l0.062 0.088 47.040 64-64 47.040z" />
<glyph unicode="&#xe925;" glyph-name="sun-outline" d="M254.88 432c0-141.385 114.615-256 256-256s256 114.615 256 256c0 141.385-114.615 256-256 256v0c-141.385 0-256-114.615-256-256v0zM702.88 432c0-106.039-85.961-192-192-192s-192 85.961-192 192c0 106.039 85.961 192 192 192v0c106.039 0 192-85.961 192-192v0zM290.4 667.36l64.8 47.040-47.040 64c-5.883 8.063-15.3 13.243-25.926 13.243-7.028 0-13.527-2.266-18.806-6.106l0.092 0.064-12.96-9.44c-8.063-5.883-13.243-15.3-13.243-25.926 0-7.028 2.266-13.527 6.106-18.806l-0.064 0.092zM550.88 832c0 17.673-14.327 32-32 32v0h-16c-17.673 0-32-14.327-32-32v0-80h80zM118.88 346.4c-13.288-4.091-22.778-16.258-22.778-30.642 0-3.457 0.548-6.785 1.562-9.904l-0.064 0.226 4.96-16c4.526-12.535 16.32-21.333 30.17-21.333 3.632 0 7.122 0.605 10.376 1.72l-0.225-0.067 76 24.64-24.64 76.16zM904.48 517.6c12.911 4.316 22.052 16.298 22.052 30.414 0 3.541-0.575 6.948-1.637 10.132l0.065-0.226-4.8 15.2c-4.316 12.911-16.298 22.052-30.414 22.052-3.541 0-6.948-0.575-10.132-1.637l0.226 0.065-76.16-24.64 24.8-76.16zM772.16 776.8l-12.96 9.44c-5.208 3.824-11.746 6.119-18.819 6.119-10.659 0-20.101-5.212-25.917-13.226l-0.064-0.093-47.040-64 64.8-47.040 47.040 64c3.692 5.148 5.903 11.575 5.903 18.519 0 10.842-5.392 20.425-13.641 26.213l-0.102 0.068zM732.16 196.64l-64.8-47.040 47.040-64c5.88-8.107 15.322-13.319 25.981-13.319 7.074 0 13.611 2.295 18.908 6.181l-0.089-0.063 12.96 9.44c8.002 5.888 13.138 15.269 13.138 25.85 0 7.061-2.287 13.588-6.161 18.88l0.063-0.090zM102.56 573.12l-4.96-15.2c-0.997-2.958-1.572-6.365-1.572-9.906 0-14.116 9.141-26.098 21.826-30.349l0.226-0.066 76.16-24.8 24.64 76.16-76 24.64c-2.958 0.997-6.365 1.572-9.906 1.572-14.116 0-26.098-9.141-30.349-21.826l-0.066-0.226zM903.68 346.4l-76 24.8-24.8-76.16 76.16-24.64c2.958-0.997 6.365-1.572 9.906-1.572 14.116 0 26.098 9.141 30.349 21.826l0.066 0.226 4.8 16c0.854 2.748 1.345 5.907 1.345 9.181 0 14.033-9.032 25.955-21.6 30.272l-0.225 0.067zM243.36 131.84c-3.777-5.187-6.043-11.686-6.043-18.714 0-10.626 5.18-20.043 13.152-25.863l0.091-0.063 12.96-9.44c5.187-3.777 11.686-6.043 18.714-6.043 10.626 0 20.043 5.18 25.863 13.152l0.063 0.091 47.040 64-64.8 47.040zM470.88 32c0-17.673 14.327-32 32-32v0h16c17.673 0 32 14.327 32 32v0 80h-80z" />
<glyph unicode="&#xe926;" glyph-name="filter-stack" d="M384 160h256v64h-256zM128 736v-64h768v64zM256 416h512v64h-512z" />
<glyph unicode="&#xe927;" glyph-name="expand" d="M466.72 357.44l-45.28 45.28-229.44-229.44v178.72h-64v-288h288v64h-178.72l229.44 229.44zM608 832v-64h178.72l-229.44-229.44 45.28-45.28 229.44 229.44v-178.72h64v288h-288z" />
<glyph unicode="&#xe928;" glyph-name="cloud" d="M651.52 768c0.080 0 0.175 0 0.27 0 10.938 0 21.631-1.048 31.984-3.050l-1.053 0.17c92.64-17.6 156.48-112 148.48-218.080l-3.040-40.32 35.040-20c58.228-33.712 96.772-95.715 96.772-166.72 0-106.029-85.945-191.984-191.97-192h-560.001c-80 0-144 57.44-144 128 2.394 56.896 40.942 104.175 93.159 119.606l0.921 0.234 48 16-3.52 49.6c-0.351 4.106-0.55 8.885-0.55 13.711 0 10.878 1.015 21.518 2.957 31.832l-0.166-1.062c16.32 88.96 103.040 154.080 205.6 154.080 6.080 0 12.32 0 18.4 0l39.040-2.88 20.32 33.44c33.628 56.948 93.791 95.105 163.036 97.431l0.324 0.009zM651.52 832c-92.824-2.302-173.289-53.088-217.259-127.904l-0.661-1.216q-11.68 1.12-23.2 1.12c-131.2 0-245.92-83.84-269.12-206.24-2.548-13.028-4.007-28.010-4.007-43.331 0-6.148 0.235-12.24 0.696-18.27l-0.049 0.801c-79.045-24.257-135.886-95.706-137.916-180.728l-0.004-0.232c0-106.080 93.12-192 208-192h560c141.186 0.264 255.537 114.778 255.537 256 0 94.523-51.228 177.081-127.436 221.424l-1.221 0.656c10.4 137.6-73.92 261.76-200.32 285.76-12.921 2.607-27.791 4.119-43.007 4.16h-0.033z" />
<glyph unicode="&#xe929;" glyph-name="refresh" d="M512 768c117.694-0.125 220.496-63.768 275.983-158.49l0.817-1.51h-180.8v-64h288v288h-64v-171.84c-69.798 104.045-186.967 171.608-319.915 171.608-200.731 0-365.49-154.019-382.544-350.327l-0.101-1.441h64c16.804 162.421 152.935 288 318.396 288 0.058 0 0.115 0 0.173 0h-0.009zM512 128c-117.694 0.125-220.496 63.768-275.983 158.49l-0.817 1.51h180.8v64h-288v-288h64v171.84c69.798-104.045 186.967-171.608 319.915-171.608 200.731 0 365.49 154.019 382.544 350.327l0.101 1.441h-64c-16.804-162.421-152.935-288-318.396-288-0.058 0-0.115 0-0.173 0h0.009z" />
<glyph unicode="&#xe92a;" glyph-name="calblank" d="M832 800h-128v32c0 17.673-14.327 32-32 32s-32-14.327-32-32v0-32h-256v32c0 17.673-14.327 32-32 32s-32-14.327-32-32v0-32h-128c-35.346 0-64-28.654-64-64v0-608c0-35.346 28.654-64 64-64v0h640c35.346 0 64 28.654 64 64v0 608c0 35.346-28.654 64-64 64v0zM832 128h-640v416h640zM832 608h-640v128h128v-32c0-17.673 14.327-32 32-32s32 14.327 32 32v0 32h256v-32c0-17.673 14.327-32 32-32s32 14.327 32 32v0 32h128z" />
<glyph unicode="&#xe92b;" glyph-name="calendar" d="M736 448h-448v-64h448zM608 320h-320v-64h320zM832 832h-128v32c0 17.673-14.327 32-32 32s-32-14.327-32-32v0-32h-256v32c0 17.673-14.327 32-32 32s-32-14.327-32-32v0-32h-128c-35.346 0-64-28.654-64-64v0-640c0-35.346 28.654-64 64-64v0h640c35.346 0 64 28.654 64 64v0 640c0 35.346-28.654 64-64 64v0zM832 128h-640v448h640zM832 640h-640v128h128v-32c0-17.673 14.327-32 32-32s32 14.327 32 32v0 32h256v-32c0-17.673 14.327-32 32-32s32 14.327 32 32v0 32h128z" />
<glyph unicode="&#xe92c;" glyph-name="search-left" d="M629.6 375.68c37.865 47.374 60.761 108.153 60.761 174.279 0 154.816-125.504 280.32-280.32 280.32s-280.32-125.504-280.32-280.32c0-154.816 125.504-280.32 280.32-280.32 66.126 0 126.905 22.897 174.84 61.194l-0.561-0.433 263.68-264 45.6 45.6zM563.040 396.96c-39.014-38.651-92.717-62.532-151.999-62.532-119.294 0-216 96.706-216 216s96.706 216 216 216c119.294 0 216-96.706 216-216 0-0.235 0-0.469-0.001-0.704v0.036c-0.019-59.798-24.497-113.876-63.974-152.774l-0.026-0.026z" />
<glyph unicode="&#xe92d;" glyph-name="plus-circle" d="M544 640h-64v-160h-160v-64h160v-160h64v160h160v64h-160zM806.080 742.080c-75.281 75.279-179.279 121.84-294.153 121.84-229.75 0-416-186.25-416-416s186.25-416 416-416c114.873 0 218.872 46.561 294.153 121.84v0c75.594 75.139 122.38 179.186 122.38 294.16s-46.787 219.021-122.36 294.14l-0.021 0.020zM760.96 199.040c-63.705-63.734-151.729-103.157-248.96-103.157-194.404 0-352 157.596-352 352s157.596 352 352 352c194.363 0 351.933-157.529 352-351.877v-0.006c0.001-0.31 0.002-0.677 0.002-1.045 0-96.881-39.39-184.562-103.028-247.902l-0.013-0.013z" />
<glyph unicode="&#xe92e;" glyph-name="calblank2" d="M832 768h-128v32c0 17.673-14.327 32-32 32s-32-14.327-32-32v0-32h-256v32c0 17.673-14.327 32-32 32s-32-14.327-32-32v0-32h-128c-35.346 0-64-28.654-64-64v0-576c0-35.346 28.654-64 64-64v0h640c35.346 0 64 28.654 64 64v0 576c0 35.346-28.654 64-64 64v0zM832 128h-640v384h640zM832 576h-640v128h128v-32c0-17.673 14.327-32 32-32s32 14.327 32 32v0 32h256v-32c0-17.673 14.327-32 32-32s32 14.327 32 32v0 32h128z" />
<glyph unicode="&#xe92f;" glyph-name="calendar-check" d="M832 832h-128v32c0 17.673-14.327 32-32 32s-32-14.327-32-32v0-32h-256v32c0 17.673-14.327 32-32 32s-32-14.327-32-32v0-32h-128c-35.346 0-64-28.654-64-64v0-640c0-35.346 28.654-64 64-64v0h640c35.346 0 64 28.654 64 64v0 640c0 35.346-28.654 64-64 64v0zM832 128h-640v448h640zM832 640h-640v128h128v-32c0-17.673 14.327-32 32-32s32 14.327 32 32v0 32h256v-32c0-17.673 14.327-32 32-32s32 14.327 32 32v0 32h128zM480 210.72l246.56 246.72-45.12 45.12-201.44-201.28-105.44 105.28-45.12-45.12 150.56-150.72z" />
<glyph unicode="&#xe930;" glyph-name="calendar-day" d="M832 832h-128v32c0 17.673-14.327 32-32 32s-32-14.327-32-32v0-32h-256v32c0 17.673-14.327 32-32 32s-32-14.327-32-32v0-32h-128c-35.346 0-64-28.654-64-64v0-640c0-35.346 28.654-64 64-64v0h640c35.346 0 64 28.654 64 64v0 640c0 35.346-28.654 64-64 64v0zM832 128h-640v448h640zM832 640h-640v128h128v-32c0-17.673 14.327-32 32-32s32 14.327 32 32v0 32h256v-32c0-17.673 14.327-32 32-32s32 14.327 32 32v0 32h128zM608 369.12v-145.12h64v224h-55.2s-6.4-9.76-8.64-12.8c-8.213-10.543-17.534-19.661-27.937-27.408l-0.383-0.272c-10.303-7.612-22.157-13.997-34.873-18.576l-0.967-0.304v-51.52c20.782 6.452 38.865 14.989 55.448 25.655l-0.888-0.535c3.579 2.283 6.659 4.549 9.582 6.995l-0.142-0.115zM376.16 362.24c3.44 2.282 6.415 4.545 9.237 6.979l-0.117-0.099v-145.12h64v224h-54.88s-6.4-9.76-8.64-12.8c-8.213-10.543-17.534-19.661-27.937-27.408l-0.383-0.272c-10.767-7.851-23.15-14.452-36.415-19.2l-1.025-0.32v-52c21.393 6.715 40.004 15.63 57.026 26.772l-0.866-0.532z" />
<glyph unicode="&#xe931;" glyph-name="calendar-blank" d="M832 832h-128v32c0 17.673-14.327 32-32 32s-32-14.327-32-32v0-32h-256v32c0 17.673-14.327 32-32 32s-32-14.327-32-32v0-32h-128c-35.346 0-64-28.654-64-64v0-640c0-35.346 28.654-64 64-64v0h640c35.346 0 64 28.654 64 64v0 640c0 35.346-28.654 64-64 64v0zM832 128h-640v448h640zM832 640h-640v128h128v-32c0-17.673 14.327-32 32-32s32 14.327 32 32v0 32h256v-32c0-17.673 14.327-32 32-32s32 14.327 32 32v0 32h128z" />
<glyph unicode="&#xe932;" glyph-name="send" d="M886.56 854.56c-5.793 5.805-13.803 9.396-22.651 9.396-3.336 0-6.552-0.51-9.576-1.457l0.227 0.061-736-224c-13.225-4.13-22.656-16.266-22.656-30.605 0-11.295 5.852-21.223 14.69-26.918l0.126-0.076 307.52-194.72 194.72-307.36c5.765-9 15.713-14.88 27.035-14.88 0.002 0 0.003 0 0.005 0h4.32c12.563 1.715 22.698 10.511 26.339 22.173l0.061 0.227 224 736c0.886 2.797 1.396 6.014 1.396 9.35 0 8.928-3.656 17.001-9.552 22.806l-0.004 0.004zM629.76 172l-147.68 232.96 173.92 174.080c4.326 5.409 6.941 12.35 6.941 19.901 0 17.673-14.327 32-32 32-7.552 0-14.492-2.616-19.965-6.991l0.064 0.049-174.080-173.92-232.96 147.68 612 186.24z" />
<glyph unicode="&#xe933;" glyph-name="star" d="M512 782.4l124.32-201.76 25.6-6.24 204.8-49.6-153.6-180 2.080-26.24 16-210.080-194.88 80-24.32 9.6-24.32-10.080-194.88-80 16 210.080 2.080 26.24-17.12 20-136.48 160 230.4 55.84 13.76 22.4 110.56 179.84zM512 860.96c-17.176-0.038-32.228-9.091-40.682-22.676l-0.118-0.204-124.16-201.6-230.080-55.68c-21.231-5.261-36.721-24.149-36.721-46.656 0-11.897 4.328-22.783 11.496-31.17l-0.055 0.066 153.28-180.32-17.92-236c-0.086-1.075-0.134-2.327-0.134-3.59 0-26.51 21.49-48 48-48 6.569 0 12.829 1.319 18.531 3.708l-0.317-0.118 218.88 90.080 218.88-90.080c5.385-2.271 11.646-3.59 18.214-3.59 26.51 0 48 21.49 48 48 0 1.263-0.049 2.516-0.145 3.754l0.010-0.164-18.080 236 153.28 180.32c7.113 8.32 11.441 19.207 11.441 31.104 0 22.507-15.49 41.395-36.391 46.587l-0.33 0.069-229.92 55.84-124.16 201.44c-8.572 13.789-23.624 22.842-40.794 22.88h-0.006z" />
<glyph unicode="&#xe934;" glyph-name="download" d="M760.96 472.96l-45.28 45.28-171.68-171.68v549.44h-64v-549.44l-171.68 171.68-45.28-45.28 248.96-248.96zM832 256v-128h-640v128h-64v-128c0-35.346 28.654-64 64-64v0h640c35.346 0 64 28.654 64 64v0 128z" />
<glyph unicode="&#xe935;" glyph-name="image-fill" d="M244.8 240h535.040c8.835 0.002 15.997 7.164 15.997 16 0 3.011-0.832 5.827-2.278 8.232l0.040-0.072-115.84 192.96c-2.839 4.724-7.936 7.835-13.76 7.835s-10.921-3.112-13.72-7.763l-0.040-0.072-74.24-123.040-138.24 220.32c-2.869 4.575-7.885 7.571-13.6 7.571s-10.731-2.997-13.561-7.505l-0.039-0.067-179.36-289.92c-1.526-2.407-2.432-5.338-2.432-8.48 0-8.837 7.163-16 16-16 0.011 0 0.023 0 0.034 0h-0.002zM768 576c35.346 0 64 28.654 64 64s-28.654 64-64 64v0c-0.434 0.011-0.945 0.017-1.457 0.017-34.551 0-62.56-28.009-62.56-62.56 0-0.512 0.006-1.023 0.018-1.533l-0.001 0.076c0-35.346 28.654-64 64-64v0zM928 864h-832c-35.346 0-64-28.654-64-64v0-704c0-35.346 28.654-64 64-64v0h832c35.346 0 64 28.654 64 64v0 704c0 35.346-28.654 64-64 64v0zM928 96h-832v704h832z" />
<glyph unicode="&#xe936;" glyph-name="redo" d="M480 832c156.71-0.122 291.441-94.097 351.031-228.748l0.969-2.452v231.2h64v-352h-352v64h241.12c-41.993 131.1-162.792 224.344-305.369 224.344-176.731 0-320-143.269-320-320s143.269-320 320-320c59.012 0 114.292 15.973 161.754 43.833l-1.506-0.817v-72.32c-47.025-22.126-102.134-35.040-160.259-35.040-212.077 0-384 171.923-384 384s171.923 384 384 384c0.091 0 0.182 0 0.273 0h-0.014z" />
<glyph unicode="&#xe937;" glyph-name="trashcan" d="M448 576h-64v-352h64zM704 736v80c0 26.51-21.49 48-48 48v0h-288c-26.51 0-48-21.49-48-48v0-80h-192v-64h67.040l28.96-608h576l28.96 608h67.040v64zM384 800h256v-64h-256zM739.040 128h-454.080l-25.76 544h505.6zM640 576h-64v-352h64z" />
<glyph unicode="&#xe938;" glyph-name="undo" d="M544 832c-156.71-0.122-291.441-94.097-351.031-228.748l-0.969-2.452v231.2h-64v-352h352v64h-241.12c41.993 131.1 162.792 224.344 305.369 224.344 176.731 0 320-143.269 320-320s-143.269-320-320-320c-59.012 0-114.292 15.973-161.754 43.833l1.506-0.817v-72.32c47.025-22.126 102.134-35.040 160.259-35.040 212.077 0 384 171.923 384 384s-171.923 384-384 384c-0.091 0-0.182 0-0.273 0h0.014z" />
<glyph unicode="&#xe939;" glyph-name="undo1" d="M320 856.96l-248.96-248.96 248.96-248.96 45.28 45.28-203.68 203.68 203.68 203.68-45.28 45.28zM144 640h656v-64h-656v64zM832 640v-576h-64v576h64z" />
<glyph unicode="&#xe93a;" glyph-name="star-fill" d="M512 860.96c-17.176-0.038-32.228-9.091-40.682-22.676l-0.118-0.204-124.16-201.6-230.080-55.68c-21.231-5.261-36.721-24.149-36.721-46.656 0-11.897 4.328-22.783 11.496-31.17l-0.055 0.066 153.28-180.32-17.92-236c-0.086-1.075-0.134-2.327-0.134-3.59 0-26.51 21.49-48 48-48 6.569 0 12.829 1.319 18.531 3.708l-0.317-0.118 218.88 90.080 218.88-90.080c5.385-2.271 11.646-3.59 18.214-3.59 26.51 0 48 21.49 48 48 0 1.263-0.049 2.516-0.145 3.754l0.010-0.164-18.080 236 153.28 180.32c7.113 8.32 11.441 19.207 11.441 31.104 0 22.507-15.49 41.395-36.391 46.587l-0.33 0.069-229.92 55.84-124.16 201.44c-8.572 13.789-23.624 22.842-40.794 22.88h-0.006z" />
<glyph unicode="&#xe93b;" glyph-name="star7" d="M754.24 43.2c0 0-0.001 0-0.001 0-4.385 0-8.564 0.882-12.37 2.478l0.211-0.078-230.080 94.72-230.080-94.72c-3.62-1.542-7.832-2.439-12.253-2.439-17.673 0-32 14.327-32 32 0 0.858 0.034 1.709 0.1 2.55l-0.007-0.111 19.040 248.16-160.8 189.44c-4.834 5.574-7.78 12.9-7.78 20.914 0 14.75 9.98 27.169 23.556 30.874l0.224 0.052 241.76 58.56 131.040 212c5.724 9.223 15.796 15.273 27.28 15.273s21.556-6.050 27.201-15.137l0.079-0.136 130.4-211.84 242.24-58.72c13.8-3.757 23.78-16.176 23.78-30.926 0-8.014-2.946-15.34-7.814-20.954l0.034 0.040-160-189.44 19.040-248.16c0.057-0.718 0.090-1.555 0.090-2.4 0-17.673-14.327-32-32-32-0.032 0-0.063 0-0.095 0h0.005zM512 206.88c0 0 0.001 0 0.001 0 4.385 0 8.564-0.882 12.37-2.478l-0.211 0.078 194.24-80-16 209.44c-0.061 0.742-0.096 1.606-0.096 2.477 0 7.925 2.881 15.178 7.653 20.767l-0.037-0.044 136 160-204 49.44c-8.378 2.105-15.289 7.295-19.601 14.263l-0.079 0.137-110.24 178.88-110.080-178.88c-4.391-7.105-11.302-12.295-19.459-14.353l-0.221-0.047-204.16-49.44 136-160c4.735-5.545 7.616-12.797 7.616-20.723 0-0.872-0.035-1.736-0.103-2.59l0.007 0.113-16-209.44 194.24 80c3.595 1.518 7.774 2.4 12.159 2.4 0 0 0.001 0 0.001 0v0z" />
<glyph unicode="&#xe93c;" glyph-name="paperclip1" d="M845.76 802.24c-42.778 37.532-99.206 60.429-160.982 60.429-68.572 0-130.554-28.212-174.973-73.663l-0.045-0.047-368-368c-5.798-5.792-9.385-13.797-9.385-22.64s3.587-16.848 9.385-22.64v0c5.792-5.798 13.797-9.385 22.64-9.385s16.848 3.587 22.64 9.385v0l369.76 369.28c32.6 33.361 78.046 54.049 128.324 54.049 42.385 0 81.335-14.702 112.031-39.284l-0.355 0.275c39.306-32.519 64.161-81.306 64.161-135.897 0-48.587-19.688-92.576-51.522-124.423l-370.239-370.079c-20.843-21.45-49.964-34.76-82.195-34.76-25.547 0-49.14 8.362-68.193 22.498l0.308-0.218c-26.8 20.674-43.894 52.798-43.894 88.914 0 30.953 12.556 58.973 32.853 79.245l315.361 315.361c8.97 9.256 21.516 15 35.404 15 9.777 0 18.89-2.847 26.553-7.758l-0.197 0.118c12.991-8.727 21.425-23.365 21.425-39.972 0-13.258-5.375-25.261-14.065-33.947l-272-272c-5.798-5.792-9.385-13.797-9.385-22.64s3.587-16.848 9.385-22.64v0c5.792-5.798 13.797-9.385 22.64-9.385s16.848 3.587 22.64 9.385v0l268.8 268.8c21.45 20.843 34.76 49.964 34.76 82.195 0 25.547-8.362 49.14-22.498 68.193l0.218-0.308c-20.674 26.8-52.798 43.894-88.914 43.894-30.953 0-58.973-12.556-79.245-32.853l-312.481-312.481c-33.361-32.6-54.049-78.046-54.049-128.324 0-42.385 14.702-81.335 39.284-112.031l-0.275 0.355c32.518-39.255 81.273-64.073 135.825-64.073 48.623 0 92.641 19.717 124.494 51.592l372.801 372.801c43.401 43.426 70.243 103.406 70.243 169.655 0 70.52-30.415 133.935-78.842 177.845l-0.201 0.18z" />
<glyph unicode="&#xe93d;" glyph-name="paperclip2" d="M829.76 802.24c-42.778 37.532-99.206 60.429-160.982 60.429-68.572 0-130.554-28.212-174.973-73.663l-0.045-0.047-368-368c-5.794-5.794-9.378-13.799-9.378-22.64 0-17.683 14.335-32.018 32.018-32.018 8.841 0 16.846 3.584 22.64 9.378v0l369.76 369.28c32.6 33.361 78.046 54.049 128.324 54.049 42.385 0 81.335-14.702 112.031-39.284l-0.355 0.275c39.306-32.519 64.161-81.306 64.161-135.897 0-48.587-19.688-92.576-51.522-124.423l-370.239-370.079c-20.843-21.45-49.964-34.76-82.195-34.76-25.547 0-49.14 8.362-68.193 22.498l0.308-0.218c-26.8 20.674-43.894 52.798-43.894 88.914 0 30.953 12.556 58.973 32.853 79.245l315.361 315.361c8.97 9.256 21.516 15 35.404 15 9.777 0 18.89-2.847 26.553-7.758l-0.197 0.118c12.991-8.727 21.425-23.365 21.425-39.972 0-13.258-5.375-25.261-14.065-33.947l-226.24-226.24c-5.794-5.794-9.378-13.799-9.378-22.64 0-17.683 14.335-32.018 32.018-32.018 8.841 0 16.846 3.584 22.64 9.378l224 224c21.45 20.843 34.76 49.964 34.76 82.195 0 25.547-8.362 49.14-22.498 68.193l0.218-0.308c-20.674 26.8-52.798 43.894-88.914 43.894-30.953 0-58.973-12.556-79.245-32.853l-313.441-313.441c-33.361-32.6-54.049-78.046-54.049-128.324 0-42.385 14.702-81.335 39.284-112.031l-0.275 0.355c32.519-39.306 81.306-64.161 135.897-64.161 48.587 0 92.576 19.688 124.423 51.522l372.799 372.799c43.451 43.435 70.328 103.448 70.328 169.739 0 70.559-30.449 134.007-78.924 177.92l-0.204 0.182z" />
<glyph unicode="&#xe93e;" glyph-name="paperclip3" d="M829.76 802.24c-42.778 37.532-99.206 60.429-160.982 60.429-68.572 0-130.554-28.212-174.973-73.663l-0.045-0.047-368-368c-5.798-5.792-9.385-13.797-9.385-22.64s3.587-16.848 9.385-22.64v0c5.792-5.798 13.797-9.385 22.64-9.385s16.848 3.587 22.64 9.385v0l369.76 369.28c32.6 33.361 78.046 54.049 128.324 54.049 42.385 0 81.335-14.702 112.031-39.284l-0.355 0.275c39.306-32.519 64.161-81.306 64.161-135.897 0-48.587-19.688-92.576-51.522-124.423l-370.239-370.079c-20.843-21.45-49.964-34.76-82.195-34.76-25.547 0-49.14 8.362-68.193 22.498l0.308-0.218c-26.8 20.674-43.894 52.798-43.894 88.914 0 30.953 12.556 58.973 32.853 79.245l315.361 315.361c8.97 9.256 21.516 15 35.404 15 9.777 0 18.89-2.847 26.553-7.758l-0.197 0.118c12.991-8.727 21.425-23.365 21.425-39.972 0-13.258-5.375-25.261-14.065-33.947l-248.8-248.8c-5.798-5.792-9.385-13.797-9.385-22.64s3.587-16.848 9.385-22.64v0c5.792-5.798 13.797-9.385 22.64-9.385s16.848 3.587 22.64 9.385v0l246.080 246.080c21.45 20.843 34.76 49.964 34.76 82.195 0 25.547-8.362 49.14-22.498 68.193l0.218-0.308c-20.674 26.8-52.798 43.894-88.914 43.894-30.953 0-58.973-12.556-79.245-32.853l-312.961-312.961c-33.361-32.6-54.049-78.046-54.049-128.324 0-42.385 14.702-81.335 39.284-112.031l-0.275 0.355c32.518-39.255 81.273-64.073 135.825-64.073 48.623 0 92.641 19.717 124.494 51.592l372.801 372.801c43.401 43.426 70.243 103.406 70.243 169.655 0 70.52-30.415 133.935-78.842 177.845l-0.201 0.18z" />
<glyph unicode="&#xe93f;" glyph-name="star21" d="M891.52 577.12l-219.52 53.12-118.72 192c-8.593 13.797-23.68 22.844-40.88 22.844s-32.287-9.047-40.762-22.641l-0.118-0.203-119.52-192-219.52-53.12c-21.288-5.219-36.835-24.136-36.835-46.683 0-11.959 4.373-22.896 11.607-31.3l-0.053 0.063 146.56-171.84-17.28-224.96c-0.086-1.075-0.134-2.327-0.134-3.59 0-26.51 21.49-48 48-48 6.569 0 12.829 1.319 18.531 3.708l-0.317-0.118 209.44 85.92 209.44-85.92c5.385-2.271 11.646-3.59 18.214-3.59 26.51 0 48 21.49 48 48 0 1.263-0.049 2.516-0.145 3.754l0.010-0.164-17.28 224.96 146.56 171.84c7.181 8.341 11.555 19.278 11.555 31.237 0 22.548-15.547 41.464-36.505 46.615l-0.329 0.068zM536.32 199.52l-24.32 9.92-24.32-9.92-185.44-76.16 16 199.2 1.76 26.24-17.6 20.16-129.6 152 220.8 53.28 118.4 192.64 118.88-192.64 25.6-6.24 194.72-47.040-129.6-152-17.6-20.16 2.080-26.4 16-199.2z" />
<glyph unicode="&#xe940;" glyph-name="paper" d="M589.44 832h-349.44c-26.51 0-48-21.49-48-48v0-672c0-26.51 21.49-48 48-48v0h544c26.51 0 48 21.49 48 48v0 470.72c-0.012 13.25-5.391 25.241-14.079 33.919l-205.921 205.921c-5.767 5.8-13.739 9.402-22.553 9.44h-0.007zM576 576v192l192-192zM256 128v640h256v-256h256v-384z" />
<glyph unicode="&#xe941;" glyph-name="star2" d="M891.52 577.12l-219.52 53.12-118.72 192c-8.593 13.797-23.68 22.844-40.88 22.844s-32.287-9.047-40.762-22.641l-0.118-0.203-119.52-192-219.52-53.12c-21.288-5.219-36.835-24.136-36.835-46.683 0-11.959 4.373-22.896 11.607-31.3l-0.053 0.063 146.56-171.84-17.28-224.96c-0.086-1.075-0.134-2.327-0.134-3.59 0-26.51 21.49-48 48-48 6.569 0 12.829 1.319 18.531 3.708l-0.317-0.118 209.44 85.92 209.44-85.92c5.385-2.271 11.646-3.59 18.214-3.59 26.51 0 48 21.49 48 48 0 1.263-0.049 2.516-0.145 3.754l0.010-0.164-17.28 224.96 146.56 171.84c7.181 8.341 11.555 19.278 11.555 31.237 0 22.548-15.547 41.464-36.505 46.615l-0.329 0.068zM536.32 199.52l-24.32 9.92-24.32-9.92-185.44-76.16 16 199.2 1.76 26.24-17.6 20.16-129.6 152 220.8 53.28 118.4 192.64 118.88-192.64 25.6-6.24 194.72-47.040-129.6-152-17.6-20.16 2.080-26.4 16-199.2z" />
<glyph unicode="&#xe942;" glyph-name="star3" d="M512 754.080l100.48-162.080 13.76-22.4 25.6-6.24 185.76-44.96-123.68-145.6-17.12-20.8 2.080-26.4 14.56-190.24-201.44 83.52-24.32-9.92-177.12-72.8 14.56 190.24 2.080 25.6-17.12 20.8-123.84 145.12 211.36 51.2 13.76 22.4 100.64 162.56zM512 832c-17.147-0.001-32.194-8.994-40.683-22.52l-0.117-0.2-114.080-184.16-211.2-51.040c-21.279-5.226-36.816-24.138-36.816-46.679 0-12.035 4.429-23.035 11.746-31.46l-0.050 0.059 140.64-164.8-16-216c-0.086-1.075-0.134-2.327-0.134-3.59 0-26.51 21.49-48 48-48 6.569 0 12.829 1.319 18.531 3.708l-0.317-0.118 200.48 82.4 201.12-82.56c5.385-2.271 11.646-3.59 18.214-3.59 26.51 0 48 21.49 48 48 0 1.263-0.049 2.516-0.145 3.754l0.010-0.164-16 216 140 164.96c7.113 8.32 11.441 19.207 11.441 31.104 0 22.507-15.49 41.395-36.391 46.587l-0.33 0.069-211.2 51.040-113.92 184.96c-8.655 13.455-23.553 22.241-40.503 22.241-0.105 0-0.209 0-0.313-0.001h0.016z" />
<glyph unicode="&#xe943;" glyph-name="star4" d="M273.12 48c-0.048 0-0.104 0-0.16 0-17.673 0-32 14.327-32 32 0 1.127 0.058 2.241 0.172 3.338l-0.012-0.137 24.64 245.92-164.48 184.32c-5.067 5.638-8.166 13.133-8.166 21.352 0 15.295 10.73 28.083 25.073 31.248l0.212 0.039 241.44 52.48 124.48 213.44c5.63 9.623 15.911 15.988 27.678 16h0.002c11.769-0.012 22.050-6.377 27.598-15.849l0.082-0.151 124.64-213.44 241.28-52.16c14.555-3.204 25.286-15.993 25.286-31.288 0-8.219-3.099-15.715-8.192-21.382l0.026 0.029-164.48-184.48 24.8-245.92c0.070-0.794 0.11-1.717 0.11-2.65 0-17.673-14.327-32-32-32-4.611 0-8.994 0.975-12.954 2.73l0.204-0.081-226.4 98.88-226.080-99.52c-3.766-1.704-8.164-2.703-12.794-2.72h-0.006zM185.44 515.2l137.44-153.92c5.060-5.636 8.154-13.127 8.154-21.34 0-1.106-0.056-2.199-0.166-3.276l0.011 0.135-20.48-205.44 188.96 83.2c3.791 1.71 8.219 2.707 12.88 2.707s9.089-0.996 13.083-2.788l-0.203 0.081 188.96-83.040-20.8 205.28c-0.098 0.942-0.154 2.034-0.154 3.14 0 8.213 3.094 15.704 8.181 21.37l-0.026-0.030 137.28 153.92-201.76 44c-8.939 2.017-16.311 7.557-20.718 15.050l-0.082 0.15-104 177.6-104-177.76c-4.489-7.643-11.861-13.183-20.586-15.159l-0.214-0.041z" />
<glyph unicode="&#xe944;" glyph-name="star5" d="M512 761.28l113.92-193.12 27.040-6.080 192-42.72-129.92-147.2-18.72-20.16 2.56-27.52 18.72-196.48-205.6 89.76-25.44-11.040-180.16-78.72 21.28 224-18.4 20.8-129.92 147.2 219.040 48.8 13.76 23.2 99.84 169.28zM512 841.28c-17.474-0.003-32.766-9.343-41.159-23.303l-0.121-0.217-113.6-192-218.080-49.76c-21.527-5.041-37.313-24.075-37.313-46.795 0-12.13 4.499-23.209 11.92-31.659l-0.047 0.054 147.84-167.52-21.44-222.24c-0.103-1.18-0.162-2.552-0.162-3.939 0-26.51 21.49-48 48-48 6.884 0 13.43 1.449 19.349 4.059l-0.307-0.121 205.12 88.16 204.96-88.8c5.612-2.489 12.157-3.939 19.042-3.939 26.51 0 48 21.49 48 48 0 1.386-0.059 2.759-0.174 4.115l0.012-0.177-21.12 222.4 147.68 168c7.374 8.396 11.873 19.475 11.873 31.605 0 22.721-15.786 41.754-36.988 46.731l-0.325 0.064-217.92 48-113.6 192c-8.248 14.731-23.669 24.577-41.409 24.8h-0.031z" />
<glyph unicode="&#xe945;" glyph-name="star6" d="M512 764.64l104.64-209.44 231.36-34.88-166.72-164.32 5.44-32 33.28-198.88-178.56 92.48-29.44 16-29.44-16-178.56-92.48 32.96 198.080 5.44 32-23.68 23.36-142.72 141.76 231.2 34.88 14.88 29.76 89.92 179.68zM512 848c-18.67-0.026-34.838-10.707-42.754-26.287l-0.126-0.273-104.16-208-230.24-34.56c-23.241-3.615-40.819-23.484-40.819-47.46 0-13.354 5.453-25.434 14.255-34.136l0.005-0.004 165.92-163.52-38.24-229.76c-0.404-2.338-0.634-5.030-0.634-7.777 0-26.51 21.49-48 48-48 8.065 0 15.665 1.989 22.337 5.503l-0.262-0.126 206.72 107.2 206.72-107.36c6.409-3.388 14.010-5.377 22.074-5.377 26.51 0 48 21.49 48 48 0 2.746-0.231 5.439-0.674 8.059l0.039-0.282-38.24 229.92 165.92 163.36c8.806 8.706 14.259 20.786 14.259 34.14 0 23.975-17.578 43.845-40.549 47.425l-0.27 0.035-230.24 34.88-104.16 208c-8.080 15.784-24.233 26.4-42.865 26.4-0.005 0-0.010 0-0.015 0h0.001z" />
<glyph unicode="&#xe946;" glyph-name="star8" d="M512 770.72l122.4-191.36 24.16-6.4 195.52-51.040-128-156.16-16-19.36 1.44-24.96 11.84-201.76-211.36 82.72-211.52-82.72 11.84 201.76 1.44 24.96-16 19.36-128 156.16 219.68 57.44 13.44 21.12 109.12 170.24zM512 848c-0.024 0-0.052 0-0.080 0-16.883 0-31.73-8.716-40.287-21.894l-0.113-0.186-122.4-192-219.68-56.32c-20.764-5.591-35.795-24.252-35.795-46.422 0-11.565 4.090-22.174 10.902-30.461l-0.066 0.083 144-176-13.28-226.24c-0.073-0.995-0.115-2.155-0.115-3.326 0-26.51 21.49-48 48-48 6.319 0 12.353 1.221 17.878 3.44l-0.323-0.115 211.36 83.2 211.52-82.72c5.203-2.104 11.236-3.326 17.555-3.326 26.51 0 48 21.49 48 48 0 1.17-0.042 2.331-0.124 3.48l0.009-0.154-13.28 226.72 144 176c6.811 8.225 10.943 18.885 10.943 30.509 0 22.21-15.085 40.897-35.568 46.374l-0.335 0.076-219.84 56.32-122.4 192c-8.761 12.729-23.25 20.967-39.664 20.967-0.287 0-0.573-0.003-0.859-0.008l0.043 0.001z" />
<glyph unicode="&#xe947;" glyph-name="search-right" d="M132.64 113.92l45.28-45.28 264.16 264.16c47.315-37.807 108.013-60.669 174.051-60.669 154.64 0 280 125.36 280 280s-125.36 280-280 280c-154.64 0-280-125.36-280-280 0-66.038 22.861-126.736 61.102-174.612l-0.433 0.561zM400 552c-0.003 0.437-0.005 0.954-0.005 1.472 0 119.294 96.706 216 216 216s216-96.706 216-216c0-119.294-96.706-216-216-216-59.28 0-112.982 23.88-152.012 62.545l0.017-0.016c-39.318 38.741-63.752 92.493-64 151.953v0.047z" />
<glyph unicode="&#xe948;" glyph-name="star9" d="M512 769.12l118.080-195.52 26.24-6.080 196.48-45.92-131.84-152.48-16.96-20.32 2.24-26.88 17.12-200.8-211.36 88.64-24.8-10.56-185.76-78.24 17.12 200.8 1.44 27.040-17.6 20.48-131.2 152.32 223.040 51.84 13.92 23.040 103.84 172.64zM512 848c-0.007 0-0.015 0-0.023 0-17.346 0-32.544-9.201-40.977-22.99l-0.12-0.21-117.92-195.2-222.080-51.68c-21.403-5.134-37.064-24.107-37.064-46.738 0-12.082 4.464-23.121 11.832-31.559l-0.048 0.057 149.12-172.48-19.36-227.2c-0.092-1.116-0.145-2.415-0.145-3.727 0-26.51 21.49-48 48-48 6.695 0 13.069 1.37 18.858 3.846l-0.313-0.119 210.24 88.32 210.080-88.64c5.476-2.357 11.85-3.727 18.545-3.727 26.51 0 48 21.49 48 48 0 1.312-0.053 2.611-0.156 3.896l0.011-0.169-19.36 227.2 149.28 172.8c7.234 8.356 11.642 19.333 11.642 31.338 0 22.637-15.67 41.614-36.755 46.675l-0.327 0.066-221.92 52-117.92 195.2c-8.571 13.908-23.719 23.040-41 23.040-0.042 0-0.084 0-0.126 0h0.006z" />
<glyph unicode="&#xe949;" glyph-name="star10" d="M512 768.8l108.16-205.76 30.72-5.6 197.12-35.68-139.68-147.68-20.32-22.080 4.16-30.4 27.52-201.6-207.68 102.080-28.32-14.080-178.72-88.16 27.52 201.6 3.52 30.56-21.12 22.24-138.88 147.52 228.16 41.44 14.56 27.68 93.28 177.92zM512 852.48c-0.056 0-0.121 0-0.187 0-17.944 0-33.517-10.151-41.29-25.024l-0.122-0.257-108.64-206.72-226.72-40.96c-22.262-4.463-38.799-23.855-38.799-47.11 0-12.74 4.963-24.321 13.062-32.914l-0.022 0.024 160-168.8-32-232c-0.302-2.021-0.474-4.354-0.474-6.727 0-26.226 21.033-47.54 47.151-47.993l0.042-0.001c0.334-0.009 0.728-0.014 1.123-0.014 6.835 0 13.326 1.478 19.168 4.132l-0.291-0.118 208 102.24 208-102.24c6.009-3.092 13.106-4.921 20.627-4.96h0.013c26.161 0.453 47.194 21.767 47.194 47.993 0 2.373-0.172 4.706-0.505 6.986l0.031-0.259-32 232 160 168.8c8.076 8.569 13.039 20.15 13.039 32.89 0 23.255-16.537 42.647-38.492 47.058l-0.307 0.051-227.36 41.92-108.64 206.72c-7.895 15.129-23.469 25.28-41.413 25.28-0.066 0-0.132 0-0.197 0h0.010z" />
</font>
</defs>
</svg>
