<svg viewBox="0 0 64 64"><path d="M43.06,41.64a2.07,2.07,0,0,0-2.65.29L34,48.34V28a2,2,0,0,0-4,0V48.34l-6.41-6.41a2.07,2.07,0,0,0-2.65-.29,2,2,0,0,0-.26,3L32,56,43.31,44.69A2,2,0,0,0,43.06,41.64ZM55.78,23.76A12,12,0,0,0,56,21.57C56,14.07,49.06,8,40.5,8a15.94,15.94,0,0,0-13.6,7.06C26.43,15,26,15,25.5,15,16.39,15,9,21.47,9,29.45c0,.22,0,.44,0,.66-5.17,1-9,5-9,9.83,0,5.41,4.88,9.81,11,10v0h8l-4-4H11.66l-.51,0C7.21,45.83,4,43.12,4,39.93c0-2.78,2.43-5.26,5.79-5.9l3.42-.65L13,29.9c0-.11,0-.23,0-.34v-.11C13,23.69,18.61,19,25.5,19c.36,0,.74,0,1.1.05l2.41.18,1.28-2A12,12,0,0,1,40.5,12C46.84,12,52,16.29,52,21.57A8,8,0,0,1,51.85,23l-.56,3L54,27.35c3.69,1.8,6,5.11,6,8.64,0,5.22-4.83,9.52-11,10l-4,4h3c8.84,0,16-6.27,16-14C64,30.73,60.68,26.15,55.78,23.76Z"/></svg>