<svg  viewBox="0 0 64 64"><path d="M40.72,12a10.47,10.47,0,0,1,1.95.18c5.79,1.1,9.78,7,9.28,13.63l-.19,2.52,2.19,1.25A12,12,0,0,1,48,52H13c-5,0-9-3.59-9-8a8.14,8.14,0,0,1,5.88-7.49l3-1-.22-3.1a10.69,10.69,0,0,1,.14-2.78C13.82,24.07,19.24,20,25.65,20c.38,0,.77,0,1.15,0l2.44.18,1.27-2.09A12.28,12.28,0,0,1,40.72,12m0-4A16.19,16.19,0,0,0,27.1,16.07Q26.37,16,25.65,16c-8.2,0-15.37,5.24-16.82,12.89a14.77,14.77,0,0,0-.21,3.8A12.1,12.1,0,0,0,0,44c0,6.63,5.82,12,13,12H48a16,16,0,0,0,7.93-29.88c.65-8.6-4.62-16.36-12.52-17.86A14.43,14.43,0,0,0,40.72,8Z"/></svg>