<svg  viewBox="0 0 64 64"><path d="M32,22A10,10,0,1,0,42,32,10,10,0,0,0,32,22Zm0,16a6,6,0,1,1,6-6A6,6,0,0,1,32,38Zm21-6c0-.41,0-.81-.06-1.21L58,25.06,51,12.94l-7.47,1.53a21,21,0,0,0-2.13-1.22L39,6H25l-2.42,7.25a21,21,0,0,0-2.13,1.22L13,12.94,6,25.06l5.08,5.73c0,.4-.06.8-.06,1.21s0,.81.06,1.21L6,38.94l7,12.12,7.47-1.53a21,21,0,0,0,2.13,1.22L25,58H39l2.42-7.25a21,21,0,0,0,2.13-1.22L51,51.06l7-12.12-5.08-5.73C53,32.81,53,32.41,53,32Zm.11,7.43L49,46.57l-4.65-1-1.62-.33-1.38.91a17,17,0,0,1-1.72,1l-1.47.74-.52,1.57L36.12,54H27.88l-1.5-4.51-.52-1.57-1.47-.74a16.92,16.92,0,0,1-1.72-1l-1.38-.91-1.62.33-4.65,1-4.12-7.13,3.16-3.57,1.09-1.23L15.05,33l0-.38c0-.2,0-.4,0-.6s0-.4,0-.6l0-.38.09-1.65-1.09-1.23-3.16-3.57L15,17.43l4.65,1,1.62.33,1.38-.91a17,17,0,0,1,1.72-1l1.47-.74,2-6.08h8.23l1.5,4.51.52,1.57,1.47.74a17,17,0,0,1,1.72,1l1.38.91,1.62-.33,4.65-1,4.12,7.13-3.16,3.57-1.09,1.23L48.95,31l0,.38c0,.2,0,.4,0,.6s0,.4,0,.6l0,.38-.09,1.65,1.09,1.23Z"/></svg>