<svg   viewBox="0 0 64 64"><path d="M33.39,30.08c-4.09-1-4.82-1.64-4.82-3.12s1.27-2.24,3.17-2.24a8.44,8.44,0,0,1,4.7,1.55,2,2,0,0,0,1.09.3,2,2,0,0,0,2-2,1.92,1.92,0,0,0-.92-1.68A11.54,11.54,0,0,0,34,21.13S34,21,34,21V18a2,2,0,0,0-4,0v3s0,.08,0,.11c-3.39.62-5.63,3-5.63,6.24,0,4,2.63,5.41,7.18,6.51,3.87.89,4.55,1.67,4.55,3s-1.36,2.39-3.47,2.39a8.85,8.85,0,0,1-5.73-2.11,2,2,0,1,0-2.4,3.19A13.51,13.51,0,0,0,30,42.8a2,2,0,0,0,0,.2v3a2,2,0,0,0,4,0V43s0,0,0,0c3.88-.48,6.31-2.9,6.31-6.49C40.3,33.12,38.3,31.27,33.39,30.08Z"/><path d="M32,6A26,26,0,1,0,58,32,26,26,0,0,0,32,6Zm0,48A22,22,0,1,1,54,32,22,22,0,0,1,32,54Z"/></svg>