<svg viewBox="0 0 64 64"><path d="M56.83,19,47,9.17A4,4,0,0,0,44.17,8H9a3,3,0,0,0-3,3V53a3,3,0,0,0,3,3H55a3,3,0,0,0,3-3V21.83A4,4,0,0,0,56.83,19ZM46,13.83,52.17,20H46ZM54,52H10V12H42v8a4,4,0,0,0,4,4h8ZM32.56,35.7a.46.46,0,0,1,0-.58q3.3-5.35,6.58-10.72c.06-.1.12-.21.19-.34l-.17,0c-1.55,0-3.11,0-4.66,0a.47.47,0,0,0-.33.22q-2.27,4.21-4.53,8.44l-.1.15c-.14-.3-.25-.56-.37-.82-1.29-2.56-2.59-5.12-3.87-7.69a.53.53,0,0,0-.56-.33H20l-.43,0,.22.39Q23,29.77,26.2,35.11a.58.58,0,0,1,0,.73q-3.49,5.38-7,10.77L19,47h.43c1.54,0,3.08,0,4.62,0a.52.52,0,0,0,.53-.31q2.06-3.78,4.13-7.56c.21-.39.41-.78.63-1.19.12.26.22.49.34.72q2.15,4,4.3,8.05a.46.46,0,0,0,.48.29h4.66l.38,0-.23-.39Q35.93,41.14,32.56,35.7Z"/></svg>