<svg viewBox="0 0 64 64"><path d="M36.69,39.67H31.61v-8.9a1.7,1.7,0,1,0-3.4,0V41.11a1.68,1.68,0,0,0,1.7,1.7h6.78a1.57,1.57,0,0,0,0-3.14ZM21.81,35.85,25,31.93a2,2,0,0,0,.49-1.27,1.58,1.58,0,0,0-1.57-1.59,1.92,1.92,0,0,0-1.61.89l-2.64,3.47L17,29.89a1.76,1.76,0,0,0-1.54-.81,1.65,1.65,0,0,0-1.68,1.68A2,2,0,0,0,14.29,32l3.2,3.9-3.41,4.18h0a2,2,0,0,0-.49,1.27,1.58,1.58,0,0,0,1.57,1.59A1.93,1.93,0,0,0,16.77,42l2.83-3.68,2.86,3.75a1.76,1.76,0,0,0,1.54.82,1.65,1.65,0,0,0,1.68-1.68A2,2,0,0,0,25.19,40ZM56.83,19,47,9.17A4,4,0,0,0,44.17,8H9a3,3,0,0,0-3,3V53a3,3,0,0,0,3,3H55a3,3,0,0,0,3-3V21.83A4,4,0,0,0,56.83,19ZM46,13.83,52.17,20H46ZM54,52H10V12H42v8a4,4,0,0,0,4,4h8ZM40,33.25c0,2.87,2,3.6,4.54,4.26,2.28.59,2.44.93,2.44,1.45s-.61,1-1.63,1a5.29,5.29,0,0,1-3.2-1.13,1.64,1.64,0,0,0-1-.31,1.58,1.58,0,0,0-1.61,1.59,1.61,1.61,0,0,0,.65,1.3A8.77,8.77,0,0,0,45.34,43c3.08,0,5.07-1.7,5.07-4.36s-1.74-3.5-4.35-4.18c-2.32-.6-2.63-.84-2.63-1.51s.56-.88,1.42-.88a5.21,5.21,0,0,1,2.62.84,1.66,1.66,0,0,0,.86.24,1.58,1.58,0,0,0,1.61-1.59,1.56,1.56,0,0,0-.76-1.36,7.88,7.88,0,0,0-4.3-1.2C42,29,40,30.73,40,33.25Z"/></svg>