<svg  viewBox="0 0 64 64"><path d="M54,8H10a4,4,0,0,0-4,4V52a4,4,0,0,0,4,4H54a4,4,0,0,0,4-4V12A4,4,0,0,0,54,8ZM45.5,25.8c-1.33,5.62-2.67,11.23-4,16.85-.13.58-.33.87-1,.84-1.23-.06-2.47,0-3.7,0-.57,0-.77-.2-.9-.74-1.35-5.66-2.72-11.32-4-16.69-1.21,5.38-2.5,11.05-3.76,16.72a.77.77,0,0,1-.94.71c-1.23,0-2.47-.06-3.7,0-.69,0-.92-.24-1.07-.86Q20.76,35.38,19,28.13c-.55-2.31-1.1-4.63-1.65-6.94,0-.18-.05-.36-.1-.66,1.46,0,2.88,0,4.28,0,.16,0,.39.46.45.73.45,2,.87,4.08,1.28,6.12q1,5,2,10.05c.06.31.09.62.13,1,.49-2.17,1-4.3,1.46-6.43.82-3.57,1.65-7.13,2.45-10.7.13-.59.38-.84,1-.81a31.6,31.6,0,0,0,3.3,0,.86.86,0,0,1,1,.8c1,4,1.95,8.05,2.91,12.08.4,1.66.78,3.33,1.13,4.86,1.08-5.63,2.18-11.39,3.31-17.15a.8.8,0,0,1,.53-.53c1.31,0,2.62,0,4.09,0C46.29,22.38,45.9,24.09,45.5,25.8Z"/></svg>