<svg viewBox="0 0 64 64"><path d="M34.19,35.85l3.24-4a2,2,0,0,0,.49-1.28A1.6,1.6,0,0,0,36.33,29a1.94,1.94,0,0,0-1.63.9L32,33.41l-2.69-3.58A1.78,1.78,0,0,0,27.8,29a1.66,1.66,0,0,0-1.7,1.7,2.06,2.06,0,0,0,.49,1.25l3.23,3.94-3.44,4.22h0a2,2,0,0,0-.49,1.28A1.6,1.6,0,0,0,27.48,43a2,2,0,0,0,1.63-.9L32,38.38l2.89,3.8a1.78,1.78,0,0,0,1.55.82,1.66,1.66,0,0,0,1.7-1.7,2.05,2.05,0,0,0-.49-1.25ZM22.79,29.11H14.27a1.61,1.61,0,0,0,0,3.21h2.54v9a1.72,1.72,0,1,0,3.44,0v-9h2.54a1.61,1.61,0,0,0,0-3.21Zm16.82,1.61a1.61,1.61,0,0,0,1.61,1.61h2.54v9a1.72,1.72,0,1,0,3.44,0v-9h2.54a1.61,1.61,0,0,0,0-3.21H41.21A1.61,1.61,0,0,0,39.61,30.72ZM56.83,19,47,9.17A4,4,0,0,0,44.17,8H9a3,3,0,0,0-3,3V53a3,3,0,0,0,3,3H55a3,3,0,0,0,3-3V21.83A4,4,0,0,0,56.83,19ZM46,13.83,52.17,20H46ZM54,52H10V12H42v8a4,4,0,0,0,4,4h8Z"/></svg>