<svg viewBox="0 0 64 64"><path d="M18.63,44.26a.82.82,0,0,0,.2.86.87.87,0,0,0,1,.22,6.32,6.32,0,0,0,2-2.09,19.8,19.8,0,0,0,1.3-2.33,19.25,19.25,0,0,0-2.34,1.29A6.19,6.19,0,0,0,18.63,44.26Zm12.21-11.1c-.49-.49-.92-1-1.33-1.49l-.06-.07v0c-.12.65-.25,1.32-.43,2s-.41,1.31-.62,1.92l0,.05h0c.63-.22,1.27-.45,2-.63s1.34-.31,2-.43h0l0,0C31.85,34.09,31.34,33.65,30.84,33.16Zm-4-14.3a.77.77,0,0,0-.63-.29l-.21,0a.87.87,0,0,0-.68.72,6.25,6.25,0,0,0,.81,2.75,19.71,19.71,0,0,0,1.38,2.3,19.72,19.72,0,0,0,0-2.68A6,6,0,0,0,26.85,18.86ZM42.32,36.44a19.2,19.2,0,0,0-2.69,0,20.07,20.07,0,0,0,2.31,1.37,6,6,0,0,0,2.81.81.81.81,0,0,0,.64-.59.87.87,0,0,0-.28-1A6.17,6.17,0,0,0,42.32,36.44ZM54,8H10a4,4,0,0,0-4,4V52a4,4,0,0,0,4,4H54a4,4,0,0,0,4-4V12A4,4,0,0,0,54,8ZM48.36,38.83A3.89,3.89,0,0,1,45,41.74a8.28,8.28,0,0,1-4.46-1.1A30.06,30.06,0,0,1,35.3,37.1h0c-1.34.24-2.73.48-4.11.85s-2.73.86-4,1.33h0A29.84,29.84,0,0,1,24.34,45,8.37,8.37,0,0,1,21,48.17a3.64,3.64,0,0,1-1.51.32,4,4,0,0,1-2.81-1.18A3.9,3.9,0,0,1,15.83,43,8.29,8.29,0,0,1,19,39.68a30,30,0,0,1,5.68-2.81l0-.09c.46-1.26.94-2.57,1.3-3.93s.62-2.79.86-4.15h0a30,30,0,0,1-3.52-5.26A8.28,8.28,0,0,1,22.27,19a4,4,0,0,1,7.07-1.89,8.26,8.26,0,0,1,1.28,4.42,29.79,29.79,0,0,1-.4,6.33l.14.17c.84,1,1.7,2,2.66,3s2.07,1.9,3.11,2.77l.05,0a30,30,0,0,1,6.34-.42,8.26,8.26,0,0,1,4.41,1.27A3.9,3.9,0,0,1,48.36,38.83Z"/></svg>