<svg viewBox="0 0 64 64"><path d="M33.08,34.46c-2.31-.59-2.62-.83-2.62-1.5s.56-.88,1.42-.88a5.13,5.13,0,0,1,2.61.84,1.63,1.63,0,0,0,.86.24,1.59,1.59,0,0,0,.85-2.94A7.83,7.83,0,0,0,31.92,29c-2.84,0-4.82,1.72-4.82,4.23,0,2.85,2,3.61,4.51,4.24,2.27.58,2.43.92,2.43,1.44s-.61,1-1.62,1a5.25,5.25,0,0,1-3.19-1.13,1.65,1.65,0,0,0-1-.31,1.57,1.57,0,0,0-1.6,1.58,1.6,1.6,0,0,0,.65,1.29,8.72,8.72,0,0,0,5,1.61c3.06,0,5-1.69,5-4.34S35.68,35.14,33.08,34.46Zm-9.82,4a1.6,1.6,0,0,0-1,.37,3.91,3.91,0,0,1-2.67,1A3.62,3.62,0,0,1,16.05,36a3.59,3.59,0,0,1,3.52-3.8,4.07,4.07,0,0,1,2.52.89,1.74,1.74,0,0,0,1,.32,1.67,1.67,0,0,0,1.67-1.65,1.7,1.7,0,0,0-.66-1.34A7.19,7.19,0,0,0,19.59,29a6.87,6.87,0,0,0-7.06,7v0a6.8,6.8,0,0,0,6.94,7,6.81,6.81,0,0,0,4.81-1.7,1.58,1.58,0,0,0-1-2.8ZM42.1,30.28a1.74,1.74,0,0,0-1.69-1.17,1.67,1.67,0,0,0-1.69,1.67,2,2,0,0,0,.19.79l4.23,10.11h0A2,2,0,0,0,45,43h.19A2,2,0,0,0,47,41.69l4.26-10.2a1.94,1.94,0,0,0,.17-.74,1.64,1.64,0,0,0-1.67-1.64,1.75,1.75,0,0,0-1.62,1.08l-3.05,7.91ZM56.83,19,47,9.17A4,4,0,0,0,44.17,8H9a3,3,0,0,0-3,3V53a3,3,0,0,0,3,3H55a3,3,0,0,0,3-3V21.83A4,4,0,0,0,56.83,19ZM46,13.83,52.17,20H46ZM54,52H10V12H42v8a4,4,0,0,0,4,4h8Z"/></svg>