<svg  viewBox="0 0 64 64"><path d="M39.24,25a.77.77,0,0,0-.51.51c-1.08,5.51-2.13,11-3.16,16.41-.34-1.46-.7-3.06-1.08-4.65-.93-3.85-1.87-7.7-2.79-11.55a.83.83,0,0,0-1-.76,30.27,30.27,0,0,1-3.15,0c-.62,0-.85.21-1,.77C25.8,29.19,25,32.6,24.23,36c-.47,2-.93,4.07-1.4,6.15,0-.33-.07-.63-.13-.93q-1-4.81-1.95-9.61c-.4-2-.8-3.9-1.23-5.85-.06-.26-.27-.7-.43-.7-1.35-.06-2.7,0-4.1,0,0,.29.05.46.09.63.52,2.21,1.06,4.42,1.58,6.64q1.64,6.94,3.26,13.88c.14.59.36.85,1,.82,1.18-.06,2.36,0,3.54,0a.74.74,0,0,0,.9-.68c1.21-5.43,2.44-10.85,3.6-16,1.24,5.13,2.56,10.54,3.85,16,.12.52.31.73.86.71,1.18,0,2.36-.05,3.54,0,.63,0,.82-.25.95-.8,1.26-5.38,2.54-10.74,3.81-16.12.39-1.64.76-3.28,1.17-5.05C41.74,25,40.49,25,39.24,25Zm17.59-6L47,9.17A4,4,0,0,0,44.17,8H9a3,3,0,0,0-3,3V53a3,3,0,0,0,3,3H55a3,3,0,0,0,3-3V21.83A4,4,0,0,0,56.83,19ZM46,13.83,52.17,20H46ZM54,52H10V12H42v8a4,4,0,0,0,4,4h8Z"/></svg>