<svg viewBox="0 0 64 64"><path d="M43.62,32.25A8.57,8.57,0,0,0,48.16,31a2.13,2.13,0,0,0,1.09-2V25.91a1.62,1.62,0,0,0-1.64-1.64H44.44a1.45,1.45,0,1,0,0,2.89h1.62v1.42a4.26,4.26,0,0,1-2.36.64,3.55,3.55,0,0,1-3.57-3.78,3.54,3.54,0,0,1,3.37-3.67,4.17,4.17,0,0,1,2.61.82,1.62,1.62,0,0,0,2.61-1.28A1.64,1.64,0,0,0,48,20a7.22,7.22,0,0,0-4.45-1.27,6.74,6.74,0,0,0-6.86,6.77v0A6.58,6.58,0,0,0,43.62,32.25Zm-17.3-.11A1.62,1.62,0,0,0,28,30.51V28.25h1.86c3.25,0,5.35-1.84,5.35-4.71s-2-4.61-5.08-4.61H26.32a1.62,1.62,0,0,0-1.64,1.64v9.94A1.62,1.62,0,0,0,26.32,32.14ZM28,21.93h1.89c.75,0,2,.22,2,1.69,0,1-.76,1.66-1.95,1.66H28ZM55,8H9a3,3,0,0,0-3,3V53a3,3,0,0,0,3,3H55a3,3,0,0,0,3-3V11A3,3,0,0,0,55,8ZM54,52H10V12H54ZM13.56,31.06A5.56,5.56,0,0,0,17,32.21,4.75,4.75,0,0,0,20.5,31a4.81,4.81,0,0,0,1.26-3.54v-7a1.64,1.64,0,1,0-3.27,0V27.3c0,1.24-.48,1.84-1.48,1.84a2.39,2.39,0,0,1-1.53-.58,1.5,1.5,0,0,0-1-.33,1.56,1.56,0,0,0-1.56,1.58A1.63,1.63,0,0,0,13.56,31.06ZM15.75,47H39.29c.55,0,.89-.46.6-.83l-5.09-6.59a.82.82,0,0,0-1.21,0l-3.25,4.21-6.11-7.53a.82.82,0,0,0-1.19,0l-7.89,9.91C14.86,46.53,15.2,47,15.75,47Z"/></svg>