<svg  viewBox="0 0 64 64"><path d="M26.46,32.85A1.52,1.52,0,0,0,28,31.33V24.84l5.41,7.09a1.87,1.87,0,0,0,1.56.87H35a1.52,1.52,0,0,0,1.54-1.54V21.08a1.52,1.52,0,1,0-3,0v6.23l-5.21-6.84a1.88,1.88,0,0,0-1.56-.87h-.29a1.52,1.52,0,0,0-1.54,1.54V31.33A1.52,1.52,0,0,0,26.46,32.85Zm-11.3,14c-.29.36,0,.83.6.83H39.29c.55,0,.89-.46.6-.83L34.81,40.3a.82.82,0,0,0-1.21,0l-3.25,4.21L24.24,37A.82.82,0,0,0,23,37ZM45.63,33a8.57,8.57,0,0,0,4.55-1.3,2,2,0,0,0,1.05-1.9V26.64a1.52,1.52,0,0,0-1.54-1.53H46.47a1.34,1.34,0,1,0,0,2.69h1.78v1.64a4.42,4.42,0,0,1-2.53.71A3.72,3.72,0,0,1,42,26.21v0a3.72,3.72,0,0,1,3.55-3.86,4.36,4.36,0,0,1,2.72.85,1.49,1.49,0,0,0,.93.32A1.52,1.52,0,0,0,50.69,22a1.54,1.54,0,0,0-.64-1.24,7.22,7.22,0,0,0-4.44-1.27,6.72,6.72,0,0,0-6.84,6.75v0A6.57,6.57,0,0,0,45.63,33ZM55,8.72H9a3,3,0,0,0-3,3v42a3,3,0,0,0,3,3H55a3,3,0,0,0,3-3v-42A3,3,0,0,0,55,8.72Zm-1,44H10v-40H54ZM14.31,32.85a1.52,1.52,0,0,0,1.54-1.54V28.89h2c3.22,0,5.3-1.82,5.3-4.63v0c0-2.77-2-4.55-5-4.55H14.31a1.52,1.52,0,0,0-1.53,1.54v10.1A1.52,1.52,0,0,0,14.31,32.85Zm1.54-10.37H17.9c1.37,0,2.16.66,2.16,1.81v0A1.87,1.87,0,0,1,18,26.13H15.85Z"/></svg>