<svg viewBox="0 0 64 64"><path d="M25.7,29.94a2,2,0,0,0-2.76-.64l-8,5a2,2,0,0,0,0,3.39l8,5a2,2,0,1,0,2.12-3.39L19.77,36l5.29-3.3A2,2,0,0,0,25.7,29.94ZM56.83,19,47,9.17A4,4,0,0,0,44.17,8H9a3,3,0,0,0-3,3V53a3,3,0,0,0,3,3H55a3,3,0,0,0,3-3V21.83A4,4,0,0,0,56.83,19ZM46,13.83,52.17,20H46ZM54,52H10V12H42v8a4,4,0,0,0,4,4h8ZM35,25.07a2,2,0,0,0-2.46,1.39l-5,18a2,2,0,1,0,3.85,1.07l5-18A2,2,0,0,0,35,25.07Zm3.27,4.87a2,2,0,0,0,.64,2.76L44.23,36l-5.29,3.3a2,2,0,1,0,2.12,3.39l8-5a2,2,0,0,0,0-3.39l-8-5A2,2,0,0,0,38.3,29.94Z"/></svg>