<svg viewBox="0 0 64 64"><path d="M55,8H9a3,3,0,0,0-3,3V53a3,3,0,0,0,3,3H55a3,3,0,0,0,3-3V11A3,3,0,0,0,55,8ZM54,52H10V12H54ZM19.56,48.42a3.63,3.63,0,0,0,1.5-.32,8.32,8.32,0,0,0,3.31-3.17,29.62,29.62,0,0,0,2.78-5.68h0c1.28-.47,2.6-1,4-1.32s2.74-.61,4.06-.84h.06a30,30,0,0,0,5.26,3.52A8.18,8.18,0,0,0,45,41.69a4,4,0,0,0,1.89-7.06,8.23,8.23,0,0,0-4.39-1.26,29.82,29.82,0,0,0-6.31.41l-.06,0C35.08,32.88,34,32,33,31s-1.82-2-2.66-3l-.14-.16a29.68,29.68,0,0,0,.4-6.3,8.23,8.23,0,0,0-1.27-4.4,3.94,3.94,0,0,0-7,1.89,8.24,8.24,0,0,0,1.1,4.45,29.92,29.92,0,0,0,3.51,5.24h0c-.24,1.35-.48,2.75-.85,4.13s-.84,2.66-1.3,3.92l0,.07a29.7,29.7,0,0,0-5.66,2.79,8.25,8.25,0,0,0-3.19,3.29,3.88,3.88,0,0,0,.86,4.31A4,4,0,0,0,19.56,48.42Zm22.71-12a6.22,6.22,0,0,1,2.77.68.87.87,0,0,1,.28.94.8.8,0,0,1-.63.58,6,6,0,0,1-2.8-.8,20.13,20.13,0,0,1-2.29-1.36A19.33,19.33,0,0,1,42.27,36.43Zm-13.86-.87c.22-.61.44-1.25.62-1.92s.31-1.35.43-2v0l.06.07c.41.49.84,1,1.32,1.48s1,.93,1.5,1.35l0,0h0c-.64.12-1.31.24-2,.42s-1.32.41-1.95.63h0ZM26.17,22.11a6.19,6.19,0,0,1-.81-2.74.86.86,0,0,1,.68-.71l.21,0a.76.76,0,0,1,.62.29,6,6,0,0,1,.71,2.81,19.42,19.42,0,0,1,0,2.66A19.43,19.43,0,0,1,26.17,22.11ZM18.7,44.21a6.17,6.17,0,0,1,2.1-2,19,19,0,0,1,2.32-1.28,19.51,19.51,0,0,1-1.29,2.31,6.28,6.28,0,0,1-2,2.08.86.86,0,0,1-1-.22A.82.82,0,0,1,18.7,44.21Z"/></svg>