<svg viewBox="0 0 64 64"><path d="M54,8H10a4,4,0,0,0-4,4V52a4,4,0,0,0,4,4H54a4,4,0,0,0,4-4V12A4,4,0,0,0,54,8ZM41.87,43.49H37.22a.46.46,0,0,1-.48-.29q-2.14-4-4.3-8.05c-.12-.22-.22-.45-.34-.72-.22.41-.42.8-.63,1.19q-2.07,3.78-4.13,7.56a.52.52,0,0,1-.53.31c-1.54,0-3.08,0-4.62,0h-.43l.22-.38q3.48-5.39,7-10.77a.58.58,0,0,0,0-.73q-3.2-5.34-6.37-10.69l-.22-.39.43,0h4.69a.53.53,0,0,1,.56.33c1.28,2.57,2.58,5.13,3.87,7.69.13.25.24.52.37.82l.1-.15q2.26-4.22,4.53-8.44a.47.47,0,0,1,.33-.22c1.55,0,3.1,0,4.66,0l.17,0c-.07.13-.13.24-.19.34Q38.6,26.27,35.3,31.63a.46.46,0,0,0,0,.58Q38.68,37.64,42,43.08l.23.39Z"/></svg>