<svg viewBox="0 0 64 64"><path d="M18.25,25a10,10,0,1,0-10-10A10,10,0,0,0,18.25,25Zm0-16a6,6,0,1,1-6,6A6,6,0,0,1,18.25,9ZM44.94,37.31c-2.65-.68-3.19-1-3.19-1.86v0c0-.71.71-1.18,1.81-1.18a6.24,6.24,0,0,1,3.14,1,1.78,1.78,0,0,0,.94.26,1.72,1.72,0,0,0,.92-3.19,8.79,8.79,0,0,0-3.2-1.21V29.45a1.61,1.61,0,0,0-3.23,0v1.63a4.69,4.69,0,0,0-4.06,4.63v0c0,3.26,2.26,4.1,5.21,4.85,2.56.66,3,1.07,3,1.8v0c0,.81-.77,1.29-2.06,1.29a6.32,6.32,0,0,1-3.83-1.35A1.79,1.79,0,0,0,39.31,42a1.71,1.71,0,0,0-1.74,1.72,1.73,1.73,0,0,0,.7,1.4,10,10,0,0,0,3.87,1.65v1.74a1.61,1.61,0,0,0,3.23,0v-1.6c2.85-.39,4.57-2.17,4.57-4.84v0C49.93,39.19,47.94,38.09,44.94,37.31ZM43.75,20a19,19,0,1,0,19,19A19,19,0,0,0,43.75,20Zm0,34a15,15,0,1,1,15-15A15,15,0,0,1,43.75,54ZM7.25,54a2,2,0,0,1-2-2V44a11,11,0,0,1,11-11h3a11,11,0,0,1,3.2.48,21.82,21.82,0,0,1,1.35-3.77A15,15,0,0,0,19.25,29h-3a15,15,0,0,0-15,15v8a6,6,0,0,0,6,6h21a6,6,0,0,0,3.07-.85A22.1,22.1,0,0,1,27.66,54Z"/></svg>