<svg  viewBox="0 0 64 64"><path d="M51.81,9.76a15.29,15.29,0,0,0-21,.83l-23,23a2,2,0,0,0,0,2.83h0a2,2,0,0,0,2.83,0L33.75,13.34a11.21,11.21,0,0,1,15-.94,11,11,0,0,1,.79,16.27L36.9,41.3h0l-2.83,2.83L32,46.25,26.4,51.79a7.16,7.16,0,0,1-9.38.78,7,7,0,0,1-.69-10.51l4.95-4.95.78-.78,2.12-2.12,4.17-4.17h0L36,22.36a3.08,3.08,0,0,1,3.86-.47,3,3,0,0,1,.46,4.62L24.81,42.07a2,2,0,0,0,0,2.83h0a2,2,0,0,0,2.83,0L43,29.52a7.16,7.16,0,0,0,.78-9.38,7,7,0,0,0-10.51-.69L18.45,34.29h0L13.73,39a11.21,11.21,0,0,0-.94,15,11,11,0,0,0,16.27.78l9-9,1.65-1.65L52.36,31.49A15,15,0,0,0,51.81,9.76Z"/></svg>