<svg id="Layer_1" data-name="Layer 1" xmlns="http://www.w3.org/2000/svg" viewBox="0 0 64 64"><title>paperclip1</title><path d="M52.86,9.86a15.29,15.29,0,0,0-21,.83l-23,23a2,2,0,0,0,0,2.83h0a2,2,0,0,0,2.83,0L34.8,13.44a11.21,11.21,0,0,1,15-.94,11,11,0,0,1,.79,16.27L37.95,41.4l-2.83,2.83L33,46.35,27.45,51.9a7.16,7.16,0,0,1-9.38.78,7,7,0,0,1-.69-10.51l4.95-4.95,2.9-2.9,4.17-4.17,7.69-7.69A3.08,3.08,0,0,1,40.95,22a3,3,0,0,1,.46,4.62l-17,17a2,2,0,0,0,0,2.83h0a2,2,0,0,0,2.83,0l16.8-16.8a7.16,7.16,0,0,0,.78-9.38,7,7,0,0,0-10.51-.69L14.78,39.11a11.21,11.21,0,0,0-.94,15,11,11,0,0,0,16.27.78l9-9L53.41,31.59A15,15,0,0,0,52.86,9.86Z"/></svg>