<svg id="Layer_1" data-name="Layer 1" xmlns="http://www.w3.org/2000/svg" viewBox="0 0 64 64"><title>paperclip3</title><path d="M51.86,9.86a15.29,15.29,0,0,0-21,.83l-23,23a2,2,0,0,0,0,2.83h0a2,2,0,0,0,2.83,0L33.8,13.44a11.21,11.21,0,0,1,15-.94,11,11,0,0,1,.79,16.27L36.95,41.4h0l-2.83,2.83L32,46.35,26.45,51.9a7.16,7.16,0,0,1-9.38.78,7,7,0,0,1-.69-10.51l4.95-4.95.78-.78,2.12-2.12,4.17-4.17h0l7.69-7.69A3.08,3.08,0,0,1,39.95,22a3,3,0,0,1,.46,4.62L24.86,42.17a2,2,0,0,0,0,2.83h0a2,2,0,0,0,2.83,0L43.07,29.62a7.16,7.16,0,0,0,.78-9.38,7,7,0,0,0-10.51-.69L18.5,34.39h0l-4.72,4.72a11.21,11.21,0,0,0-.94,15,11,11,0,0,0,16.27.78l9-9,1.65-1.65L52.41,31.59A15,15,0,0,0,51.86,9.86Z"/></svg>