<svg id="Layer_1" data-name="Layer 1" xmlns="http://www.w3.org/2000/svg" viewBox="0 0 64 64"><title>paperclip2</title><path d="M51.86,9.86a15.29,15.29,0,0,0-21,.83l-23,23a2,2,0,0,0,2.83,2.83L33.8,13.44a11.21,11.21,0,0,1,15-.94,11,11,0,0,1,.79,16.27L26.45,51.9a7.16,7.16,0,0,1-9.38.78,7,7,0,0,1-.69-10.51L36.09,22.46A3.08,3.08,0,0,1,39.95,22a3,3,0,0,1,.46,4.62L26.27,40.76a2,2,0,0,0,2.83,2.83l14-14a7.16,7.16,0,0,0,.78-9.38,7,7,0,0,0-10.51-.69L13.78,39.11a11.21,11.21,0,0,0-.94,15,11,11,0,0,0,16.27.79l23.3-23.3A15,15,0,0,0,51.86,9.86Z"/></svg>