<svg viewBox="0 0 64 64"><path d="M44,27A10,10,0,1,0,34,17,10,10,0,0,0,44,27Zm0-16a6,6,0,1,1-6,6A6,6,0,0,1,44,11ZM20.5,31a10,10,0,1,0-10-10A10,10,0,0,0,20.5,31Zm0-16a6,6,0,1,1-6,6A6,6,0,0,1,20.5,15ZM45,31H42a14.93,14.93,0,0,0-9.35,3.28,19.13,19.13,0,0,1,3.11,2.67A10.93,10.93,0,0,1,42,35h3A11,11,0,0,1,56,46v4a2,2,0,0,1-2,2H36.65A6,6,0,0,0,37,50,15,15,0,0,0,22,35H19A15,15,0,0,0,4,50a6,6,0,0,0,6,6H54a6,6,0,0,0,6-6V46A15,15,0,0,0,45,31ZM31,52H10a2,2,0,0,1-2-2A11,11,0,0,1,19,39h3A11,11,0,0,1,33,50,2,2,0,0,1,31,52Z"/></svg>