<svg id="Layer_1" data-name="Layer 1" xmlns="http://www.w3.org/2000/svg" viewBox="0 0 64 64"><defs><style>.cls-1{fill-rule:evenodd;}</style></defs><title>pie3</title><path class="cls-1" d="M56.83,24.27a25.93,25.93,0,0,0-4-7.82A26,26,0,0,0,33.34,6Q32.67,6,32,6A26,26,0,1,0,50.38,50.38,25.05,25.05,0,0,0,58,32,26,26,0,0,0,56.83,24.27Zm-5.32-2.42.17.33c.11.21.21.43.31.64l.19.41A22.08,22.08,0,0,1,53.41,27L43,37.38l-3.54-3.54ZM36,10.37l.24,0c.42.08.84.17,1.26.28l.59.17.78.24.64.22q.56.2,1.1.44l.63.29.68.33.44.23L36,19Zm0,14.26,9.77-9.77,0,0,.57.48a22.2,22.2,0,0,1,1.78,1.72l.16.18.33.39c.2.24.41.48.6.73l0,0L36.68,31,36,30.34ZM32,54a22,22,0,1,1,0-44V32L47.55,47.55A21.93,21.93,0,0,1,32,54ZM53.95,33.46a21.86,21.86,0,0,1-3.83,11l-4.25-4.25L54,32.09C54,32.55,54,33,53.95,33.46Z"/></svg>