<svg id="Layer_1" data-name="Layer 1" xmlns="http://www.w3.org/2000/svg" viewBox="0 0 64 64"><title>pie4</title><path d="M58,31.83q0-.71,0-1.4s0-.09,0-.14c0-.42-.06-.84-.11-1.26l0-.15c-.05-.42-.11-.83-.18-1.24l0-.11q-.11-.65-.26-1.28v0A25.82,25.82,0,0,0,55.57,21,26.13,26.13,0,0,0,39.5,7.1h0c-.55-.17-1.1-.31-1.66-.44l-.24-.06c-.57-.13-1.15-.23-1.73-.32h-.11c-.52-.08-1.05-.13-1.58-.18l-.43,0C33.16,6,32.58,6,32,6s-1.34,0-2,.08h0A26.06,26.06,0,0,0,7.87,22.32v0q-.21.53-.4,1.08l0,.13q-.17.5-.33,1L7,24.79c-.09.31-.18.63-.26.95l-.08.33c-.07.29-.13.58-.19.87s-.05.29-.08.43-.1.53-.14.79,0,.37-.07.56-.06.46-.08.69,0,.49-.06.74,0,.36,0,.54q0,.65,0,1.3A26,26,0,0,0,32,58q.66,0,1.3,0l.53,0,.75-.06.69-.08.57-.07.79-.13.44-.08.88-.19.32-.07,1-.26.22-.06,1-.33.13,0,1.08-.4h0A26.06,26.06,0,0,0,57.91,34h0c.05-.66.08-1.33.08-2C58,31.94,58,31.89,58,31.83Zm-8.79-13.5L37.53,30H34V26.47L45.67,14.8A22.15,22.15,0,0,1,49.21,18.33ZM34.11,10.1l.63.07.45.06.82.14.22,0a22,22,0,0,1,6,2.15L34,20.81V10.09ZM32,54a22,22,0,0,1-2-43.91V34H53.9A22,22,0,0,1,32,54ZM43.19,30l8.25-8.25a22,22,0,0,1,2.15,6l0,.24c0,.26.09.52.13.78s0,.32.06.48.05.4.07.6c0,0,0,.08,0,.12Z"/></svg>