<svg  viewBox="0 0 64 64"><path d="M57.9,29.76c0-.08,0-.17,0-.25-.07-.7-.17-1.39-.29-2.08l-.06-.34q-.19-1-.46-2L57,24.79c-.19-.65-.4-1.29-.63-1.92l-.1-.26c-.25-.65-.52-1.29-.83-1.92l0-.09q-.46-.94-1-1.83l-.09-.16c-.35-.58-.73-1.15-1.12-1.7L53,16.67q-.58-.8-1.23-1.55l-.22-.25q-.65-.74-1.36-1.44l-.21-.2c-.49-.47-1-.92-1.52-1.35l-.12-.09q-.81-.65-1.67-1.25l-.08-.06c-.57-.39-1.16-.75-1.77-1.09l-.23-.13c-.59-.32-1.19-.62-1.8-.9l-.3-.13q-.92-.41-1.87-.74l-.29-.1c-.65-.22-1.31-.42-2-.59l-.2,0a25.94,25.94,0,0,0-4-.64l-.28,0C33.27,6,32.64,6,32,6h-.24c-.57,0-1.14,0-1.71.07h0a25.85,25.85,0,0,0-7.61,1.74l-.14.06q-.92.37-1.8.81l-.13.07c-.59.3-1.17.61-1.74,1h0c-.39.23-.76.47-1.14.72h0a26,26,0,0,0-11.22,18v0c-.05.38-.1.76-.13,1.14,0,.09,0,.19,0,.28,0,.3-.05.61-.07.91S6,31.58,6,32s0,1.06.05,1.58c0,.15,0,.3,0,.45q0,.59.12,1.17c0,.14,0,.28.05.43.07.48.15,1,.24,1.44v.07c.11.54.23,1.06.37,1.59l0,.12q.19.72.43,1.41l.06.18a25.86,25.86,0,0,0,2,4.41h0A26,26,0,0,0,32,58c.74,0,1.48,0,2.21-.1h.15a25.86,25.86,0,0,0,6.29-1.37h0a25.93,25.93,0,0,0,7.08-3.83l.3-.24.83-.68.33-.28q.41-.36.8-.74l.26-.25a26.16,26.16,0,0,0,1.94-2.14l.25-.32q.32-.41.63-.83l.27-.38q.3-.43.59-.88l.21-.33c.25-.41.5-.83.73-1.26h0c.23-.42.44-.84.64-1.27l.18-.4q.21-.47.41-.94l.18-.46c.12-.32.24-.65.35-1l.14-.41c.15-.47.29-.94.41-1.41v0c.12-.47.22-.94.32-1.41,0-.15.05-.3.08-.46.06-.34.12-.68.16-1q0-.26.07-.52c0-.35.07-.7.1-1.05,0-.16,0-.31,0-.47,0-.51,0-1,0-1.53C58,31.24,58,30.5,57.9,29.76Zm-10-13a22.11,22.11,0,0,1,3.61,5L34.05,29V22.52ZM34.11,10.1q.65.06,1.29.16l.39.07.85.16.53.12.73.19.5.14q.52.16,1,.34l.26.09q.52.2,1,.42l.34.15.84.41.32.16.94.52.17.1c.35.21.69.43,1,.66l.09.06L34,18.19V10.1ZM38.63,53l-.19.06c-.41.13-.82.24-1.24.34l-1,.22-.58.1c-.52.08-1,.16-1.57.2h-.19c-.6,0-1.21.08-1.82.08A22,22,0,0,1,13.52,43.91l-.06-.1c-.15-.23-.29-.47-.44-.71a22,22,0,0,1-2.32-16.58v0c.12-.45.25-.89.4-1.33s.26-.77.41-1.15l.09-.23a22.43,22.43,0,0,1,5-7.4,23.4,23.4,0,0,1,2.7-2.3,21.88,21.88,0,0,1,9.27-3.81c.47-.07.94-.14,1.43-.18H30V32.83L31.21,34,46.09,48.88A22,22,0,0,1,38.63,53ZM48.92,46l-5.68-5.68,10.38-4.3A21.92,21.92,0,0,1,48.92,46ZM40.17,37.3l-4.59-4.59L53,25.49a21.91,21.91,0,0,1,1,6.09Z"/></svg>