<svg viewBox="0 0 64 64"><path d="M38.82,30a12.06,12.06,0,0,0,15.55-1.27C58.7,24.36,59.88,9.79,60,8.14A2,2,0,0,0,57.86,6c-1.65.12-16.22,1.29-20.55,5.62a12.09,12.09,0,0,0-1.57,15.13L32.9,34.54l-5.77-5.16a11.51,11.51,0,0,0-1.74-14.07c-4.13-4.13-18-5.24-19.53-5.36a2,2,0,0,0-1.56.58,2,2,0,0,0-.58,1.56c.11,1.56,1.23,15.4,5.36,19.53a11.55,11.55,0,0,0,15.44.79l7.11,6.36L30,49.06a27.17,27.17,0,0,0-11.3,3.22,2,2,0,1,0,2.06,3.43,23.37,23.37,0,0,1,11-2.71,30.78,30.78,0,0,1,12.11,2.79,2,2,0,1,0,1.79-3.58A35,35,0,0,0,34.09,49.1l1.63-10.6ZM11.91,28.79c-2-2-3.39-9.26-4-14.64,5.37.59,12.62,2,14.64,4a7.52,7.52,0,0,1,1.5,8.5l-8-7.12a2,2,0,1,0-2.67,3l8,7.2A7.55,7.55,0,0,1,11.91,28.79ZM40.13,14.46c2.16-2.16,10-3.63,15.66-4.25-.61,5.7-2.08,13.49-4.25,15.66a8.07,8.07,0,0,1-10.35.88l9.86-8.21a2,2,0,1,0-2.56-3.07L38.6,23.71A8.08,8.08,0,0,1,40.13,14.46Z"/></svg>