<svg  viewBox="0 0 64 64"><path d="M23,26h5.89A2.07,2.07,0,0,0,31,24.34,2,2,0,0,0,29,22H23.11A2.07,2.07,0,0,0,21,23.66,2,2,0,0,0,23,26ZM41,42H23.11A2.07,2.07,0,0,0,21,43.66,2,2,0,0,0,23,46H40.89A2.07,2.07,0,0,0,43,44.34,2,2,0,0,0,41,42ZM51.12,18.29,41.71,8.88A3,3,0,0,0,39.59,8H15a3,3,0,0,0-3,3V53a3,3,0,0,0,3,3H49a3,3,0,0,0,3-3V20.41A3,3,0,0,0,51.12,18.29ZM48,52H16V12H35V25H48Zm0-31H39V12h.17L48,20.83ZM21,34.34A2.07,2.07,0,0,0,23.11,36H40.89A2.07,2.07,0,0,0,43,34.34,2,2,0,0,0,41,32H23A2,2,0,0,0,21,34.34Z"/></svg>