<svg id="Layer_1" data-name="Layer 1" xmlns="http://www.w3.org/2000/svg" viewBox="0 0 64 64"><title>star6</title><path d="M32,12.21l5.61,11.23.93,1.86,2.05.31L53,27.48l-8.94,8.81-1.48,1.46.34,2L45,52.18,33.84,46.4l-1.84-1-1.84,1L19,52.18l2.06-12.38.34-2-1.48-1.46L11,27.48,23.4,25.61l2.05-.31.93-1.86L32,12.21M32,7a3,3,0,0,0-2.68,1.66l-6.51,13L8.42,23.82a3,3,0,0,0-1.66,5.1L17.13,39.14,14.74,53.5a3,3,0,0,0,4.34,3.15L32,49.95l12.92,6.71a3,3,0,0,0,4.34-3.15L46.87,39.14,57.24,28.93a3,3,0,0,0-1.66-5.1L41.19,21.65l-6.51-13A3,3,0,0,0,32,7Z"/></svg>