<svg id="Layer_1" data-name="Layer 1" xmlns="http://www.w3.org/2000/svg" viewBox="0 0 64 64"><title>star8</title><path d="M32,11.83l6.81,10.64.84,1.32,1.51.4,12.22,3.19-8,9.76-1,1.21.09,1.56.74,12.61-11.76-4.6L32,47.35l-1.46.57-11.76,4.6.74-12.61.09-1.56-1-1.21-8-9.76,12.22-3.19,1.51-.4.84-1.32L32,11.83M32,7a3,3,0,0,0-2.53,1.38l-7.65,12L8.09,23.9A3,3,0,0,0,6.53,28.7l9,11L14.7,53.84a3,3,0,0,0,4.09,3L32,51.64l13.22,5.17a3,3,0,0,0,4.09-3l-.83-14.17,9-11a3,3,0,0,0-1.56-4.81L42.18,20.31l-7.65-12A3,3,0,0,0,32,7Z"/></svg>