<svg id="Layer_1" data-name="Layer 1" xmlns="http://www.w3.org/2000/svg" viewBox="0 0 64 64"><title>star2</title><path d="M55.72,23.93,42,20.61l-7.42-12a3,3,0,0,0-5.11,0L22,20.61,8.28,23.93A3,3,0,0,0,6.7,28.8l9.16,10.74L14.78,53.6a3,3,0,0,0,4.13,3L32,51.23l13.09,5.37a3,3,0,0,0,4.13-3L48.14,39.54,57.3,28.8A3,3,0,0,0,55.72,23.93Zm-22.2,23.6L32,46.91l-1.52.62L18.89,52.29l1-12.45L20,38.2,18.9,36.94l-8.1-9.5L23,24.5l1.6-.39.86-1.4L32,12.07l6.57,10.64.86,1.4,1.6.39L53.2,27.44l-8.1,9.5L44,38.2l.13,1.65,1,12.45Z"/></svg>