<svg id="Layer_1" data-name="Layer 1" xmlns="http://www.w3.org/2000/svg" viewBox="0 0 64 64"><title>star4</title><path d="M17.07,57a2,2,0,0,1-2-2.2l1.54-15.37L6.33,27.91a2,2,0,0,1,1.07-3.29l15.09-3.28L30.27,8A2,2,0,0,1,32,7h0a2,2,0,0,1,1.73,1l7.79,13.34L56.6,24.6a2,2,0,0,1,1.07,3.29L47.39,39.42l1.55,15.37a2,2,0,0,1-2.79,2L32,50.61,17.87,56.83A2,2,0,0,1,17.07,57ZM11.59,27.8l8.59,9.62a2,2,0,0,1,.5,1.53L19.4,51.79l11.81-5.2a2,2,0,0,1,1.61,0l11.81,5.19-1.3-12.83a2,2,0,0,1,.5-1.53l8.58-9.62L39.8,25.05a2,2,0,0,1-1.3-.95L32,13,25.5,24.11a2,2,0,0,1-1.3.95Z"/></svg>