<svg id="Layer_1" data-name="Layer 1" xmlns="http://www.w3.org/2000/svg" viewBox="0 0 64 64"><title>star5</title><path d="M32,12.42,38.24,23l.88,1.49,1.69.38,12,2.67-8.12,9.2L43.52,38l.16,1.72L44.85,52,33.59,47.08,32,46.39l-1.59.69L19.15,52l1.16-12.21L20.48,38l-1.15-1.3-8.12-9.2,12-2.67,1.69-.38L25.76,23,32,12.42m0-5a3,3,0,0,0-2.58,1.47l-7.1,12L8.69,24A3,3,0,0,0,7.1,28.9l9.24,10.47L15,53.26a3,3,0,0,0,4.18,3L32,50.75,44.81,56.3a3,3,0,0,0,4.18-3l-1.32-13.9L56.9,28.9A3,3,0,0,0,55.31,24l-13.62-3-7.1-12A3,3,0,0,0,32,7.45Z"/></svg>