<svg id="Layer_1" data-name="Layer 1" xmlns="http://www.w3.org/2000/svg" viewBox="0 0 64 64"><title>star10</title><path d="M32,11.95l5.85,11.13.91,1.73,1.92.35L53,27.39l-8.73,9.23L43,38l.26,1.9,1.72,12.6L33.77,47,32,46.12,30.23,47,19.06,52.51l1.72-12.6L21,38l-1.32-1.39L11,27.39l12.34-2.24,1.92-.35.91-1.73L32,11.95m0-5.23A2.91,2.91,0,0,0,29.4,8.3L22.61,21.22,8.44,23.78a3,3,0,0,0-1.61,5l10,10.55-2,14.5a3,3,0,0,0,2.92,3.42A2.9,2.9,0,0,0,19,57l13-6.39L45,57a2.9,2.9,0,0,0,1.29.31,3,3,0,0,0,2.92-3.42l-2-14.5,10-10.55a3,3,0,0,0-1.61-5L41.39,21.22,34.6,8.3A2.91,2.91,0,0,0,32,6.72Z"/></svg>