<svg id="Layer_1" data-name="Layer 1" xmlns="http://www.w3.org/2000/svg" viewBox="0 0 64 64"><title>star3</title><path d="M32,12.87,38.28,23l.86,1.4,1.6.39,11.61,2.81L44.62,36.7,43.55,38l.13,1.65.91,11.89L33.52,46.95,32,46.32l-1.52.62L19.41,51.49l.91-11.89L20.45,38,19.38,36.7l-7.74-9.07,11.61-2.81,1.6-.39.86-1.4L32,12.87M32,8a3,3,0,0,0-2.55,1.42L22.32,20.93,9.12,24.12A3,3,0,0,0,7.55,29L16.34,39.3l-1,13.5a3,3,0,0,0,4.13,3L32,50.65l12.57,5.16a3,3,0,0,0,4.13-3l-1-13.5L56.45,29a3,3,0,0,0-1.58-4.86l-13.2-3.19L34.55,9.39A3,3,0,0,0,32,8Z"/></svg>