<svg  viewBox="0 0 64 64"><path d="M15.93,32a16,16,0,1,0,16-16A16,16,0,0,0,15.93,32Zm28,0a12,12,0,1,1-12-12A12,12,0,0,1,43.93,32ZM18.15,17.29l4-2.94-2.94-4a2,2,0,0,0-2.79-.44l-.81.59a2,2,0,0,0-.44,2.79ZM34.43,7a2,2,0,0,0-2-2h-1a2,2,0,0,0-2,2v5h5Zm-27,30.35A2,2,0,0,0,6.1,39.87l.31,1A2,2,0,0,0,8.93,42.1l4.76-1.55L12.14,35.8Zm49.1-10.7a2,2,0,0,0,1.28-2.52l-.31-1a2,2,0,0,0-2.52-1.28l-4.76,1.55,1.55,4.76Zm-8.27-16.2-.81-.59a2,2,0,0,0-2.79.44l-2.94,4,4,2.94,2.94-4A2,2,0,0,0,48.21,10.45Zm-2.5,36.26-4,2.94,2.94,4a2,2,0,0,0,2.79.44l.81-.59a2,2,0,0,0,.44-2.79ZM6.41,23.18l-.31,1a2,2,0,0,0,1.28,2.52l4.76,1.55,1.55-4.76L8.93,21.9A2,2,0,0,0,6.41,23.18ZM56.48,37.35,51.73,35.8l-1.55,4.76,4.76,1.55a2,2,0,0,0,2.52-1.28l.31-1A2,2,0,0,0,56.48,37.35ZM15.21,50.76a2,2,0,0,0,.44,2.79l.81.59a2,2,0,0,0,2.79-.44l2.94-4-4-2.94ZM29.43,57a2,2,0,0,0,2,2h1a2,2,0,0,0,2-2V52h-5Z"/></svg>