<svg  viewBox="0 0 64 64"><path d="M7.45,37.35a2,2,0,0,0-1.28,2.52l.31,1A2,2,0,0,0,9,42.1l4.76-1.55L12.21,35.8Z"/><path d="M18.22,17.29l4-2.94-2.94-4a2,2,0,0,0-2.79-.44l-.81.59a2,2,0,0,0-.44,2.79Z"/><path d="M32,47A15,15,0,1,0,17,32,15,15,0,0,0,32,47Z"/><path d="M56.55,26.65a2,2,0,0,0,1.28-2.52l-.31-1A2,2,0,0,0,55,21.9l-4.76,1.55,1.55,4.76Z"/><path d="M6.48,23.18l-.31,1a2,2,0,0,0,1.28,2.52l4.76,1.55,1.55-4.76L9,21.9A2,2,0,0,0,6.48,23.18Z"/><path d="M34.5,7a2,2,0,0,0-2-2h-1a2,2,0,0,0-2,2v5h5Z"/><path d="M48.27,10.45l-.81-.59a2,2,0,0,0-2.79.44l-2.94,4,4,2.94,2.94-4A2,2,0,0,0,48.27,10.45Z"/><path d="M56.55,37.35,51.79,35.8l-1.55,4.76L55,42.1a2,2,0,0,0,2.52-1.28l.31-1A2,2,0,0,0,56.55,37.35Z"/><path d="M29.5,57a2,2,0,0,0,2,2h1a2,2,0,0,0,2-2V52h-5Z"/><path d="M45.78,46.71l-4,2.94,2.94,4a2,2,0,0,0,2.79.44l.81-.59a2,2,0,0,0,.44-2.79Z"/><path d="M15.28,50.76a2,2,0,0,0,.44,2.79l.81.59a2,2,0,0,0,2.79-.44l2.94-4-4-2.94Z"/></svg>