<svg viewBox="0 0 64 64"><path d="M32,55A23,23,0,0,1,11.29,42H16a2,2,0,0,0,0-4H4V50a2,2,0,0,0,4,0V44.88H8v-.52A27,27,0,0,0,58.53,37H54.45A23,23,0,0,1,32,55ZM58,12a2,2,0,0,0-2,2v5.12h0v.52A27,27,0,0,0,5.47,27H9.55a23,23,0,0,1,43.16-5H48a2,2,0,0,0,0,4H60V14A2,2,0,0,0,58,12ZM32.51,37.35a7.15,7.15,0,0,1-4.33-1.53,2.11,2.11,0,0,0-1.24-.4,2,2,0,0,0-2,2,2,2,0,0,0,.83,1.65A11.51,11.51,0,0,0,30,41v3a2,2,0,0,0,4,0V41.12c3.15-.51,5.11-2.58,5.11-5.6,0-3.32-2.29-4.59-5.74-5.49-3.14-.8-3.59-1.16-3.59-2.11,0-.77.78-1.27,2-1.27a7,7,0,0,1,3.55,1.14,2.08,2.08,0,0,0,1.1.31,2,2,0,0,0,1.08-3.76A10,10,0,0,0,34,23V20a2,2,0,0,0-4,0v3a5.41,5.41,0,0,0-4.54,5.37c0,3.76,2.59,4.73,6,5.59,2.87.74,3.34,1.19,3.34,2S33.94,37.35,32.51,37.35Z"/></svg>