<svg id="Layer_1" data-name="Layer 1" xmlns="http://www.w3.org/2000/svg" viewBox="0 0 64 64"><title>vertical-stacked-bar</title><path d="M8,54a2,2,0,0,0,2,2h8a2,2,0,0,0,2-2V40H8Z"/><rect x="26" y="20" width="12" height="24"/><path d="M38,10a2,2,0,0,0-2-2H28a2,2,0,0,0-2,2v6H38Z"/><path d="M54,18H46a2,2,0,0,0-2,2v7H56V20A2,2,0,0,0,54,18Z"/><path d="M18,28H10a2,2,0,0,0-2,2v6H20V30A2,2,0,0,0,18,28Z"/><path d="M44,54a2,2,0,0,0,2,2h8a2,2,0,0,0,2-2V31H44Z"/><path d="M26,48v6a2,2,0,0,0,2,2h8a2,2,0,0,0,2-2V48Z"/></svg>