<svg id="Layer_1" data-name="Layer 1" xmlns="http://www.w3.org/2000/svg" viewBox="0 0 64 64"><title>vertical-stacked-bar2</title><path d="M38,16V10a2,2,0,0,0-2-2H28a2,2,0,0,0-2,2v6Z"/><path d="M56,26V20a2,2,0,0,0-2-2H46a2,2,0,0,0-2,2v6Z"/><rect x="44" y="28" width="12" height="16"/><rect x="26" y="18" width="12" height="14"/><rect x="8" y="38" width="12" height="8"/><path d="M44,46v8a2,2,0,0,0,2,2h8a2,2,0,0,0,2-2V46Z"/><path d="M26,34V54a2,2,0,0,0,2,2h8a2,2,0,0,0,2-2V34Z"/><path d="M8,48v6a2,2,0,0,0,2,2h8a2,2,0,0,0,2-2V48Z"/><path d="M20,36V30a2,2,0,0,0-2-2H10a2,2,0,0,0-2,2v6Z"/></svg>