<?xml version="1.0" standalone="no"?>
<!DOCTYPE svg PUBLIC "-//W3C//DTD SVG 1.1//EN" "http://www.w3.org/Graphics/SVG/1.1/DTD/svg11.dtd" >
<svg xmlns="http://www.w3.org/2000/svg">
<metadata>Generated by IcoMoon</metadata>
<defs>
<font id="aicon" horiz-adv-x="1024">
<font-face units-per-em="1024" ascent="960" descent="-64" />
<missing-glyph horiz-adv-x="1024" />
<glyph unicode="&#x20;" horiz-adv-x="512" d="" />
<glyph unicode="&#xe900;" glyph-name="comment" d="M608.96 480h-289.92c-17.143 0-31.040-13.897-31.040-31.040v0-1.92c0-17.143 13.897-31.040 31.040-31.040h289.92c17.143 0 31.040 13.897 31.040 31.040v0 1.92c0 17.143-13.897 31.040-31.040 31.040v0zM704.96 640h-385.92c-17.143 0-31.040-13.897-31.040-31.040v0-1.92c0-17.143 13.897-31.040 31.040-31.040h385.92c17.143 0 31.040 13.897 31.040 31.040v1.92c0 17.143-13.897 31.040-31.040 31.040v0zM832 832h-640c-35.346 0-64-28.654-64-64v0-480c0-35.346 28.654-64 64-64v0h96v-108c-0.024-0.585-0.038-1.272-0.038-1.962 0-26.94 21.273-48.912 47.937-50.035l0.101-0.003c11.080 0.060 21.204 4.105 29.023 10.772l-0.063-0.052 170.56 149.28h296.48c35.346 0 64 28.654 64 64v0 480c0 35.346-28.654 64-64 64v0zM832 288h-320l-18.080-16-141.92-123.68v139.68h-160v480h640z" />
<glyph unicode="&#xe901;" glyph-name="arrow-down" d="M512 64.64l328.16 328-45.28 45.28-250.88-250.88v644.32h-64v-644.32l-250.88 250.88-45.28-45.28 328.16-328z" />
<glyph unicode="&#xe902;" glyph-name="person" d="M608 400h-192c-150.221 0-272-121.779-272-272v0c0-35.346 28.654-64 64-64v0h608c35.346 0 64 28.654 64 64v0c0 150.221-121.779 272-272 272v0zM208 128c0 114.875 93.125 208 208 208v0h192c114.875 0 208-93.125 208-208v0zM512 480c97.202 0 176 78.798 176 176s-78.798 176-176 176c-97.202 0-176-78.798-176-176v0c0-97.202 78.798-176 176-176v0zM512 768c61.856 0 112-50.144 112-112s-50.144-112-112-112c-61.856 0-112 50.144-112 112v0c0 61.856 50.144 112 112 112v0z" />
<glyph unicode="&#xe903;" glyph-name="plus" d="M544 480v256h-64v-256h-256v-64h256v-256h64v256h256v64h-256z" />
<glyph unicode="&#xe904;" glyph-name="email" d="M816 768h-608c-44.183 0-80-35.817-80-80v0-480c0-44.183 35.817-80 80-80v0h608c44.183 0 80 35.817 80 80v0 480c0 44.183-35.817 80-80 80v0zM208 704h608c5.38-0.103 10.098-2.847 12.924-6.985l0.036-0.055-275.36-235.36c-11.114-9.55-25.678-15.364-41.6-15.364s-30.486 5.814-41.685 15.436l0.085-0.071-275.36 235.36c2.862 4.193 7.58 6.937 12.944 7.040h0.016zM832 208c0-8.837-7.163-16-16-16v0h-608c-8.837 0-16 7.163-16 16v0 407.52l236.8-202.56c22.227-19.1 51.356-30.728 83.2-30.728s60.973 11.629 83.37 30.871l-0.17-0.143 236.8 202.56z" />
<glyph unicode="&#xe905;" glyph-name="check-circle" d="M653.44 566.56l-203.68-203.52-80 79.2c-5.794 5.794-13.799 9.378-22.64 9.378-17.683 0-32.018-14.335-32.018-32.018 0-8.841 3.584-16.846 9.378-22.64v0l125.28-124.96 248.96 249.44c5.794 5.794 9.378 13.799 9.378 22.64 0 17.683-14.335 32.018-32.018 32.018-8.841 0-16.846-3.584-22.64-9.378v0zM512 864c-229.75 0-416-186.25-416-416s186.25-416 416-416c229.75 0 416 186.25 416 416v0c0 229.75-186.25 416-416 416v0zM512 96c-194.404 0-352 157.596-352 352s157.596 352 352 352c194.404 0 352-157.596 352-352v0c0-194.404-157.596-352-352-352v0z" />
<glyph unicode="&#xe906;" glyph-name="close" d="M760.96 651.68l-45.28 45.28-203.68-203.68-203.68 203.68-45.28-45.28 203.68-203.68-203.68-203.68 45.28-45.28 203.68 203.68 203.68-203.68 45.28 45.28-203.68 203.68 203.68 203.68z" />
<glyph unicode="&#xe907;" glyph-name="image" d="M254.4 253.44h483.2c0.012 0 0.026 0 0.040 0 7.953 0 14.4 6.447 14.4 14.4 0 2.782-0.789 5.38-2.155 7.581l0.035-0.061-104.48 174.080c-2.552 4.267-7.147 7.079-12.4 7.079s-9.848-2.812-12.364-7.013l-0.036-0.066-66.72-111.2-125.28 199.040c-2.582 4.117-7.096 6.814-12.24 6.814s-9.658-2.697-12.205-6.754l-0.035-0.060-161.92-261.76c-1.392-2.177-2.219-4.832-2.219-7.68 0-7.946 6.435-14.388 14.378-14.4h0.001zM912 832h-800c-35.346 0-64-28.654-64-64v0-640c0-35.346 28.654-64 64-64v0h800c35.346 0 64 28.654 64 64v0 640c0 35.346-28.654 64-64 64v0zM912 128h-800v640h800zM816 608c0-35.346-28.654-64-64-64s-64 28.654-64 64c0 35.346 28.654 64 64 64s64-28.654 64-64z" />
<glyph unicode="&#xe908;" glyph-name="arrow-left" d="M128.64 448l328-328.16 45.28 45.28-250.88 250.88h644.32v64h-644.32l250.88 250.88-45.28 45.28-328-328.16z" />
<glyph unicode="&#xe909;" glyph-name="arrow-right" d="M895.36 448l-328 328.16-45.28-45.28 250.88-250.88h-644.32v-64h644.32l-250.88-250.88 45.28-45.28 328 328.16z" />
<glyph unicode="&#xe90a;" glyph-name="dots-horizontal" d="M256 512c-35.346 0-64-28.654-64-64s28.654-64 64-64c35.346 0 64 28.654 64 64v0c0 35.346-28.654 64-64 64v0zM768 512c-35.346 0-64-28.654-64-64s28.654-64 64-64c35.346 0 64 28.654 64 64v0c0 35.346-28.654 64-64 64v0zM512 512c-35.346 0-64-28.654-64-64s28.654-64 64-64c35.346 0 64 28.654 64 64v0c0 35.346-28.654 64-64 64v0z" />
<glyph unicode="&#xe90b;" glyph-name="dots-vertical" d="M448 192c0-35.346 28.654-64 64-64s64 28.654 64 64c0 35.346-28.654 64-64 64v0c-35.346 0-64-28.654-64-64v0zM448 704c0-35.346 28.654-64 64-64s64 28.654 64 64c0 35.346-28.654 64-64 64v0c-35.346 0-64-28.654-64-64v0zM448 448c0-35.346 28.654-64 64-64s64 28.654 64 64c0 35.346-28.654 64-64 64v0c-35.346 0-64-28.654-64-64v0z" />
<glyph unicode="&#xe90c;" glyph-name="arrow-up" d="M512 831.36l-328.16-328 45.28-45.28 250.88 250.88v-644.32h64v644.32l250.88-250.88 45.28 45.28-328.16 328z" />
<glyph unicode="&#xe90d;" glyph-name="chevron-double-left" d="M464 702.56l-253.92-254.56 253.92-254.56 45.28 45.12-208.64 209.44 209.28 209.44zM813.28 657.44l-45.28 45.12-253.92-254.56 253.92-254.56 45.28 45.12-208.64 209.44z" />
<glyph unicode="&#xe90e;" glyph-name="chevron-double-right" d="M210.080 657.44l209.28-209.44-209.28-209.44 45.92-45.12 253.92 254.56-253.92 254.56zM560 702.56l-45.28-45.12 208.64-209.44-209.28-209.44 45.92-45.12 253.92 254.56z" />
<glyph unicode="&#xe90f;" glyph-name="check-mini" d="M422.080 242.56l-169.76 169.76 45.28 45.12 124.48-124.32 320.32 320.32 45.28-45.28-365.6-365.6z" />
<glyph unicode="&#xe910;" glyph-name="copy" d="M192 768h480v-32h64v32c0 35.346-28.654 64-64 64v0h-480c-35.346 0-64-28.654-64-64v0-480c0-35.346 28.654-64 64-64v0h32v64h-32zM832 672h-480c-35.346 0-64-28.654-64-64v0-480c0-35.346 28.654-64 64-64v0h480c35.346 0 64 28.654 64 64v0 480c0 35.346-28.654 64-64 64v0zM832 128h-480v480h480z" />
<glyph unicode="&#xe911;" glyph-name="chevron-down" d="M512 298.080l-254.56 254.56 45.12 45.28 209.44-209.28 209.44 209.28 45.12-45.28-254.56-254.56z" />
<glyph unicode="&#xe912;" glyph-name="chevron-left" d="M616.64 193.44l-254.56 254.56 254.56 254.56 45.28-45.12-209.28-209.44 209.28-209.44-45.28-45.12z" />
<glyph unicode="&#xe913;" glyph-name="chevron-right" d="M407.36 193.44l-45.28 45.12 209.44 209.44-209.44 209.44 45.28 45.12 254.56-254.56-254.56-254.56z" />
<glyph unicode="&#xe914;" glyph-name="chevron-up" d="M721.44 298.080l-209.44 209.28-209.44-209.28-45.12 45.28 254.56 254.56 254.56-254.56-45.12-45.28z" />
<glyph unicode="&#xe915;" glyph-name="open" d="M608 832v-64h178.72l-387.84-387.84 45.28-45.28 387.84 387.84v-178.72h64v288zM768 128h-576v576h256v64h-256c-35.346 0-64-28.654-64-64v0-576c0-35.346 28.654-64 64-64v0h576c35.346 0 64 28.654 64 64v0 256h-64z" />
<glyph unicode="&#xe916;" glyph-name="circle" d="M512 768c176.731 0 320-143.269 320-320s-143.269-320-320-320c-176.731 0-320 143.269-320 320v0c0 176.731 143.269 320 320 320v0zM512 832c-212.077 0-384-171.923-384-384s171.923-384 384-384c212.077 0 384 171.923 384 384v0c0 212.077-171.923 384-384 384v0z" />
<glyph unicode="&#xe917;" glyph-name="check" d="M844.48 724.8l-473.6-473.6-192.96 192.96-45.28-45.28 238.24-238.24 518.88 519.040-45.28 45.12z" />
<glyph unicode="&#xe918;" glyph-name="logout" d="M640 128h-512v640h512v-96h64v96c0 35.346-28.654 64-64 64v0h-512c-35.346 0-64-28.654-64-64v0-640c0-35.346 28.654-64 64-64v0h512c35.346 0 64 28.654 64 64v0 96h-64zM843.040 628.96l-45.28-45.28 103.68-103.68h-453.44v-64h453.44l-103.84-103.84 45.28-45.28 181.12 181.12z" />
<glyph unicode="&#xe919;" glyph-name="cog" d="M802.4 418.080c0.96 9.92 1.44 19.84 1.44 29.92s0 20-1.44 29.92v0l88.16 82.080-92.16 160-115.68-35.52c-6.975 5.101-15.071 10.389-23.437 15.266l-1.363 0.734c-7.009 4.15-15.672 8.64-24.574 12.695l-1.826 0.745-27.36 118.080h-184.32l-27.2-117.92c-10.728-4.8-19.391-9.29-27.786-14.187l1.386 0.747c-9.728-5.61-17.824-10.899-25.623-16.571l0.823 0.571-115.84 35.36-92.16-160 88.16-82.24c-0.96-9.92-1.44-19.84-1.44-29.92s0-20 1.44-29.92v0l-88.16-81.92 92.16-160 115.68 35.52c6.975-5.101 15.071-10.389 23.437-15.266l1.363-0.734c7.009-4.15 15.672-8.64 24.574-12.695l1.826-0.745 27.36-118.080h184.32l27.2 117.92c10.728 4.8 19.391 9.29 27.786 14.187l-1.386-0.747c9.728 5.61 17.824 10.899 25.623 16.571l-0.823-0.571 115.84-35.36 92.16 160-88.16 82.24zM512 309.76c-76.348 0-138.24 61.892-138.24 138.24s61.892 138.24 138.24 138.24c76.348 0 138.24-61.892 138.24-138.24v0c-0.182-76.275-61.965-138.058-138.223-138.24h-0.017z" />
<glyph unicode="&#xe91a;" glyph-name="cog-outline" d="M512 608c-88.366 0-160-71.634-160-160s71.634-160 160-160c88.366 0 160 71.634 160 160v0c0 88.366-71.634 160-160 160v0zM512 352c-53.019 0-96 42.981-96 96s42.981 96 96 96c53.019 0 96-42.981 96-96v0c0-53.019-42.981-96-96-96v0zM848 448c0 6.56 0 12.96-0.96 19.36l80.96 91.68-112 193.92-119.52-24.48c-9.47 6.308-20.625 12.797-32.162 18.639l-1.918 0.881-38.4 116h-224l-38.72-116c-13.455-6.723-24.61-13.212-35.334-20.299l1.254 0.779-119.2 24.48-112-193.92 81.28-91.68c0-6.4-0.96-12.8-0.96-19.36s0-12.96 0.96-19.36l-81.28-91.68 112-193.92 119.52 24.48c9.47-6.308 20.625-12.797 32.162-18.639l1.918-0.881 38.4-116h224l38.72 116c13.455 6.723 24.61 13.212 35.334 20.299l-1.254-0.779 119.2-24.48 112 193.92-81.28 91.68c1.28 6.4 1.28 12.8 1.28 19.36zM849.76 329.12l-65.76-114.24-74.4 16-25.92 5.28-22.080-14.56c-7.671-5.179-16.676-10.494-25.993-15.286l-1.527-0.714-23.52-11.84-8.32-25.12-24.32-72.64h-131.84l-24 72.16-8.32 25.12-23.52 11.84c-10.84 5.501-19.845 10.816-28.496 16.616l0.976-0.616-22.080 14.56-25.92-5.28-74.4-16-65.92 114.080 68 76.8-1.6 26.72v6.080c0 3.2 0 6.4 0 9.6s0 6.4 0 9.6v6.080l1.44 26.4-68 76.8 65.76 114.56 74.4-16 25.92-5.28 22.080 14.56c7.671 5.179 16.676 10.494 25.993 15.286l1.527 0.714 23.52 11.84 32 97.28h131.68l24-72.16 8.32-25.12 23.52-11.84c10.844-5.506 19.849-10.821 28.502-16.62l-0.982 0.62 22.080-14.56 25.92 5.28 74.4 16 65.92-114.080-68-76.8 2.4-26.24v-6.080c0-3.2 0-6.4 0-9.6s0-6.4 0-9.6v-6.080l-1.44-26.4 17.44-19.68z" />
<glyph unicode="&#xe91b;" glyph-name="bookmark" d="M704 768v-621.12l-150.88 126.24c-11.039 9.304-25.419 14.958-41.12 14.958s-30.081-5.654-41.216-15.037l0.096 0.079-150.88-126.24v621.12h384zM720 832h-416c-26.51 0-48-21.49-48-48v0-672c0-26.51 21.49-48 48-48v0c0.005 0 0.011 0 0.016 0 9.377 0 18.113 2.744 25.45 7.472l-0.186-0.112 182.72 152.64 182.56-152.64c7.151-4.617 15.887-7.36 25.264-7.36 0.062 0 0.124 0 0.185 0h-0.010c26.51 0 48 21.49 48 48v0 672c0 26.51-21.49 48-48 48v0z" />
<glyph unicode="&#xe91c;" glyph-name="comment-hide" d="M416 288l-18.080-16-141.92-123.84v139.84h-128v480h640v-180c24.051-3.921 45.564-10.214 65.881-18.784l-1.881 0.704v198.080c0 35.346-28.654 64-64 64v0h-640c-35.346 0-64-28.654-64-64v0-480c0-35.346 28.654-64 64-64v0h64v-108c-0.024-0.585-0.038-1.272-0.038-1.962 0-26.94 21.273-48.912 47.937-50.035l0.101-0.003c11.080 0.060 21.204 4.105 29.023 10.772l-0.063-0.052 171.2 149.28h4.16c-5.62 18.843-9.452 40.707-10.688 63.262l-0.032 0.738zM640 640h-384c-17.673 0-32-14.327-32-32s14.327-32 32-32v0h370.4c10.079 3.753 22.511 7.338 35.26 10.067l1.86 0.333c5.202 5.671 8.39 13.263 8.39 21.6 0 17.641-14.276 31.949-31.905 32h-0.005zM958.080 336c-16.378 118.021-116.614 207.905-237.844 207.905-132.548 0-240-107.452-240-240 0-121.18 89.811-221.384 206.501-237.681l1.263-0.145c9.684-1.384 20.867-2.175 32.236-2.175 132.548 0 240 107.452 240 240 0 11.318-0.783 22.454-2.299 33.355l0.143-1.26zM828.48 241.6c5.794-5.794 9.378-13.799 9.378-22.64 0-17.683-14.335-32.018-32.018-32.018-8.841 0-16.846 3.584-22.64 9.378v0l-63.2 62.56-63.040-63.040c-5.794-5.794-13.799-9.378-22.64-9.378-17.683 0-32.018 14.335-32.018 32.018 0 8.841 3.584 16.846 9.378 22.64v0l63.040 62.88-63.040 64c-5.794 5.794-9.378 13.799-9.378 22.64 0 17.683 14.335 32.018 32.018 32.018 8.841 0 16.846-3.584 22.64-9.378v0l63.040-63.84 63.040 63.040c5.385 4.261 12.275 6.835 19.767 6.835 17.673 0 32-14.327 32-32 0-7.291-2.438-14.012-6.544-19.393l0.057 0.078-63.040-64zM256 480c-17.673 0-32-14.327-32-32s14.327-32 32-32v0h199.2c10.562 24.432 23.213 45.501 38.231 64.622l-0.471-0.622z" />
<glyph unicode="&#xe91d;" glyph-name="filter" d="M817.28 768l-241.28-331.52v-236.8l-128-62.080v298.88l-240 331.52h609.28zM849.28 832h-673.28c-0.002 0-0.005 0-0.008 0-26.51 0-48-21.49-48-48 0-10.581 3.423-20.362 9.223-28.296l-0.095 0.136 246.88-339.84v-304c0-0.005 0-0.012 0-0.018 0-26.51 21.49-48 48-48 7.626 0 14.837 1.779 21.241 4.944l-0.281-0.125 160 77.76c16.136 7.962 27.040 24.299 27.040 43.182 0 0.006 0 0.013 0 0.019v-0.001 226.24l247.52 339.52c5.852 7.863 9.368 17.765 9.368 28.488 0 26.51-21.49 48-48 48-0.312 0-0.624-0.003-0.935-0.009l0.047 0.001z" />
<glyph unicode="&#xe91e;" glyph-name="edit" d="M800 128h-608v608h352v64h-352c-35.346 0-64-28.654-64-64v0-608c0-35.346 28.654-64 64-64v0h608c35.346 0 64 28.654 64 64v0 352h-64zM872.64 785.92l-22.72 22.72c-14.476 14.472-34.473 23.423-56.56 23.423s-42.084-8.951-56.56-23.423l-304-304-34.4-170.24 170.72 35.040 304 304c14.139 14.418 22.866 34.188 22.866 55.997 0 22.049-8.92 42.014-23.348 56.485l0.002-0.002zM537.44 428.16l-57.44-12.16 11.52 56.8 220.96 220.96 45.28-45.28zM827.36 718.080l-24.32-24.32-45.28 45.28 24.32 24.32c2.892 2.875 6.878 4.653 11.28 4.653s8.388-1.777 11.281-4.653l22.719-22.719c2.875-2.892 4.653-6.878 4.653-11.28s-1.777-8.388-4.653-11.281l0.001 0.001z" />
<glyph unicode="&#xe91f;" glyph-name="edit-pencil" d="M867.84 758.56l-45.28 45.28c-17.368 17.347-41.351 28.076-67.84 28.076s-50.472-10.728-67.841-28.077l-486.559-486.399-72.32-253.44 253.44 72.32 486.4 486.56c17.347 17.368 28.076 41.351 28.076 67.84s-10.728 50.472-28.077 67.841l0.001-0.001zM347.84 193.28l-43.84-12.32c-3.893-1.137-8.366-1.792-12.992-1.792-26.51 0-48 21.49-48 48 0 4.625 0.654 9.098 1.875 13.33l-0.084-0.339 12.32 43.68 361.76 361.6 90.4-90.4zM822.56 668.16l-67.84-68-90.56 90.56 68 67.84c5.792 5.798 13.797 9.385 22.64 9.385s16.848-3.587 22.64-9.385v0l45.12-45.12c5.798-5.792 9.385-13.797 9.385-22.64s-3.587-16.848-9.385-22.64v0z" />
<glyph unicode="&#xe920;" glyph-name="menu" d="M160 416h704v64h-704zM160 192h704v64h-704zM160 704v-64h704v64z" />
<glyph unicode="&#xe921;" glyph-name="moon" d="M843.68 235.040h-2.72c-10.56-0.8-21.12-1.28-32-1.28-0.033 0-0.072 0-0.111 0-219.058 0-396.64 177.582-396.64 396.64 0 62.613 14.508 121.838 40.346 174.496l-1.035-2.336c1.875 3.947 2.969 8.577 2.969 13.462 0 17.254-13.656 31.319-30.75 31.976l-0.060 0.002c-4.208-0.011-8.221-0.833-11.895-2.317l0.215 0.077c-155.288-61.692-263.077-210.658-263.077-384.8 0-228.072 184.888-412.96 412.96-412.96 0.126 0 0.251 0 0.377 0h-0.020c120.248 0.322 228.38 51.93 303.723 134.094l0.277 0.306c4.72 5.54 7.591 12.782 7.591 20.693 0 17.023-13.292 30.941-30.063 31.942l-0.088 0.004zM562.24 112c-0.077 0-0.169 0-0.261 0-192.725 0-348.96 156.235-348.96 348.96 0 102.636 44.309 194.922 114.843 258.774l0.298 0.266c10.589 9.496 22.118 18.638 34.185 27.063l1.175 0.777c-9.814-35.485-15.454-76.231-15.454-118.294 0-236.537 178.346-431.419 407.902-457.511l2.111-0.195c-54.571-37.47-122.057-59.842-194.768-59.842-0.377 0-0.753 0.001-1.13 0.002h0.058z" />
<glyph unicode="&#xe922;" glyph-name="filter-plus" d="M512 315.36v-115.52l-128-62.24v298.88l-240 331.52h608.8l-34.88-48c0.55 0.004 1.201 0.007 1.852 0.007 24.981 0 49.129-3.567 71.963-10.22l-1.814 0.453 33.12 45.44c5.777 7.83 9.245 17.67 9.245 28.321 0 26.51-21.49 48-48 48-0.1 0-0.201 0-0.301-0.001h-671.985c-0.002 0-0.005 0-0.008 0-26.51 0-48-21.49-48-48 0-10.581 3.423-20.362 9.223-28.296l-0.095 0.136 246.88-339.84v-304c0-0.005 0-0.012 0-0.018 0-26.51 21.49-48 48-48 7.626 0 14.837 1.779 21.241 4.944l-0.281-0.125 160 77.76c16.136 7.962 27.040 24.299 27.040 43.182 0 0.006 0 0.013 0 0.019v-0.001 62.72c-25.26 17.118-46.503 38.005-63.485 62.109l-0.515 0.771zM867.2 611.040c-37.644 37.663-89.66 60.96-147.116 60.96-114.875 0-208-93.125-208-208s93.125-208 208-208c57.457 0 109.472 23.297 147.116 60.959l0.001 0.001c37.522 37.621 60.724 89.541 60.724 146.88 0 57.419-23.266 109.403-60.885 147.041l0.001-0.001zM848 432h-96v-96h-64v96h-96v64h96v96h64v-96h96z" />
<glyph unicode="&#xe923;" glyph-name="filter-slider" d="M828.32 320c-15.231 64.439-72.262 111.653-140.32 111.653s-125.089-47.214-140.125-110.676l-0.195-0.978h-547.68v-64h547.68c15.231-64.439 72.262-111.653 140.32-111.653s125.089 47.214 140.125 110.676l0.195 0.978h195.68v64h-195.68zM688 208c-44.183 0-80 35.817-80 80s35.817 80 80 80c44.183 0 80-35.817 80-80v0c0-44.183-35.817-80-80-80v0zM476.32 640v0c-15.231 64.439-72.262 111.653-140.32 111.653s-125.089-47.214-140.125-110.676l-0.195-0.978h-195.68v-64h195.68c15.231-64.439 72.262-111.653 140.32-111.653s125.089 47.214 140.125 110.676l0.195 0.978h547.68v64zM336 528c-44.183 0-80 35.817-80 80s35.817 80 80 80c44.183 0 80-35.817 80-80v0c0-44.183-35.817-80-80-80v0z" />
<glyph unicode="&#xe924;" glyph-name="sun-fill" d="M119.2 362.4c-12.911-4.316-22.052-16.298-22.052-30.414 0-3.541 0.575-6.948 1.637-10.132l-0.065 0.226 4.96-16c4.526-12.535 16.32-21.333 30.17-21.333 3.632 0 7.122 0.605 10.376 1.72l-0.225-0.067 76.16 24.8-24.8 76zM291.52 683.36l64 47.040-47.040 64c-5.888 8.002-15.269 13.138-25.85 13.138-7.061 0-13.588-2.287-18.88-6.161l0.090 0.063-12.96-9.44c-8.002-5.888-13.138-15.269-13.138-25.85 0-7.061 2.287-13.588 6.161-18.88l-0.063 0.090zM512 208c132.548 0 240 107.452 240 240s-107.452 240-240 240c-132.548 0-240-107.452-240-240v0c0-132.548 107.452-240 240-240v0zM904.8 533.6c12.911 4.316 22.052 16.298 22.052 30.414 0 3.541-0.575 6.948-1.637 10.132l0.065-0.226-4.96 16c-4.526 12.535-16.32 21.333-30.17 21.333-3.632 0-7.122-0.605-10.376-1.72l0.225 0.067-76.16-24.8 24.8-76.16zM103.68 589.12l-4.96-16c-0.997-2.958-1.572-6.365-1.572-9.906 0-14.116 9.141-26.098 21.826-30.349l0.226-0.066 76.16-24.8 24.8 76.16-76.16 25.44c-2.958 0.997-6.365 1.572-9.906 1.572-14.116 0-26.098-9.141-30.349-21.826l-0.066-0.226zM552 848c0 17.673-14.327 32-32 32v0h-16c-17.673 0-32-14.327-32-32v0-80h80zM772.32 792.8l-12.96 9.44c-5.202 3.811-11.729 6.098-18.79 6.098-10.581 0-19.962-5.135-25.788-13.049l-0.062-0.088-47.040-64 64-47.040 47.040 64c3.949 5.262 6.323 11.902 6.323 19.098 0 10.399-4.961 19.64-12.645 25.485l-0.079 0.057zM904.8 362.4l-76.16 24.8-24.8-76.16 76.16-24.64c2.958-0.997 6.365-1.572 9.906-1.572 14.116 0 26.098 9.141 30.349 21.826l0.066 0.226 4.96 16c0.854 2.748 1.345 5.907 1.345 9.181 0 14.033-9.032 25.955-21.6 30.272l-0.225 0.067zM472 48c0-17.673 14.327-32 32-32v0h16c17.673 0 32 14.327 32 32v0 80h-80zM732.48 212.64l-64-47.040 47.040-64c5.888-8.002 15.269-13.138 25.85-13.138 7.061 0 13.588 2.287 18.88 6.161l-0.090-0.063 12.96 9.44c8.002 5.888 13.138 15.269 13.138 25.85 0 7.061-2.287 13.588-6.161 18.88l0.063-0.090zM244.48 147.84c-3.811-5.202-6.098-11.729-6.098-18.79 0-10.581 5.135-19.962 13.049-25.788l0.088-0.062 12.96-9.44c5.202-3.811 11.729-6.098 18.79-6.098 10.581 0 19.962 5.135 25.788 13.049l0.062 0.088 47.040 64-64 47.040z" />
<glyph unicode="&#xe925;" glyph-name="sun-outline" d="M254.88 432c0-141.385 114.615-256 256-256s256 114.615 256 256c0 141.385-114.615 256-256 256v0c-141.385 0-256-114.615-256-256v0zM702.88 432c0-106.039-85.961-192-192-192s-192 85.961-192 192c0 106.039 85.961 192 192 192v0c106.039 0 192-85.961 192-192v0zM290.4 667.36l64.8 47.040-47.040 64c-5.883 8.063-15.3 13.243-25.926 13.243-7.028 0-13.527-2.266-18.806-6.106l0.092 0.064-12.96-9.44c-8.063-5.883-13.243-15.3-13.243-25.926 0-7.028 2.266-13.527 6.106-18.806l-0.064 0.092zM550.88 832c0 17.673-14.327 32-32 32v0h-16c-17.673 0-32-14.327-32-32v0-80h80zM118.88 346.4c-13.288-4.091-22.778-16.258-22.778-30.642 0-3.457 0.548-6.785 1.562-9.904l-0.064 0.226 4.96-16c4.526-12.535 16.32-21.333 30.17-21.333 3.632 0 7.122 0.605 10.376 1.72l-0.225-0.067 76 24.64-24.64 76.16zM904.48 517.6c12.911 4.316 22.052 16.298 22.052 30.414 0 3.541-0.575 6.948-1.637 10.132l0.065-0.226-4.8 15.2c-4.316 12.911-16.298 22.052-30.414 22.052-3.541 0-6.948-0.575-10.132-1.637l0.226 0.065-76.16-24.64 24.8-76.16zM772.16 776.8l-12.96 9.44c-5.208 3.824-11.746 6.119-18.819 6.119-10.659 0-20.101-5.212-25.917-13.226l-0.064-0.093-47.040-64 64.8-47.040 47.040 64c3.692 5.148 5.903 11.575 5.903 18.519 0 10.842-5.392 20.425-13.641 26.213l-0.102 0.068zM732.16 196.64l-64.8-47.040 47.040-64c5.88-8.107 15.322-13.319 25.981-13.319 7.074 0 13.611 2.295 18.908 6.181l-0.089-0.063 12.96 9.44c8.002 5.888 13.138 15.269 13.138 25.85 0 7.061-2.287 13.588-6.161 18.88l0.063-0.090zM102.56 573.12l-4.96-15.2c-0.997-2.958-1.572-6.365-1.572-9.906 0-14.116 9.141-26.098 21.826-30.349l0.226-0.066 76.16-24.8 24.64 76.16-76 24.64c-2.958 0.997-6.365 1.572-9.906 1.572-14.116 0-26.098-9.141-30.349-21.826l-0.066-0.226zM903.68 346.4l-76 24.8-24.8-76.16 76.16-24.64c2.958-0.997 6.365-1.572 9.906-1.572 14.116 0 26.098 9.141 30.349 21.826l0.066 0.226 4.8 16c0.854 2.748 1.345 5.907 1.345 9.181 0 14.033-9.032 25.955-21.6 30.272l-0.225 0.067zM243.36 131.84c-3.777-5.187-6.043-11.686-6.043-18.714 0-10.626 5.18-20.043 13.152-25.863l0.091-0.063 12.96-9.44c5.187-3.777 11.686-6.043 18.714-6.043 10.626 0 20.043 5.18 25.863 13.152l0.063 0.091 47.040 64-64.8 47.040zM470.88 32c0-17.673 14.327-32 32-32v0h16c17.673 0 32 14.327 32 32v0 80h-80z" />
<glyph unicode="&#xe926;" glyph-name="filter-stack" d="M384 160h256v64h-256zM128 736v-64h768v64zM256 416h512v64h-512z" />
<glyph unicode="&#xe927;" glyph-name="expand" d="M466.72 357.44l-45.28 45.28-229.44-229.44v178.72h-64v-288h288v64h-178.72l229.44 229.44zM608 832v-64h178.72l-229.44-229.44 45.28-45.28 229.44 229.44v-178.72h64v288h-288z" />
<glyph unicode="&#xe928;" glyph-name="cloud" d="M651.52 768c0.080 0 0.175 0 0.27 0 10.938 0 21.631-1.048 31.984-3.050l-1.053 0.17c92.64-17.6 156.48-112 148.48-218.080l-3.040-40.32 35.040-20c58.228-33.712 96.772-95.715 96.772-166.72 0-106.029-85.945-191.984-191.97-192h-560.001c-80 0-144 57.44-144 128 2.394 56.896 40.942 104.175 93.159 119.606l0.921 0.234 48 16-3.52 49.6c-0.351 4.106-0.55 8.885-0.55 13.711 0 10.878 1.015 21.518 2.957 31.832l-0.166-1.062c16.32 88.96 103.040 154.080 205.6 154.080 6.080 0 12.32 0 18.4 0l39.040-2.88 20.32 33.44c33.628 56.948 93.791 95.105 163.036 97.431l0.324 0.009zM651.52 832c-92.824-2.302-173.289-53.088-217.259-127.904l-0.661-1.216q-11.68 1.12-23.2 1.12c-131.2 0-245.92-83.84-269.12-206.24-2.548-13.028-4.007-28.010-4.007-43.331 0-6.148 0.235-12.24 0.696-18.27l-0.049 0.801c-79.045-24.257-135.886-95.706-137.916-180.728l-0.004-0.232c0-106.080 93.12-192 208-192h560c141.186 0.264 255.537 114.778 255.537 256 0 94.523-51.228 177.081-127.436 221.424l-1.221 0.656c10.4 137.6-73.92 261.76-200.32 285.76-12.921 2.607-27.791 4.119-43.007 4.16h-0.033z" />
<glyph unicode="&#xe929;" glyph-name="plus-circle" d="M806.080 742.080c-75.281 75.279-179.279 121.84-294.153 121.84-229.75 0-416-186.25-416-416s186.25-416 416-416c114.873 0 218.872 46.561 294.153 121.84v0c75.594 75.139 122.38 179.186 122.38 294.16s-46.787 219.021-122.36 294.14l-0.021 0.020zM760.96 199.040c-63.705-63.734-151.729-103.157-248.96-103.157-194.404 0-352 157.596-352 352s157.596 352 352 352c194.363 0 351.933-157.529 352-351.877v-0.006c0.001-0.31 0.002-0.677 0.002-1.045 0-96.881-39.39-184.562-103.028-247.902l-0.013-0.013zM544 640h-64v-160h-160v-64h160v-160h64v160h160v64h-160z" />
<glyph unicode="&#xe92a;" glyph-name="search" d="M668.16 336c42.097 51.742 67.595 118.456 67.595 191.125 0 167.895-136.105 304-304 304s-304-136.105-304-304c0-167.895 136.105-304 304-304 72.669 0 139.383 25.498 191.683 68.035l-0.558-0.44 216.32-215.52c5.792-5.798 13.797-9.385 22.64-9.385s16.848 3.587 22.64 9.385v0c5.798 5.792 9.385 13.797 9.385 22.64s-3.587 16.848-9.385 22.64v0zM463.2 289.6c-9.37-1.296-20.196-2.036-31.195-2.036-132.548 0-240 107.452-240 240s107.452 240 240 240c132.548 0 240-107.452 240-240 0-11.13-0.758-22.083-2.224-32.81l0.139 1.246c-14.688-107.671-99.006-191.88-205.483-206.263l-1.237-0.137z" />
<glyph unicode="&#xe92b;" glyph-name="calendar" d="M832 800h-128v32c0 17.673-14.327 32-32 32s-32-14.327-32-32v0-32h-256v32c0 17.673-14.327 32-32 32s-32-14.327-32-32v0-32h-128c-35.346 0-64-28.654-64-64v0-608c0-35.346 28.654-64 64-64v0h640c35.346 0 64 28.654 64 64v0 608c0 35.346-28.654 64-64 64v0zM832 128h-640v416h640zM832 608h-640v128h128v-32c0-17.673 14.327-32 32-32s32 14.327 32 32v0 32h256v-32c0-17.673 14.327-32 32-32s32 14.327 32 32v0 32h128z" />
<glyph unicode="&#xe92c;" glyph-name="search-right" d="M139.52 120.64c-5.798-5.792-9.385-13.797-9.385-22.64s3.587-16.848 9.385-22.64v0c5.792-5.798 13.797-9.385 22.64-9.385s16.848 3.587 22.64 9.385l216.16 216.32c51.742-42.097 118.456-67.595 191.125-67.595 167.895 0 304 136.105 304 304s-136.105 304-304 304c-167.895 0-304-136.105-304-304 0-72.669 25.498-139.383 68.035-191.683l-0.44 0.558zM353.92 496c-1.347 9.553-2.117 20.589-2.117 31.803 0 132.548 107.452 240 240 240s240-107.452 240-240c0-132.548-107.452-240-240-240-11.215 0-22.25 0.769-33.056 2.258l1.252-0.141c-107.353 14.758-191.322 98.727-205.939 204.828l-0.141 1.252z" />
<glyph unicode="&#xe92d;" glyph-name="refresh" d="M512 768c117.694-0.125 220.496-63.768 275.983-158.49l0.817-1.51h-148.8c-17.673 0-32-14.327-32-32v0 0c0-17.673 14.327-32 32-32v0h256v256c0 17.673-14.327 32-32 32v0 0c-17.673 0-32-14.327-32-32v0-139.84c-69.798 104.045-186.967 171.608-319.915 171.608-200.731 0-365.49-154.019-382.544-350.327l-0.101-1.441h64c16.804 162.421 152.935 288 318.396 288 0.058 0 0.115 0 0.173 0h-0.009zM512 128c-117.694 0.125-220.496 63.768-275.983 158.49l-0.817 1.51h148.8c17.673 0 32 14.327 32 32v0 0c0 17.673-14.327 32-32 32v0h-256v-256c0-17.673 14.327-32 32-32v0 0c17.673 0 32 14.327 32 32v0 139.84c69.798-104.045 186.967-171.608 319.915-171.608 200.731 0 365.49 154.019 382.544 350.327l0.101 1.441h-64c-16.804-162.421-152.935-288-318.396-288-0.058 0-0.115 0-0.173 0h0.009z" />
<glyph unicode="&#xe92e;" glyph-name="briefcase" d="M864 672h-160v48c0 53.019-42.981 96-96 96v0h-192c-53.019 0-96-42.981-96-96v0-48h-160c-35.346 0-64-28.654-64-64v0-480c0-35.346 28.654-64 64-64v0h704c35.346 0 64 28.654 64 64v0 480c0 35.346-28.654 64-64 64v0zM384 720c0 17.673 14.327 32 32 32v0h192c17.673 0 32-14.327 32-32v0-48h-256zM864 128h-704v480h704z" />
<glyph unicode="&#xe92f;" glyph-name="calendar-check" d="M832 832h-128v32c0 17.673-14.327 32-32 32s-32-14.327-32-32v0-32h-256v32c0 17.673-14.327 32-32 32s-32-14.327-32-32v0-32h-128c-35.346 0-64-28.654-64-64v0-640c0-35.346 28.654-64 64-64v0h640c35.346 0 64 28.654 64 64v0 640c0 35.346-28.654 64-64 64v0zM832 128h-640v448h640zM832 640h-640v128h128v-32c0-17.673 14.327-32 32-32s32 14.327 32 32v0 32h256v-32c0-17.673 14.327-32 32-32s32 14.327 32 32v0 32h128zM480 210.72l246.56 246.72-45.12 45.12-201.44-201.28-105.44 105.28-45.12-45.12 150.56-150.72z" />
<glyph unicode="&#xe930;" glyph-name="calendar-day" d="M832 832h-128v32c0 17.673-14.327 32-32 32s-32-14.327-32-32v0-32h-256v32c0 17.673-14.327 32-32 32s-32-14.327-32-32v0-32h-128c-35.346 0-64-28.654-64-64v0-640c0-35.346 28.654-64 64-64v0h640c35.346 0 64 28.654 64 64v0 640c0 35.346-28.654 64-64 64v0zM832 128h-640v448h640zM832 640h-640v128h128v-32c0-17.673 14.327-32 32-32s32 14.327 32 32v0 32h256v-32c0-17.673 14.327-32 32-32s32 14.327 32 32v0 32h128zM608 369.12v-145.12h64v224h-55.2s-6.4-9.76-8.64-12.8c-8.213-10.543-17.534-19.661-27.937-27.408l-0.383-0.272c-10.303-7.612-22.157-13.997-34.873-18.576l-0.967-0.304v-51.52c20.782 6.452 38.865 14.989 55.448 25.655l-0.888-0.535c3.579 2.283 6.659 4.549 9.582 6.995l-0.142-0.115zM376.16 362.24c3.44 2.282 6.415 4.545 9.237 6.979l-0.117-0.099v-145.12h64v224h-54.88s-6.4-9.76-8.64-12.8c-8.213-10.543-17.534-19.661-27.937-27.408l-0.383-0.272c-10.767-7.851-23.15-14.452-36.415-19.2l-1.025-0.32v-52c21.393 6.715 40.004 15.63 57.026 26.772l-0.866-0.532z" />
<glyph unicode="&#xe931;" glyph-name="calculate-n" d="M768 480c-0.908 0.024-1.978 0.038-3.050 0.038-35.898 0-68.168-15.535-90.454-40.25l-0.096-0.108v0.8c0.102 0.982 0.16 2.122 0.16 3.275 0 18.557-15.043 33.6-33.6 33.6s-33.6-15.043-33.6-33.6c0-1.153 0.058-2.293 0.172-3.417l-0.012 0.141v-276.8c-0.015-0.382-0.024-0.83-0.024-1.28 0-18.951 15.324-34.322 34.256-34.4h0.007c18.392 0.329 33.175 15.316 33.175 33.755 0 0.677-0.020 1.35-0.059 2.017l0.004-0.092v161.6c0 51.84 33.12 88.16 80 88.16s73.6-30.72 73.6-84.48v-165.28c0-18.468 14.972-33.44 33.44-33.44s33.44 14.972 33.44 33.44v0 176.96c0.64 84.64-49.44 139.36-127.36 139.36zM896 768h-368c-13.492-0.041-25.015-8.426-29.685-20.263l-0.075-0.217-202.88-521.28-93.44 128c-5.785 8.262-15.212 13.631-25.9 13.76h-64.020c-17.673 0-32-14.327-32-32s14.327-32 32-32v0h48l118.4-162.88c5.842-7.93 15.116-13.040 25.587-13.12h4.173c11.749 1.614 21.353 9.407 25.524 19.943l0.076 0.217 216.16 555.84h346.080c17.673 0 32 14.327 32 32s-14.327 32-32 32v0z" />
<glyph unicode="&#xe932;" glyph-name="send" d="M886.56 854.56c-5.793 5.805-13.803 9.396-22.651 9.396-3.336 0-6.552-0.51-9.576-1.457l0.227 0.061-736-224c-13.225-4.13-22.656-16.266-22.656-30.605 0-11.295 5.852-21.223 14.69-26.918l0.126-0.076 307.52-194.72 194.72-307.36c5.765-9 15.713-14.88 27.035-14.88 0.002 0 0.003 0 0.005 0h4.32c12.563 1.715 22.698 10.511 26.339 22.173l0.061 0.227 224 736c0.886 2.797 1.396 6.014 1.396 9.35 0 8.928-3.656 17.001-9.552 22.806l-0.004 0.004zM629.76 172l-147.68 232.96 173.92 174.080c4.326 5.409 6.941 12.35 6.941 19.901 0 17.673-14.327 32-32 32-7.552 0-14.492-2.616-19.965-6.991l0.064 0.049-174.080-173.92-232.96 147.68 612 186.24z" />
<glyph unicode="&#xe933;" glyph-name="star-fill" d="M512 848c-19.052-0.148-35.448-11.374-43.076-27.547l-0.124-0.293-97.92-215.2-234.88-26.56c-23.651-3.231-41.679-23.301-41.679-47.582 0-13.697 5.737-26.053 14.939-34.799l0.020-0.019 174.4-160-48-231.52c-0.503-2.61-0.791-5.611-0.791-8.679 0-26.51 21.49-48 48-48 8.382 0 16.262 2.148 23.119 5.924l-0.248-0.125 206.24 117.12 205.6-116.64c6.609-3.651 14.489-5.799 22.871-5.799 26.51 0 48 21.49 48 48 0 3.068-0.288 6.070-0.838 8.978l0.047-0.299-47.36 231.040 174.4 160c9.135 8.753 14.812 21.053 14.812 34.678 0 24.229-17.951 44.264-41.279 47.533l-235.133 26.749-97.92 215.2c-7.752 16.466-24.148 27.692-43.18 27.84h-0.020z" />
<glyph unicode="&#xe934;" glyph-name="download" d="M760.96 472.96l-45.28 45.28-171.68-171.68v549.44h-64v-549.44l-171.68 171.68-45.28-45.28 248.96-248.96zM832 256v-128h-640v128h-64v-128c0-35.346 28.654-64 64-64v0h640c35.346 0 64 28.654 64 64v0 128z" />
<glyph unicode="&#xe935;" glyph-name="smiley" d="M384 464c35.346 0 64 28.654 64 64s-28.654 64-64 64c-35.346 0-64-28.654-64-64v0c0-35.346 28.654-64 64-64v0zM692 360.96c-5.426 4.372-12.403 7.018-19.998 7.018-10.067 0-19.049-4.649-24.915-11.917l-0.048-0.061s-55.040-68-135.040-68-134.4 67.2-135.040 68c-5.905 6.885-14.614 11.22-24.335 11.22-17.673 0-32-14.327-32-32 0-7.249 2.41-13.935 6.473-19.3l-0.058 0.080c3.040-3.68 74.88-92 184.96-92s181.92 88.32 184.96 92c4.372 5.426 7.018 12.403 7.018 19.998 0 10.067-4.649 19.049-11.917 24.915l-0.061 0.048zM640 592c-35.346 0-64-28.654-64-64s28.654-64 64-64c35.346 0 64 28.654 64 64v0c0 35.346-28.654 64-64 64v0zM512 864c-229.75 0-416-186.25-416-416s186.25-416 416-416c229.75 0 416 186.25 416 416v0c0 229.75-186.25 416-416 416v0zM512 96c-194.404 0-352 157.596-352 352s157.596 352 352 352c194.404 0 352-157.596 352-352v0c0-194.404-157.596-352-352-352v0z" />
<glyph unicode="&#xe936;" glyph-name="redo" d="M480 832c156.71-0.122 291.441-94.097 351.031-228.748l0.969-2.452v231.2h64v-352h-352v64h241.12c-41.972 131.135-162.788 224.413-305.39 224.413-176.731 0-320-143.269-320-320 0-171.198 134.439-310.997 303.504-319.582l0.766-0.031v-64c-201.682 12.79-360.414 179.496-360.414 383.275 0 209.41 167.625 379.669 376.017 383.919l0.397 0.006z" />
<glyph unicode="&#xe937;" glyph-name="trashcan" d="M608 224c17.673 0 32 14.327 32 32v0 288c0 17.673-14.327 32-32 32s-32-14.327-32-32v0-288c0-17.673 14.327-32 32-32v0zM864 736h-160v80c0 26.51-21.49 48-48 48v0h-288c-26.51 0-48-21.49-48-48v0-80h-160c-17.673 0-32-14.327-32-32s14.327-32 32-32v0h35.040l28.96-608h576l28.96 608h35.040c17.673 0 32 14.327 32 32s-14.327 32-32 32v0zM384 800h256v-64h-256zM739.040 128h-454.080l-25.76 544h505.6zM416 224c17.673 0 32 14.327 32 32v0 288c0 17.673-14.327 32-32 32s-32-14.327-32-32v0-288c0-17.673 14.327-32 32-32v0z" />
<glyph unicode="&#xe938;" glyph-name="undo" d="M544 832c-156.811-0.21-291.576-94.38-351.033-229.222l-0.967-2.458v231.68h-64v-352h352v64h-241.12c42.224 130.714 162.832 223.6 305.135 223.6 176.731 0 320-143.269 320-320 0-171.108-134.298-310.85-303.237-319.568l-0.778-0.032v-64c208.654 4.484 376.083 174.69 376.083 384 0 212.123-171.96 384.083-384.083 384.083-2.813 0-5.619-0.030-8.417-0.090l0.417 0.007z" />
<glyph unicode="&#xe939;" glyph-name="credit-card" d="M848 768h-672c-53.019 0-96-42.981-96-96v0-448c0-53.019 42.981-96 96-96v0h672c53.019 0 96 42.981 96 96v0 448c0 53.019-42.981 96-96 96v0zM880 224c0-17.673-14.327-32-32-32v0h-672c-17.673 0-32 14.327-32 32v0 280h736zM880 568h-736v104c0 17.673 14.327 32 32 32v0h672c17.673 0 32-14.327 32-32v0z" />
<glyph unicode="&#xe93a;" glyph-name="star" d="M926.080 547.040c-7.843 23.638-28.46 40.93-53.464 43.812l-0.296 0.028-213.28 24.16-88.8 195.52c-10.333 22.286-32.514 37.465-58.24 37.465s-47.907-15.179-58.075-37.070l-0.165-0.395-88.8-195.52-213.44-24.16c-32.142-3.711-56.864-30.769-56.864-63.601 0-18.704 8.023-35.533 20.816-47.235l0.049-0.044 158.4-144.96-43.040-210.24c-0.82-3.844-1.29-8.26-1.29-12.786 0-35.346 28.654-64 64-64 11.592 0 22.464 3.082 31.841 8.471l-0.311-0.165 186.88 105.92 186.72-105.92c9.066-5.224 19.938-8.306 31.53-8.306 35.346 0 64 28.654 64 64 0 4.526-0.47 8.942-1.363 13.202l0.073-0.417-42.88 210.4 158.4 144.8c12.779 11.74 20.759 28.529 20.759 47.182 0 7.099-1.156 13.928-3.29 20.309l0.131-0.452zM680 357.92l50.4-245.92-218.4 123.84-218.4-123.84 50.4 245.92-185.28 170.080 249.44 28.16 103.84 227.84 103.84-228.48 249.44-27.52z" />
<glyph unicode="&#xe93b;" glyph-name="info" d="M512 864c-229.75 0-416-186.25-416-416s186.25-416 416-416c229.75 0 416 186.25 416 416v0c0 229.75-186.25 416-416 416v0zM512 96c-194.404 0-352 157.596-352 352s157.596 352 352 352c194.404 0 352-157.596 352-352v0c0-194.404-157.596-352-352-352v0zM512 464c-22.091 0-40-17.909-40-40v0-176c0-22.091 17.909-40 40-40s40 17.909 40 40v0 176c0 22.091-17.909 40-40 40v0zM512 648c-30.928 0-56-25.072-56-56s25.072-56 56-56c30.928 0 56 25.072 56 56v0c0 30.928-25.072 56-56 56v0z" />
<glyph unicode="&#xe93c;" glyph-name="paperclip" d="M828.96 803.84c-42.778 37.532-99.206 60.429-160.982 60.429-68.572 0-130.554-28.212-174.973-73.663l-0.045-0.047-368-368c-5.798-5.792-9.385-13.797-9.385-22.64s3.587-16.848 9.385-22.64v0c5.792-5.798 13.797-9.385 22.64-9.385s16.848 3.587 22.64 9.385v0l369.76 369.28c32.6 33.361 78.046 54.049 128.324 54.049 42.385 0 81.335-14.702 112.031-39.284l-0.355 0.275c39.306-32.519 64.161-81.306 64.161-135.897 0-48.587-19.688-92.576-51.522-124.423l-247.519-247.359-33.12-33.92-89.6-88.64c-20.843-21.45-49.964-34.76-82.195-34.76-25.547 0-49.14 8.362-68.193 22.498l0.308-0.218c-26.8 20.674-43.894 52.798-43.894 88.914 0 30.953 12.556 58.973 32.853 79.245l192.321 192.321 122.4 122.88c8.978 9.315 21.563 15.1 35.5 15.1 9.738 0 18.815-2.824 26.459-7.698l-0.199 0.119c12.991-8.727 21.425-23.365 21.425-39.972 0-13.258-5.375-25.261-14.065-33.947v0l-248.16-248.96c-5.798-5.792-9.385-13.797-9.385-22.64s3.587-16.848 9.385-22.64v0c5.792-5.798 13.797-9.385 22.64-9.385s16.848 3.587 22.64 9.385l245.76 246.080c21.45 20.843 34.76 49.964 34.76 82.195 0 25.547-8.362 49.14-22.498 68.193l0.218-0.308c-20.674 26.8-52.798 43.894-88.914 43.894-30.953 0-58.973-12.556-79.245-32.853l-312.641-312.801c-33.361-32.6-54.049-78.046-54.049-128.324 0-42.385 14.702-81.335 39.284-112.031l-0.275 0.355c32.518-39.255 81.273-64.073 135.825-64.073 48.623 0 92.641 19.717 124.494 51.592l372.801 372.641c43.401 43.426 70.243 103.406 70.243 169.655 0 70.52-30.415 133.935-78.842 177.845l-0.201 0.18z" />
<glyph unicode="&#xe93d;" glyph-name="calculate-percent" d="M304 512c79.529 0 144 64.471 144 144s-64.471 144-144 144c-79.529 0-144-64.471-144-144v0c0-79.529 64.471-144 144-144v0zM304 736c44.183 0 80-35.817 80-80s-35.817-80-80-80c-44.183 0-80 35.817-80 80v0c0 44.183 35.817 80 80 80v0zM822.56 758.56c-5.784 5.751-13.757 9.305-22.56 9.305s-16.776-3.555-22.562-9.307l-575.998-575.998c-6.865-5.904-11.185-14.6-11.185-24.305 0-17.673 14.327-32 32-32 9.705 0 18.401 4.321 24.27 11.143l0.035 0.042 576 576c5.751 5.784 9.305 13.757 9.305 22.56s-3.555 16.776-9.307 22.562l0.002-0.002zM720 384c-79.529 0-144-64.471-144-144s64.471-144 144-144c79.529 0 144 64.471 144 144v0c0 79.529-64.471 144-144 144v0zM720 160c-44.183 0-80 35.817-80 80s35.817 80 80 80c44.183 0 80-35.817 80-80v0c0-44.183-35.817-80-80-80v0z" />
<glyph unicode="&#xe93e;" glyph-name="format-text" d="M547.040 386.4l51.84 64c4.764 5.461 7.711 12.614 7.84 20.453v0.027c-0.268 13.876-11.537 25.033-25.432 25.12h-0.008c-10.921-0.045-20.507-5.723-26.006-14.277l-0.074-0.123-43.2-56.16-43.040 57.28c-5.127 8.031-13.993 13.28-24.085 13.28-0.026 0-0.053 0-0.079 0h0.004c-0.193 0.005-0.42 0.008-0.648 0.008-14.669 0-26.56-11.891-26.56-26.56 0-0.228 0.003-0.455 0.009-0.681l-0.001 0.034c0.33-7.681 3.239-14.624 7.878-20.045l-0.038 0.045 51.68-63.040-55.040-67.52c-4.764-5.461-7.711-12.614-7.84-20.453v-0.027c0-0.048-0.001-0.104-0.001-0.16 0-14.082 11.371-25.509 25.432-25.599h0.009c10.875 0.228 20.39 5.846 26.006 14.283l0.074 0.117 46.24 59.52 46.24-60.8c5.142-7.947 13.96-13.132 23.99-13.132 0.285 0 0.568 0.004 0.851 0.012l-0.042-0.001c0.193-0.005 0.42-0.008 0.648-0.008 14.669 0 26.56 11.891 26.56 26.56 0 0.228-0.003 0.455-0.009 0.681l0.001-0.034c-0.317 7.683-3.229 14.63-7.877 20.044l0.037-0.044zM364.64 494.24h-136.32c-13.327-1.084-23.731-12.167-23.731-25.68s10.405-24.596 23.64-25.674l0.092-0.006h40.64v-144c0-15.199 12.321-27.52 27.52-27.52s27.52 12.321 27.52 27.52v0 144h40.64c13.327 1.084 23.731 12.167 23.731 25.68s-10.405 24.596-23.64 25.674l-0.092 0.006zM633.76 468.48c0-14.227 11.533-25.76 25.76-25.76v0h40.64v-144c0-15.199 12.321-27.52 27.52-27.52s27.52 12.321 27.52 27.52v144h40.64c13.327 1.084 23.731 12.167 23.731 25.68s-10.405 24.596-23.64 25.674l-0.092 0.006h-136.48c-14.102-0.090-25.51-11.498-25.6-25.591v-0.009zM909.28 656l-157.28 157.28c-11.579 11.567-27.569 18.72-45.23 18.72-0.018 0-0.035 0-0.053 0h-562.717c-26.51 0-48-21.49-48-48v0-672c0-26.51 21.49-48 48-48v0h736c26.51 0 48 21.49 48 48v0 498.72c0 0.015 0 0.033 0 0.050 0 17.661-7.153 33.65-18.721 45.23l0.001-0.001zM736 738.72l98.72-98.72h-98.72zM864 128h-704v640h512v-128c0-35.346 28.654-64 64-64v0h128z" />
<glyph unicode="&#xe93f;" glyph-name="cloud-download" d="M688.96 293.76c-5.178 3.514-11.566 5.61-18.443 5.61-9.416 0-17.914-3.929-23.945-10.238l-102.572-102.572v325.44c0 17.673-14.327 32-32 32s-32-14.327-32-32v0-325.44l-102.56 102.56c-6.042 6.321-14.54 10.25-23.957 10.25-6.878 0-13.265-2.096-18.56-5.685l0.116 0.074c-7.978-5.889-13.095-15.256-13.095-25.819 0-8.617 3.406-16.438 8.945-22.191l-0.010 0.010 181.12-181.76 180.96 180.96c5.844 5.8 9.462 13.836 9.462 22.717 0 10.721-5.273 20.211-13.366 26.018l-0.096 0.065zM892.48 579.84c2.137 10.485 3.414 22.58 3.519 34.955l0.001 0.085c0 120-111.040 217.12-248 217.12-1.714 0.041-3.733 0.065-5.758 0.065-87.898 0-165.41-44.466-211.27-112.13l-0.572-0.895c-7.52 0.96-14.4 0.96-22.4 0.96-145.76 0-264-103.52-264-231.2 0-3.52 0-7.040 0-10.56-82.72-16-144-80-144-157.28 0-86.56 78.080-156.96 176-160v0h128l-64 64h-61.6c-63.040 1.76-114.4 45.12-114.4 96.16 0 44.48 38.88 84.16 92.64 94.4l54.72 10.4-3.36 55.68c0 1.76 0 3.68 0 5.44v1.76c0 92.16 89.76 167.2 200 167.2 5.76 0 11.84 0 17.6-0.8l38.56-2.88 20.48 32c35.053 50.842 92.968 83.74 158.568 83.74 1.685 0 3.365-0.022 5.040-0.065l-0.247 0.005c101.44 0 184-68.64 184-153.12-0.122-8.169-0.99-16.059-2.539-23.702l0.139 0.822-8.96-48 43.36-21.6c59.040-28.8 96-81.76 96-138.24 0-83.52-77.28-152.32-176-160l-64-64h48c141.44 0 256 100.32 256 224 0 84.16-53.12 157.44-131.52 195.68z" />
<glyph unicode="&#xe940;" glyph-name="paper" d="M589.44 832h-349.44c-26.51 0-48-21.49-48-48v0-672c0-26.51 21.49-48 48-48v0h544c26.51 0 48 21.49 48 48v0 470.72c-0.012 13.25-5.391 25.241-14.079 33.919l-205.921 205.921c-5.767 5.8-13.739 9.402-22.553 9.44h-0.007zM576 576v192l192-192zM256 128v640h256v-256h256v-384z" />
<glyph unicode="&#xe941;" glyph-name="vertical-bar" d="M160 512h128c17.673 0 32-14.327 32-32v-384c0-17.673-14.327-32-32-32h-128c-17.673 0-32 14.327-32 32v384c0 17.673 14.327 32 32 32zM448 832h128c17.673 0 32-14.327 32-32v-704c0-17.673-14.327-32-32-32h-128c-17.673 0-32 14.327-32 32v704c0 17.673 14.327 32 32 32zM736 672h128c17.673 0 32-14.327 32-32v-544c0-17.673-14.327-32-32-32h-128c-17.673 0-32 14.327-32 32v544c0 17.673 14.327 32 32 32z" />
<glyph unicode="&#xe942;" glyph-name="person-fill" d="M512 496c92.784 0 168 75.216 168 168s-75.216 168-168 168c-92.784 0-168-75.216-168-168v0c0-92.784 75.216-168 168-168v0zM608 400h-192c-150.221 0-272-121.779-272-272v0c0-35.346 28.654-64 64-64v0h608c35.346 0 64 28.654 64 64v0c0 150.221-121.779 272-272 272v0z" />
<glyph unicode="&#xe943;" glyph-name="transaction" d="M512 80c-145.029 0.015-270.456 83.923-330.399 205.838l-0.961 2.162h75.36c17.673 0 32 14.327 32 32s-14.327 32-32 32v0h-192v-192c0-17.673 14.327-32 32-32s32 14.327 32 32v0 90.24c73.343-140.102 217.691-234.063 383.985-234.063 210.233 0 385.391 150.173 424.054 349.1l0.441 2.723h-65.28c-37.919-166.005-184.312-288-359.199-288 0 0-0.001 0-0.001 0v0zM928 768c-17.673 0-32-14.327-32-32v0-90.24c-73.343 140.102-217.691 234.063-383.985 234.063-210.233 0-385.391-150.173-424.054-349.1l-0.441-2.723h65.28c37.938 165.979 184.319 287.949 359.188 287.949 145.023 0 270.453-83.888 330.411-205.787l0.961-2.162h-75.36c-17.673 0-32-14.327-32-32s14.327-32 32-32v0h192v192c0 17.673-14.327 32-32 32v0zM520.16 362.4c-26.296 0.345-50.387 9.509-69.518 24.662l0.238-0.182c-5.479 4-12.348 6.4-19.778 6.4-0.022 0-0.044 0-0.065 0h0.003c-17.673 0-32-14.327-32-32v0c-0.002-0.132-0.003-0.288-0.003-0.445 0-10.644 5.197-20.074 13.191-25.892l0.092-0.064c19.179-14.165 41.857-24.86 66.433-30.633l1.247-0.247v-48c0-17.673 14.327-32 32-32s32 14.327 32 32v0 46.080c50.4 8.16 81.76 41.28 81.76 89.6 0 53.12-36.64 73.44-91.84 87.84-50.24 12.8-57.44 18.56-57.44 33.76 0 12.32 12.48 20.32 32 20.32 21.241-0.9 40.754-7.582 57.215-18.498l-0.415 0.258c4.97-3.114 11.009-4.96 17.48-4.96 0.042 0 0.084 0 0.127 0h-0.007c0.666-0.049 1.442-0.077 2.225-0.077 17.673 0 32 14.327 32 32 0 12.162-6.785 22.74-16.776 28.154l-0.169 0.084c-16.112 10.118-34.984 17.601-55.18 21.291l-0.98 0.149v48c0 17.673-14.327 32-32 32s-32-14.327-32-32v0-48c-41.446-6.938-72.641-42.543-72.641-85.434 0-0.171 0-0.342 0.001-0.513v0.026c0-60.16 41.44-75.68 96-89.44 45.92-11.84 53.44-19.040 53.44-32s-13.76-22.24-36.64-22.24z" />
<glyph unicode="&#xe944;" glyph-name="plant" d="M621.12 480c31.195-22.589 70.226-36.132 112.421-36.132 53.252 0 101.466 21.572 136.38 56.453l-0.001-0.001c69.28 69.92 88.16 303.040 90.080 329.44 0.054 0.696 0.085 1.507 0.085 2.325 0 17.673-14.327 32-32 32-0.818 0-1.629-0.031-2.431-0.091l0.107 0.006c-26.4-1.92-259.52-20.64-328.8-89.92-34.873-34.983-56.435-83.254-56.435-136.56 0-39.242 11.685-75.754 31.765-106.248l-0.45 0.728-45.44-124.64-92.32 82.56c16.486 27.046 26.246 59.759 26.246 94.753 0 50.927-20.672 97.026-54.083 130.364l-0.003 0.003c-66.080 66.080-288 83.84-312.48 85.76-0.7 0.055-1.516 0.086-2.34 0.086-8.833 0-16.83-3.579-22.621-9.366v0c-5.787-5.79-9.366-13.787-9.366-22.62 0-0.823 0.031-1.639 0.092-2.447l-0.007 0.108c1.76-24.96 19.68-246.4 85.76-312.48 33.428-33.361 79.573-53.99 130.536-53.99 44.32 0 84.996 15.602 116.835 41.612l-0.331-0.263 113.76-101.76-26.080-164.64c-66.839-4.103-128.509-22.697-183.055-52.655l2.255 1.135c-9.367-5.697-15.528-15.849-15.528-27.44 0-17.678 14.331-32.008 32.008-32.008 6.087 0 11.777 1.699 16.621 4.648l-0.141-0.080c50.642 27.312 110.836 43.362 174.779 43.362 0.43 0 0.859-0.001 1.288-0.002h-0.067c70.582-1.685 136.957-17.961 196.785-45.909l-3.025 1.269c4.172-2.131 9.1-3.38 14.32-3.38 17.684 0 32.020 14.336 32.020 32.020 0 12.465-7.122 23.266-17.519 28.556l-0.182 0.084c-54.009 25.712-116.781 43.398-182.893 49.591l-2.227 0.169 26.080 169.6zM190.56 499.36c-32 32-54.24 148.16-64 234.24 85.92-9.44 201.92-32 234.24-64 21.8-21.778 35.286-51.876 35.286-85.124 0-18.469-4.161-35.966-11.597-51.605l0.312 0.729-128 113.92c-5.649 5.045-13.145 8.129-21.36 8.129-17.744 0-32.129-14.384-32.129-32.129 0-9.529 4.148-18.089 10.737-23.972l0.031-0.028 128-115.2c-18.719-12.501-41.738-19.949-66.496-19.949-33.162 0-63.204 13.363-85.033 34.998l0.009-0.009zM642.080 728.64c34.56 34.56 160 58.080 250.56 68-9.76-91.2-33.28-215.84-68-250.56-23.353-23.289-55.581-37.689-91.172-37.689-27.89 0-53.715 8.843-74.823 23.877l0.396-0.268 157.76 131.36c7.587 5.909 12.421 15.046 12.421 25.311 0 17.673-14.327 32-32 32-8.233 0-15.739-3.109-21.41-8.217l0.029 0.025-158.24-131.84c-8.297 16.585-13.154 36.134-13.154 56.817 0 35.585 14.377 67.812 37.64 91.188l-0.005-0.005z" />
<glyph unicode="&#xe945;" glyph-name="format-word-fill" d="M864 832h-704c-35.346 0-64-28.654-64-64v0-640c0-35.346 28.654-64 64-64v0h704c35.346 0 64 28.654 64 64v0 640c0 35.346-28.654 64-64 64v0zM728 547.2c-21.28-89.92-42.72-179.68-64-269.6-2.080-9.28-5.28-13.92-16-13.44-19.68 0.96-39.52 0-59.2 0-9.12 0-12.32 3.2-14.4 11.84-21.6 90.56-43.52 181.12-64 267.040-19.36-86.080-40-176.8-60.16-267.52-0.356-6.518-5.728-11.668-12.303-11.668-0.971 0-1.915 0.112-2.821 0.324l0.083-0.016c-19.68 0-39.52 0.96-59.2 0-11.040 0-14.72 3.84-17.12 13.76q-26.72 116-54.88 232c-8.8 36.96-17.6 74.080-26.4 111.040 0 2.88-0.8 5.76-1.6 10.56 23.36 0 46.080 0 68.48 0 2.56 0 6.24-7.36 7.2-11.68 7.2-32 13.92-65.28 20.48-97.92q16-80 32-160.8c0.96-4.96 1.44-9.92 2.080-16 7.84 34.72 16 68.8 23.36 102.88 13.12 57.12 26.4 114.080 39.2 171.2 2.080 9.44 6.080 13.44 16 12.96 7.886-0.439 17.114-0.69 26.4-0.69s18.514 0.25 27.677 0.745l-1.277-0.055c0.68 0.119 1.463 0.187 2.262 0.187 7.328 0 13.317-5.728 13.737-12.95l0.002-0.037c16-64 31.2-128.8 46.56-193.28 6.4-26.56 12.48-53.28 18.080-77.76 17.28 90.080 34.88 182.24 52.96 274.4 1.276 4.066 4.414 7.204 8.389 8.455l0.091 0.025c20.96 0 41.92 0 65.44 0-4.48-29.28-10.72-56.64-17.12-84z" />
<glyph unicode="&#xe946;" glyph-name="report" d="M368 544h94.24c0.385-0.016 0.837-0.025 1.291-0.025 15.979 0 29.315 11.316 32.432 26.371l0.037 0.214c0.297 1.637 0.466 3.52 0.466 5.443 0 17.673-14.327 32-32 32-0.164 0-0.328-0.001-0.491-0.004h-94.215c-0.385 0.016-0.837 0.025-1.291 0.025-15.979 0-29.315-11.316-32.432-26.371l-0.037-0.214c-0.297-1.637-0.466-3.52-0.466-5.443 0-17.673 14.327-32 32-32 0.164 0 0.328 0.001 0.491 0.004h-0.025zM656 288h-286.24c-0.385 0.016-0.837 0.025-1.291 0.025-15.979 0-29.315-11.316-32.432-26.371l-0.037-0.214c-0.297-1.637-0.466-3.52-0.466-5.443 0-17.673 14.327-32 32-32 0.164 0 0.328 0.001 0.491 0.004h286.215c0.385-0.016 0.837-0.025 1.291-0.025 15.979 0 29.315 11.316 32.432 26.371l0.037 0.214c0.297 1.637 0.466 3.52 0.466 5.443 0 17.673-14.327 32-32 32-0.164 0-0.328-0.001-0.491-0.004h0.025zM817.92 667.36l-150.56 150.56c-8.679 8.689-20.67 14.068-33.918 14.080h-393.442c-26.51 0-48-21.49-48-48v0-672c0-26.51 21.49-48 48-48v0h544c26.51 0 48 21.49 48 48v0 521.44c-0.012 13.25-5.391 25.241-14.079 33.919l-0.001 0.001zM768 128h-512v640h304v-208h208zM768 624h-144v144h2.72l141.28-141.28zM336 410.56c3.154-15.27 16.49-26.585 32.469-26.585 0.454 0 0.906 0.009 1.356 0.027l-0.065-0.002h284.48c0.385-0.016 0.837-0.025 1.291-0.025 15.979 0 29.315 11.316 32.432 26.371l0.037 0.214c0.297 1.637 0.466 3.52 0.466 5.443 0 17.673-14.327 32-32 32-0.164 0-0.328-0.001-0.491-0.004h-287.975c-0.139 0.002-0.302 0.003-0.466 0.003-17.673 0-32-14.327-32-32 0-1.923 0.17-3.807 0.495-5.637l-0.028 0.193z" />
<glyph unicode="&#xe947;" glyph-name="people" d="M704 528c88.366 0 160 71.634 160 160s-71.634 160-160 160c-88.366 0-160-71.634-160-160v0c0-88.366 71.634-160 160-160v0zM704 784c53.019 0 96-42.981 96-96s-42.981-96-96-96c-53.019 0-96 42.981-96 96v0c0 53.019 42.981 96 96 96v0zM328 464c88.366 0 160 71.634 160 160s-71.634 160-160 160c-88.366 0-160-71.634-160-160v0c0-88.366 71.634-160 160-160v0zM328 720c53.019 0 96-42.981 96-96s-42.981-96-96-96c-53.019 0-96 42.981-96 96v0c0 53.019 42.981 96 96 96v0zM720 464h-48c-0.061 0-0.133 0-0.205 0-56.746 0-108.871-19.787-149.852-52.837l0.457 0.357c18.649-12.911 34.94-26.967 49.613-42.562l0.147-0.158c27.826 19.524 62.397 31.2 99.695 31.2 0.051 0 0.102 0 0.153 0h47.992c97.202 0 176-78.798 176-176v0-64c0-17.673-14.327-32-32-32v0h-277.6c3.513 9.52 5.562 20.515 5.6 31.983v0.017c0 132.548-107.452 240-240 240v0h-48c-132.548 0-240-107.452-240-240v0c0-53.019 42.981-96 96-96v0h704c53.019 0 96 42.981 96 96v0 64c0 132.548-107.452 240-240 240v0zM496 128h-336c-17.673 0-32 14.327-32 32v0c0 97.202 78.798 176 176 176v0h48c97.202 0 176-78.798 176-176v0c0-17.673-14.327-32-32-32v0z" />
<glyph unicode="&#xe948;" glyph-name="bookmark-fill" d="M304 832c-26.51 0-48-21.49-48-48v0-672c0.036-26.482 21.513-47.936 48-47.936 9.427 0 18.22 2.718 25.637 7.412l-0.197-0.116 182.56 152.64 182.56-152.64c7.22-4.578 16.013-7.296 25.44-7.296 26.487 0 47.964 21.454 48 47.933v672.003c0 26.51-21.49 48-48 48v0z" />
<glyph unicode="&#xe949;" glyph-name="line-chart-points" d="M864 832c-52.994-0.034-95.941-43.001-95.941-96 0-25.858 10.224-49.329 26.849-66.59l-0.029 0.030-143.040-286.24c-3.792 0.541-8.172 0.849-12.624 0.849-20.122 0-38.77-6.306-54.077-17.050l0.301 0.201-141.44 102.080c2.49 7.987 3.948 17.173 4 26.693v0.027c0 53.019-42.981 96-96 96s-96-42.981-96-96v0c0-0.046 0-0.099 0-0.153 0-23.937 8.849-45.808 23.455-62.518l-0.095 0.111-102.24-179.040c-5.124 0.974-11.039 1.555-17.081 1.6h-0.039c-0.012 0-0.025 0-0.039 0-53.019 0-96-42.981-96-96s42.981-96 96-96c53.019 0 96 42.981 96 96 0 24.032-8.83 46.001-23.423 62.84l0.102-0.12 102.24 178.88c5.124-0.974 11.039-1.555 17.081-1.6h0.039c20.416 0.034 39.329 6.436 54.869 17.325l-0.309-0.205 141.44-102.080c-2.521-8.089-3.982-17.39-4-27.031v-0.009c0-0.018 0-0.040 0-0.061 0-53.019 42.981-96 96-96s96 42.981 96 96c0 25.888-10.247 49.383-26.907 66.65l0.027-0.029 143.040 285.44c1.77-0.116 3.837-0.182 5.92-0.182 53.12 0 96.182 43.062 96.182 96.182 0 51.037-39.752 92.79-89.982 95.986l-0.28 0.014z" />
<glyph unicode="&#xe94a;" glyph-name="vertical-stacked-bar" d="M128 96c0-17.673 14.327-32 32-32v0h128c17.673 0 32 14.327 32 32v0 224h-192zM416 640h192v-384h-192v384zM608 800c0 17.673-14.327 32-32 32v0h-128c-17.673 0-32-14.327-32-32v0-96h192zM864 672h-128c-17.673 0-32-14.327-32-32v0-112h192v112c0 17.673-14.327 32-32 32v0zM288 512h-128c-17.673 0-32-14.327-32-32v0-96h192v96c0 17.673-14.327 32-32 32v0zM704 96c0-17.673 14.327-32 32-32v0h128c17.673 0 32 14.327 32 32v0 368h-192zM416 192v-96c0-17.673 14.327-32 32-32v0h128c17.673 0 32 14.327 32 32v0 96z" />
<glyph unicode="&#xe94b;" glyph-name="format-word" d="M627.84 560c-3.912-1.228-6.932-4.248-8.136-8.073l-0.024-0.087c-17.28-88.16-34.080-176-50.56-262.56-5.44 23.36-11.2 48.96-17.28 74.4-14.88 61.6-29.92 123.2-44.64 184.8-0.451 6.967-6.213 12.447-13.254 12.447-0.973 0-1.921-0.105-2.834-0.303l0.088 0.016c-7.527-0.418-16.336-0.656-25.2-0.656s-17.673 0.238-26.42 0.708l1.22-0.052c-9.92 0-13.6-3.36-16-12.32-12-55.36-24.8-109.92-37.12-164.32-7.52-32-14.88-65.12-22.4-98.4 0 5.28-1.12 10.080-2.080 14.88q-16 76.96-31.2 153.76c-6.4 32-12.8 62.4-19.68 93.6-0.96 4.16-4.32 11.2-6.88 11.2-21.6 0.96-43.2 0-65.6 0 0-4.64 0.8-7.36 1.44-10.080 8.32-35.36 16.96-70.72 25.28-106.24q26.24-111.040 52.16-222.080c2.24-9.44 5.76-13.6 16-13.12 18.88 0.96 37.76 0 56.64 0 0.775-0.181 1.665-0.284 2.579-0.284 6.301 0 11.453 4.923 11.819 11.132l0.002 0.032c19.36 86.88 39.040 173.6 57.6 256 19.84-82.080 40.96-168.64 61.6-256 1.92-8.32 4.96-11.68 13.76-11.36 18.88 0 37.76 0.8 56.64 0 10.080 0 13.12 4 15.2 12.8 20.16 86.080 40.64 171.84 60.96 257.92 6.24 26.24 12.16 52.48 18.72 80.8-22.4 1.44-42.4 1.44-62.4 1.44zM909.28 656l-157.28 157.28c-11.579 11.567-27.569 18.72-45.23 18.72-0.018 0-0.035 0-0.053 0h-562.717c-26.51 0-48-21.49-48-48v0-672c0-26.51 21.49-48 48-48v0h736c26.51 0 48 21.49 48 48v0 498.72c0 0.015 0 0.033 0 0.050 0 17.661-7.153 33.65-18.721 45.23l0.001-0.001zM736 738.72l98.72-98.72h-98.72zM864 128h-704v640h512v-128c0-35.346 28.654-64 64-64v0h128z" />
<glyph unicode="&#xe94c;" glyph-name="format-pdf-fill" d="M298.080 251.84c-0.476-1.303-0.751-2.807-0.751-4.376 0-3.677 1.512-7 3.949-9.382l0.002-0.002c2.562-2.882 6.279-4.688 10.418-4.688 2.019 0 3.938 0.43 5.67 1.203l-0.088-0.035c13.144 8.631 23.893 19.84 31.744 32.978l0.256 0.462c6.941 10.482 13.869 22.697 19.977 35.383l0.823 1.897c-14.628-6.827-26.901-13.707-38.62-21.363l1.18 0.723c-14.156-8.136-25.773-19.19-34.325-32.412l-0.235-0.388zM493.44 429.44c-7.84 7.84-14.72 16-21.28 23.84l-0.96 1.12c-1.92-10.4-4-21.12-6.88-32s-6.56-20.96-9.92-30.72v-0.8c10.080 3.52 20.32 7.2 32 10.080s21.44 4.96 32 6.88v0 0c-8.8 6.72-16.96 13.76-24.96 21.6zM429.44 658.24c-2.277 2.843-5.747 4.648-9.64 4.648-0.155 0-0.309-0.003-0.463-0.009l0.022 0.001h-3.36c-5.656-1.227-9.978-5.765-10.87-11.441l-0.010-0.079c0.924-16.308 5.618-31.34 13.217-44.482l-0.257 0.482c7.341-14.283 14.671-26.324 22.748-37.801l-0.668 1.001c0.465 6.414 0.729 13.896 0.729 21.44s-0.265 15.026-0.786 22.438l0.056-0.998c0.003 0.302 0.005 0.66 0.005 1.017 0 15.985-3.907 31.057-10.817 44.314l0.252-0.531zM677.12 376.96c-6.439 0.481-13.947 0.755-21.52 0.755s-15.081-0.274-22.516-0.813l0.996 0.058c10.486-7.323 22.581-14.603 35.159-21.077l1.801-0.843c12.899-7.631 28.317-12.369 44.793-12.955l0.167-0.005c4.987 0.918 8.925 4.589 10.219 9.349l0.021 0.091c0.585 1.48 0.925 3.195 0.925 4.988 0 4.466-2.103 8.441-5.373 10.988l-0.031 0.023c-12.352 5.977-26.864 9.47-42.192 9.47-0.861 0-1.719-0.011-2.575-0.033l0.127 0.003zM864 832h-704c-35.346 0-64-28.654-64-64v0-640c0-35.346 28.654-64 64-64v0h704c35.346 0 64 28.654 64 64v0 640c0 35.346-28.654 64-64 64v0zM773.76 338.72c-6.519-25.036-27.619-43.708-53.482-46.535l-0.278-0.025c-1.551-0.065-3.372-0.102-5.201-0.102-24.356 0-47.177 6.573-66.786 18.041l0.627-0.339c-31.844 17.095-59.311 35.883-84.549 57.224l0.709-0.584c-21.44-3.84-43.68-7.68-65.76-13.6s-43.68-13.76-64-21.28v0c-13.146-35.077-28.498-65.25-46.731-93.382l1.131 1.862c-12.895-21.606-31.038-38.877-52.714-50.369l-0.726-0.351c-7.018-3.234-15.229-5.121-23.88-5.121-0.099 0-0.197 0-0.296 0.001h0.015c-17.584 0.122-33.464 7.316-44.957 18.877l-0.003 0.003c-11.492 11.324-18.612 27.059-18.612 44.457 0 8.854 1.844 17.277 5.169 24.906l-0.156-0.402c11.829 22.314 29.106 40.361 50.104 52.783l0.616 0.337c26.066 16.816 56.029 31.955 87.576 43.865l3.304 1.095v1.44c7.36 20.16 15.040 41.12 20.8 62.88s9.92 44.64 13.76 66.4v0c-20.654 24.603-39.344 52.179-55.062 81.583l-1.258 2.577c-10.66 18.661-16.946 41.011-16.946 64.829 0 2.185 0.053 4.357 0.157 6.516l-0.012-0.305c4.942 30.854 31.369 54.145 63.237 54.145 20.111 0 38.056-9.276 49.789-23.784l0.095-0.121c12.847-20.020 20.48-44.452 20.48-70.667 0-0.019 0-0.037 0-0.056v0.003c0.288-6.193 0.452-13.453 0.452-20.751 0-28.45-2.493-56.318-7.271-83.397l0.419 2.868 2.24-2.72c13.44-16 27.2-32 42.56-48s33.12-30.4 49.76-44.32h0.8c24.735 4.519 53.201 7.103 82.27 7.103 6.742 0 13.451-0.139 20.125-0.414l-0.955 0.031c0.043 0 0.095 0 0.146 0 26.11 0 50.451-7.571 70.948-20.638l-0.534 0.318c15.353-11.498 25.182-29.644 25.182-50.086 0-5.978-0.841-11.76-2.41-17.234l0.108 0.44z" />
<glyph unicode="&#xe94d;" glyph-name="format-pdf" d="M880 832h-736c-26.51 0-48-21.49-48-48v0-672c0-26.51 21.49-48 48-48v0h736c26.51 0 48 21.49 48 48v0 672c0 26.51-21.49 48-48 48v0zM864 128h-704v640h704zM312.96 185.28c0.046 0 0.101 0 0.156 0 8.639 0 16.837 1.886 24.206 5.269l-0.362-0.149c22.235 11.873 40.221 29.14 52.622 50.102l0.338 0.618c16.703 26.064 31.691 56.039 43.413 87.601l1.067 3.279c20.48 7.52 41.6 16 64 21.12s43.84 9.76 64.96 13.44h0.96c24.603-20.654 52.179-39.344 81.583-55.062l2.577-1.258c18.728-10.959 41.238-17.43 65.258-17.43 2.202 0 4.392 0.054 6.568 0.162l-0.306-0.012c30.774 5.014 53.978 31.402 53.978 63.211 0 20.036-9.207 37.922-23.622 49.657l-0.117 0.092c-19.86 12.649-44.063 20.16-70.021 20.16-0.077 0-0.154 0-0.231 0h0.012c-5.883 0.26-12.783 0.408-19.718 0.408-28.704 0-56.816-2.535-84.124-7.393l2.883 0.425h-0.96c-16.8 14.4-34.080 28.48-50.080 44.48s-29.12 32-42.56 48l-2.24 2.56c4.353 24.148 6.842 51.943 6.842 80.32 0 7.203-0.16 14.368-0.478 21.493l0.036-1.012c0 0.037 0 0.081 0 0.125 0 26.063-7.572 50.358-20.636 70.804l0.316-0.529c-11.647 14.724-29.512 24.087-49.565 24.087-31.743 0-58.006-23.461-62.395-53.989l-0.040-0.338c-0.066-1.554-0.103-3.378-0.103-5.211 0-24.299 6.574-47.063 18.040-66.61l-0.336 0.621c16.933-31.858 35.569-59.328 56.763-84.578l-0.603 0.738c-3.84-21.6-7.68-44-13.6-66.080s-13.44-42.56-20.8-62.72v-1.12c-34.722-12.876-64.584-27.912-92.458-45.778l1.898 1.138c-21.71-12.569-39.092-30.464-50.694-51.94l-0.346-0.7c-3.177-7.214-5.025-15.625-5.025-24.468 0-17.441 7.192-33.201 18.772-44.478l0.014-0.013c11.29-11.441 26.847-18.649 44.087-19.039l0.073-0.001zM676.32 377.28c16.202-0.157 31.434-4.161 44.873-11.141l-0.553 0.261c3.147-2.572 5.141-6.455 5.141-10.802 0-1.514-0.242-2.972-0.689-4.336l0.028 0.098c-1.308-4.764-5.179-8.368-10.001-9.268l-0.079-0.012c-16.571 0.567-31.936 5.247-45.253 13.045l0.453-0.245c-14.263 7.282-26.252 14.508-37.701 22.457l1.061-0.697c7.435 0.636 16.088 0.998 24.827 0.998 6.295 0 12.546-0.188 18.747-0.559l-0.854 0.041zM454.56 391.2c3.52 9.76 7.040 20 9.92 30.72s4.96 21.6 6.88 32v0l0.96-1.12c6.56-7.84 13.44-16 21.12-23.68s16-14.88 24-21.6v0 0c-10.24-1.92-20.96-3.84-32-6.72s-21.12-6.56-31.2-10.080v0zM418.72 606.24c-7.351 12.606-12.047 27.586-12.948 43.58l-0.012 0.26c0.919 5.71 5.244 10.197 10.791 11.345l0.089 0.015h3.36c0.107 0.003 0.233 0.005 0.36 0.005 3.868 0 7.314-1.806 9.541-4.62l0.019-0.025c7.1-13.011 11.3-28.488 11.36-44.941v-0.019c0.465-6.366 0.73-13.792 0.73-21.28s-0.265-14.914-0.786-22.269l0.056 0.989c-7.615 10.571-15.1 22.661-21.744 35.263l-0.816 1.697zM299.2 252.64c8.605 13.215 19.884 23.982 33.134 31.748l0.466 0.252c10.455 6.887 22.624 13.714 35.271 19.694l1.849 0.786c-6.867-14.449-13.742-26.56-21.366-38.134l0.726 1.174c-8.105-13.551-18.854-24.709-31.615-33.044l-0.385-0.236c-1.653-0.759-3.587-1.202-5.624-1.202-4.133 0-7.84 1.822-10.362 4.706l-0.014 0.016c-2.051 2.305-3.304 5.359-3.304 8.706 0 2.009 0.451 3.912 1.258 5.614l-0.034-0.080z" />
<glyph unicode="&#xe94e;" glyph-name="hand-pointing" d="M816 64h-320c-0.021 0-0.046 0-0.071 0-6.657 0-12.84 2.033-17.96 5.512l0.112-0.072-297.44 200.96c-31.218 20.869-51.499 55.973-51.499 95.814 0 19.11 4.666 37.13 12.921 52.983l-0.302-0.636c19.343 35.206 56.175 58.67 98.488 58.67 23.369 0 45.066-7.157 63.019-19.399l-0.387 0.249 65.12-41.12v319.040c0 0.008 0 0.017 0 0.025 0 32.792 14.093 62.292 36.552 82.775l0.088 0.079c20.059 18.344 46.885 29.582 76.335 29.582 3.6 0 7.161-0.168 10.675-0.496l-0.45 0.034c57.086-7.178 100.803-55.42 100.803-113.873 0-0.298-0.001-0.596-0.003-0.893v0.046-164l144-33.76c92.529-22.895 160.048-105.203 160.048-203.281 0-15.328-1.649-30.27-4.779-44.66l0.252 1.38-43.52-199.68c-3.204-14.557-15.993-25.288-31.288-25.288-0.25 0-0.5 0.003-0.749 0.009l0.037-0.001zM506.4 128h284.48l37.92 174.56c1.993 9.007 3.134 19.353 3.134 29.965 0 67.909-46.748 124.9-109.819 140.546l-0.996 0.209-168.16 38.72c-14.398 3.325-24.97 16.037-24.97 31.218 0 0.275 0.003 0.549 0.010 0.822l-0.001-0.040v189.28c0.011 0.391 0.017 0.852 0.017 1.314 0 25.301-18.643 46.248-42.942 49.852l-0.275 0.034c-1.425 0.15-3.078 0.236-4.752 0.236-12.49 0-23.866-4.77-32.404-12.588l0.036 0.033c-9.652-8.811-15.685-21.448-15.685-35.493 0-0.235 0.002-0.469 0.005-0.703v0.035-377.6c-0.632-17.175-14.708-30.859-31.98-30.859-5.899 0-11.426 1.596-16.171 4.381l0.151-0.082-115.2 72.64c-7.735 5.566-17.4 8.901-27.844 8.901-18.037 0-33.75-9.948-41.952-24.657l-0.125-0.244c-3.105-6.342-4.92-13.8-4.92-21.683 0-17.691 9.144-33.247 22.964-42.198l0.196-0.119z" />
<glyph unicode="&#xe94f;" glyph-name="format-code" d="M411.2 480.96c-5.741 9.133-15.763 15.115-27.183 15.115-6.292 0-12.16-1.816-17.108-4.952l0.131 0.077-128-80c-9.077-5.751-15.015-15.742-15.015-27.12s5.938-21.369 14.884-27.043l0.131-0.077 128-80c4.988-3.366 11.133-5.373 17.748-5.373 17.673 0 32 14.327 32 32 0 11.712-6.292 21.955-15.681 27.532l-0.148 0.081-84.64 52.8 84.64 52.8c9.133 5.741 15.115 15.763 15.115 27.183 0 6.292-1.816 12.16-4.952 17.108l0.077-0.131zM909.28 656l-157.28 157.28c-11.579 11.567-27.569 18.72-45.23 18.72-0.018 0-0.035 0-0.053 0h-562.717c-26.51 0-48-21.49-48-48v0-672c0-26.51 21.49-48 48-48v0h736c26.51 0 48 21.49 48 48v0 498.72c0 0.015 0 0.033 0 0.050 0 17.661-7.153 33.65-18.721 45.23l0.001-0.001zM736 738.72l98.72-98.72h-98.72zM864 128h-704v640h512v-128c0-35.346 28.654-64 64-64v0h128zM560 558.88c-2.559 0.736-5.499 1.16-8.537 1.16-14.612 0-26.936-9.793-30.767-23.174l-0.055-0.226-80-288c-1.006-2.971-1.587-6.394-1.587-9.952 0-17.673 14.327-32 32-32 15.131 0 27.81 10.502 31.144 24.615l0.043 0.217 80 288c0.736 2.559 1.16 5.499 1.16 8.537 0 14.612-9.793 26.936-23.174 30.767l-0.226 0.055zM612.32 480.96c-3.059-4.817-4.875-10.685-4.875-16.977 0-11.419 5.981-21.442 14.982-27.105l0.133-0.078 85.12-52.8-84.64-52.8c-9.536-5.658-15.828-15.901-15.828-27.613 0-17.673 14.327-32 32-32 6.615 0 12.761 2.007 17.862 5.445l-0.114-0.072 128 80c9.077 5.751 15.015 15.742 15.015 27.12s-5.938 21.369-14.884 27.043l-0.131 0.077-128 80c-4.817 3.059-10.685 4.875-16.977 4.875-11.419 0-21.442-5.981-27.105-14.982l-0.078-0.133z" />
<glyph unicode="&#xe950;" glyph-name="format-excel-fill" d="M864 832h-704c-35.346 0-64-28.654-64-64v0-640c0-35.346 28.654-64 64-64v0h704c35.346 0 64 28.654 64 64v0 640c0 35.346-28.654 64-64 64v0zM669.92 264.16h-74.4c-0.247-0.029-0.533-0.046-0.823-0.046-3.103 0-5.757 1.92-6.84 4.636l-0.017 0.050q-34.24 64-68.8 128.8c-1.92 3.52-3.52 7.2-5.44 11.52-3.52-6.56-6.72-12.8-10.080-19.040q-33.12-60.48-66.080-120.96c-1.314-2.969-4.235-5.003-7.63-5.003-0.299 0-0.595 0.016-0.886 0.047l0.036-0.003c-24.64 0-49.28 0-73.92 0h-6.88l3.52 6.080q55.68 86.24 112 172.32c1.288 1.58 2.068 3.619 2.068 5.84s-0.78 4.26-2.081 5.857l0.013-0.017q-51.2 85.44-101.92 171.040l-3.52 6.24h81.92c0.324 0.044 0.699 0.069 1.079 0.069 3.556 0 6.6-2.189 7.86-5.292l0.020-0.057c20.48-41.12 41.28-82.080 61.92-123.040 2.080-4 3.84-8.32 5.92-13.12l1.6 2.4q36.16 67.52 72.48 135.040c1.146 1.858 3.032 3.166 5.237 3.514l0.043 0.006c24.8 0 49.6 0 74.56 0h2.72c-1.12-2.080-2.080-3.84-3.040-5.44q-52.96-85.92-105.76-171.68c-1.025-1.255-1.647-2.875-1.647-4.64s0.621-3.385 1.657-4.653l-0.010 0.013q54.080-86.88 107.2-173.92l3.68-6.24z" />
<glyph unicode="&#xe951;" glyph-name="vertical-stacked-bar2" d="M608 704v96c0 17.673-14.327 32-32 32v0h-128c-17.673 0-32-14.327-32-32v0-96zM896 544v96c0 17.673-14.327 32-32 32v0h-128c-17.673 0-32-14.327-32-32v0-96zM704 512h192v-256h-192v256zM416 672h192v-224h-192v224zM128 352h192v-128h-192v128zM704 224v-128c0-17.673 14.327-32 32-32v0h128c17.673 0 32 14.327 32 32v0 128zM416 416v-320c0-17.673 14.327-32 32-32v0h128c17.673 0 32 14.327 32 32v0 320zM128 192v-96c0-17.673 14.327-32 32-32v0h128c17.673 0 32 14.327 32 32v0 96zM320 384v96c0 17.673-14.327 32-32 32v0h-128c-17.673 0-32-14.327-32-32v0-96z" />
<glyph unicode="&#xe952;" glyph-name="format-excel" d="M909.28 656l-157.28 157.28c-11.579 11.567-27.569 18.72-45.23 18.72-0.018 0-0.035 0-0.053 0h-562.717c-26.51 0-48-21.49-48-48v0-672c0-26.51 21.49-48 48-48v0h736c26.51 0 48 21.49 48 48v0 498.72c0 0.015 0 0.033 0 0.050 0 17.661-7.153 33.65-18.721 45.23l0.001-0.001zM736 738.72l98.72-98.72h-98.72zM864 128h-704v640h512v-128c0-35.346 28.654-64 64-64v0h128zM520.96 388.8c-1.025 1.255-1.647 2.875-1.647 4.64s0.621 3.385 1.657 4.653l-0.010-0.013q52.8 85.6 105.28 171.52c0.96 1.6 1.92 3.36 3.040 5.44h-2.72c-24.8 0-49.76 0-74.56 0-2.248-0.354-4.134-1.662-5.261-3.488l-0.019-0.032q-36.32-67.36-72.48-135.040l-1.6-2.4c-2.24 4.8-4 8.96-5.92 13.12-20.64 40.96-41.44 81.92-61.92 123.040-1.28 3.16-4.325 5.349-7.881 5.349-0.38 0-0.755-0.025-1.122-0.074l0.043 0.005h-82.72l3.52-6.24q51.36-85.6 102.56-171.040c1.288-1.58 2.068-3.619 2.068-5.84s-0.78-4.26-2.081-5.857l0.013 0.017q-55.84-86.080-112-172.32l-3.2-6.24h6.88c24.64 0 49.28 0 73.92 0 0.255-0.028 0.55-0.043 0.85-0.043 3.396 0 6.316 2.034 7.609 4.95l0.021 0.053q32.96 60.48 66.080 120.96c3.36 6.24 6.56 12.48 10.080 19.040 1.92-4.16 3.52-7.84 5.44-11.52q34.4-64 68.8-128.8c1.1-2.766 3.754-4.686 6.857-4.686 0.29 0 0.576 0.017 0.857 0.049l-0.034-0.003h80.64l-3.68 6.24q-53.44 87.52-107.36 174.56z" />
<glyph unicode="&#xe953;" glyph-name="institution" d="M864 112h-704c-17.673 0-32-14.327-32-32s14.327-32 32-32v0h704c17.673 0 32 14.327 32 32s-14.327 32-32 32v0zM448 208v224c0 17.673-14.327 32-32 32s-32-14.327-32-32v0-224c0-17.673 14.327-32 32-32s32 14.327 32 32v0zM256 208v224c0 17.673-14.327 32-32 32s-32-14.327-32-32v0-224c0-17.673 14.327-32 32-32s32 14.327 32 32v0zM640 208v224c0 17.673-14.327 32-32 32s-32-14.327-32-32v0-224c0-17.673 14.327-32 32-32s32 14.327 32 32v0zM869.12 685.28l-318.88 155.68-4.32 1.76c-10.137 3.336-21.804 5.26-33.92 5.26s-23.783-1.924-34.712-5.483l0.792 0.223-323.2-157.44c-16.029-7.983-26.854-24.244-26.88-43.037v-70.083c0-26.51 21.49-48 48-48v0h672c26.51 0 48 21.49 48 48v0 70.080c-0.026 18.796-10.851 35.057-26.602 42.914l-0.278 0.126zM832 588.16h-640v44l307.36 150.080c3.766 1.062 8.092 1.672 12.56 1.672s8.794-0.61 12.898-1.753l-0.338 0.080 307.52-150.080zM832 208v224c0 17.673-14.327 32-32 32s-32-14.327-32-32v0-224c0-17.673 14.327-32 32-32s32 14.327 32 32v0z" />
<glyph unicode="&#xe954;" glyph-name="investor" d="M292 560c88.366 0 160 71.634 160 160s-71.634 160-160 160c-88.366 0-160-71.634-160-160v0c0-88.366 71.634-160 160-160v0zM292 816c53.019 0 96-42.981 96-96s-42.981-96-96-96c-53.019 0-96 42.981-96 96v0c0 53.019 42.981 96 96 96v0zM719.040 363.040c-42.4 10.88-51.040 16-51.040 29.76v0c0 11.36 11.36 18.88 28.96 18.88 18.771-0.795 36.026-6.653 50.618-16.233l-0.378 0.233c4.222-2.613 9.341-4.161 14.822-4.161 0.077 0 0.153 0 0.23 0.001h-0.012c0.13-0.002 0.284-0.003 0.437-0.003 15.199 0 27.52 12.321 27.52 27.52 0 9.919-5.248 18.612-13.118 23.455l-0.119 0.068c-14.672 9.286-31.903 16.063-50.365 19.241l-0.835 0.119v26.88c0 14.271-11.569 25.84-25.84 25.84s-25.84-11.569-25.84-25.84v0-26.080c-36.785-5.128-64.815-36.309-64.96-74.065v-0.015c0-52.16 36.16-65.6 83.36-77.6 40.96-10.56 48-17.12 48-28.8v0c0-12.96-12.32-20.64-32.96-20.64-23.254 0.283-44.566 8.372-61.492 21.762l0.212-0.162c-4.471 3.027-9.985 4.832-15.92 4.832-0.478 0-0.954-0.012-1.427-0.035l0.067 0.003c-0.143 0.003-0.312 0.004-0.48 0.004-15.111 0-27.36-12.249-27.36-27.36 0-0.058 0-0.115 0.001-0.173v0.009c0-0.048 0-0.104 0-0.16 0-9.081 4.373-17.14 11.128-22.188l0.073-0.052c17.551-12.534 38.373-21.747 60.901-26.231l1.019-0.169v-27.84c0-14.271 11.569-25.84 25.84-25.84s25.84 11.569 25.84 25.84v0 25.6c45.6 6.24 73.12 34.72 73.12 77.44v0c-0.16 46.080-32 63.68-80 76.16zM700 640c-167.895 0-304-136.105-304-304s136.105-304 304-304c167.895 0 304 136.105 304 304v0c0 167.895-136.105 304-304 304v0zM700 96c-132.548 0-240 107.452-240 240s107.452 240 240 240c132.548 0 240-107.452 240-240v0c0-132.548-107.452-240-240-240v0zM116 96c-17.673 0-32 14.327-32 32v0 128c0 97.202 78.798 176 176 176v0h48c18.276-0.024 35.888-2.83 52.447-8.017l-1.247 0.337c6.054 23.263 13.437 43.328 22.504 62.438l-0.904-2.118c-21.75 7.187-46.787 11.342-72.791 11.36h-48.009c-132.548 0-240-107.452-240-240v0-128c0-53.019 42.981-96 96-96v0h336c18.139 0.027 35.092 5.080 49.548 13.841l-0.428-0.241c-21.969 15.181-41.145 31.767-58.373 50.198l-0.187 0.202z" />
<glyph unicode="&#xe955;" glyph-name="error" d="M515.36 392c0.001 0 0.002 0 0.003 0 19.272 0 34.926 15.487 35.196 34.695v0.025l3.36 213.28c0 17.673-14.327 32-32 32v0h-19.52c-17.673 0-32-14.327-32-32v0l3.36-212.8c0.271-19.233 15.925-34.72 35.197-34.72 0.001 0 0.002 0 0.003 0v0zM545.76 862.72c-10.085 0.87-21.822 1.365-33.675 1.365-229.75 0-416-186.25-416-416s186.25-416 416-416c229.75 0 416 186.25 416 416 0 11.853-0.496 23.59-1.468 35.192l0.102-1.517c-16.996 203.196-177.764 363.964-379.443 380.858l-1.517 0.102zM548 97.92c-10.769-1.169-23.259-1.836-35.906-1.836-194.404 0-352 157.596-352 352s157.596 352 352 352c194.404 0 352-157.596 352-352 0-12.709-0.674-25.261-1.987-37.622l0.133 1.538c-17.529-166.020-148.219-296.71-312.706-314.108l-1.534-0.132zM522.88 328.32c-3.284 0.684-7.058 1.076-10.924 1.076-30.928 0-56-25.072-56-56s25.072-56 56-56c30.928 0 56 25.072 56 56 0 3.866-0.392 7.64-1.138 11.285l0.062-0.361c-4.578 22.214-21.787 39.422-43.637 43.937l-0.363 0.063z" />
<glyph unicode="&#xe956;" glyph-name="lock" d="M512 416c-22.091 0-40-17.909-40-40v0-112c0-22.091 17.909-40 40-40s40 17.909 40 40v0 112c0 22.091-17.909 40-40 40v0zM736 576h-32v80c0 97.202-78.798 176-176 176v0h-32c-97.202 0-176-78.798-176-176v0-80h-32c-53.019 0-96-42.981-96-96v0-320c0-53.019 42.981-96 96-96v0h448c53.019 0 96 42.981 96 96v0 320c0 53.019-42.981 96-96 96v0zM384 656c0 61.856 50.144 112 112 112v0h32c61.856 0 112-50.144 112-112v0-80h-256zM768 160c0-17.673-14.327-32-32-32v0h-448c-17.673 0-32 14.327-32 32v0 320c0 17.673 14.327 32 32 32v0h448c17.673 0 32-14.327 32-32v0z" />
<glyph unicode="&#xe957;" glyph-name="horizontal-bar" d="M160 832h384c17.673 0 32-14.327 32-32v-128c0-17.673-14.327-32-32-32h-384c-17.673 0-32 14.327-32 32v128c0 17.673 14.327 32 32 32zM160 544h704c17.673 0 32-14.327 32-32v-128c0-17.673-14.327-32-32-32h-704c-17.673 0-32 14.327-32 32v128c0 17.673 14.327 32 32 32zM160 256h544c17.673 0 32-14.327 32-32v-128c0-17.673-14.327-32-32-32h-544c-17.673 0-32 14.327-32 32v128c0 17.673 14.327 32 32 32z" />
<glyph unicode="&#xe958;" glyph-name="dollar" d="M534.24 478.72c-65.44 16-77.12 26.24-77.12 49.92s20.32 35.84 50.72 35.84c28.258-0.612 54.251-9.81 75.61-25.078l-0.41 0.278c4.792-3.016 10.62-4.805 16.865-4.805 0.202 0 0.404 0.002 0.605 0.006h-0.030c17.673 0 32 14.327 32 32v0c0.004 0.194 0.007 0.422 0.007 0.651 0 11.052-5.836 20.741-14.595 26.153l-0.132 0.076c-21.008 13.955-45.914 23.876-72.726 28.028l-1.034 0.132s0 2.080 0 2.080v48c0 17.673-14.327 32-32 32s-32-14.327-32-32v0-48s0-1.28 0-1.76c-54.24-9.92-90.080-48-90.080-99.84 0-64 42.080-86.56 114.88-104.16 61.92-14.24 72.8-26.72 72.8-48s-21.76-38.24-55.52-38.24c-35.070 0.022-67.154 12.79-91.874 33.922l0.194-0.162c-5.559 4.783-12.848 7.696-20.816 7.696-17.673 0-32-14.327-32-32 0-11.128 5.68-20.929 14.298-26.662l0.118-0.074c24.733-18.854 54.359-32.657 86.605-39.281l1.395-0.239c-0.025-0.478-0.040-1.037-0.040-1.6s0.015-1.122 0.043-1.678l-0.003 0.078v-48c0-17.673 14.327-32 32-32s32 14.327 32 32v0 48s0 0 0 0c62.080 7.68 100.96 46.4 100.96 103.84-0.16 54.24-32.16 83.84-110.72 102.88zM512 864c-229.75 0-416-186.25-416-416s186.25-416 416-416c229.75 0 416 186.25 416 416v0c0 229.75-186.25 416-416 416v0zM512 96c-194.404 0-352 157.596-352 352s157.596 352 352 352c194.404 0 352-157.596 352-352v0c0-194.404-157.596-352-352-352v0z" />
<glyph unicode="&#xe959;" glyph-name="arrows-back-forth" d="M250.56 672l115.040 115.040c5.798 5.792 9.385 13.797 9.385 22.64s-3.587 16.848-9.385 22.64v0c-5.792 5.8-13.798 9.388-22.642 9.388-9.002 0-17.136-3.717-22.95-9.7l-0.007-0.008-192-192 192-192c5.792-5.798 13.797-9.385 22.64-9.385s16.848 3.587 22.64 9.385v0c5.798 5.792 9.385 13.797 9.385 22.64s-3.587 16.848-9.385 22.64v0l-114.72 114.72h613.44c17.673 0 32 14.327 32 32v0 0c0 17.673-14.327 32-32 32v0zM658.4 402.88l115.040-114.88h-613.44c-17.673 0-32-14.327-32-32v0 0c0-17.673 14.327-32 32-32v0h613.44l-115.040-115.2c-5.798-5.792-9.385-13.797-9.385-22.64s3.587-16.848 9.385-22.64v0c5.784-5.753 13.759-9.309 22.564-9.309 9.042 0 17.208 3.75 23.027 9.78l192.009 192.009-192 192c-5.792 5.798-13.797 9.385-22.64 9.385s-16.848-3.587-22.64-9.385v0c-5.847-5.8-9.467-13.838-9.467-22.721 0-8.724 3.491-16.632 9.152-22.404l-0.005 0.005z" />
<glyph unicode="&#xe95a;" glyph-name="bell" d="M860.8 273.76l-44.8 72.16v151.68c-2.654 120.989-78.498 223.612-184.9 265.552l-1.98 0.688c-23.621 40.992-67.2 68.144-117.12 68.144s-93.499-27.152-116.773-67.493l-0.347-0.651c-108.382-42.628-184.226-145.251-186.874-265.917l-0.006-0.323v-151.68l-44.8-72.16c-6.043-9.591-9.628-21.257-9.628-33.76 0-35.346 28.654-64 64-64 0.010 0 0.020 0 0.030 0h167.518c8.635-63.049 62.145-111.104 126.88-111.104s118.245 48.055 126.805 110.438l0.075 0.666h167.52c0.008 0 0.018 0 0.028 0 35.346 0 64 28.654 64 64 0 12.503-3.586 24.169-9.784 34.026l0.156-0.266zM512 128c-29.576 0.099-54.419 20.244-61.659 47.553l-0.101 0.447h123.52c-7.341-27.756-32.184-47.901-61.749-48h-0.011zM217.6 240l49.6 80c2.91 4.538 4.683 10.050 4.8 15.969v161.631c0 92.48 63.2 177.12 157.12 210.72 8.575 3.23 15.299 9.693 18.799 17.866l0.081 0.214c11.207 24.677 35.635 41.528 64 41.528s52.793-16.851 63.821-41.089l0.179-0.439c3.581-8.387 10.305-14.85 18.654-18.005l0.226-0.075c93.92-33.6 157.12-118.24 157.12-210.72v-161.6c0.117-5.95 1.89-11.462 4.874-16.124l-0.074 0.124 49.6-80z" />
<glyph unicode="&#xe95b;" glyph-name="piechart-pattern" d="M926.4 483.84c0 1.28 0 2.72 0 4-1.12 11.2-2.72 22.24-4.64 33.28l-0.96 5.44q-3.040 16-7.36 32l-1.44 4.8c-3.040 10.4-6.4 20.64-10.080 30.72l-1.6 4.16c-4 10.4-8.32 20.64-13.28 30.72v1.44q-7.36 15.040-16 29.28l-1.44 2.56c-5.6 9.28-11.68 18.4-17.92 27.2l-3.68 3.84q-9.28 12.8-19.68 24.8l-3.52 4q-10.4 11.84-21.76 23.040l-3.36 3.2c-7.84 7.52-16 14.72-24.32 21.6l-1.92 1.44q-12.96 10.4-26.72 20l-1.28 0.96c-9.12 6.24-18.56 12-28.32 17.44l-3.68 2.080c-9.44 5.12-19.040 9.92-28.8 14.4l-4.8 2.080q-14.72 6.56-29.92 11.84l-4.64 1.6c-10.4 3.52-20.96 6.72-32 9.44h-3.2c-18.333 4.655-40.163 8.281-62.494 10.139l-1.506 0.101h-4.48c-9.28 2.56-19.36 2.56-29.6 2.56h-3.84c-9.12 0-18.24 0-27.36-1.12v0c-44.636-3.356-86.025-13.278-124.537-28.831l2.777 0.991-2.24-0.96q-14.72-5.92-28.8-12.96l-2.080-1.12c-9.44-4.8-18.72-9.76-27.84-16v0c-6.24-3.68-12.16-7.52-18.24-11.52v0c-95.875-65.292-162.433-167.529-179.261-285.784l-0.259-2.216c-0.8-6.080-1.6-12.16-2.080-18.24 0-1.44 0-3.040 0-4.48 0-4.8-0.8-9.76-1.12-14.56s-1.12-12.48-1.12-19.2 0-16.96 0.8-25.28c0-2.4 0-4.8 0-7.2q0-9.44 1.92-18.72c0-2.24 0-4.48 0.8-6.88 1.12-7.68 2.4-16 3.84-23.040v-1.12c1.76-8.64 3.68-16.96 5.92-25.44v-1.92q3.040-11.52 6.88-22.56l0.96-2.88c9.483-27.237 20.287-50.532 33.062-72.542l-1.062 1.982c72.942-126.569 207.502-210.402 361.643-210.402 0.435 0 0.87 0.001 1.305 0.002h-0.067c11.84 0 23.68 0 35.36 1.6h2.4c37.082 3.409 71.235 11.168 103.522 22.829l-2.882-0.909c43.305 15.548 80.8 36.282 114.26 62.004l-0.98-0.724 4.8 3.84 13.28 10.88 5.28 4.48q6.56 5.76 12.8 11.84l4.16 4c10.76 10.63 20.91 21.794 30.441 33.482l0.599 0.758 4 5.12q5.12 6.56 10.080 13.28l4.32 6.080q4.8 6.88 9.44 14.080l3.36 5.28c4 6.56 8 13.28 11.68 20.16v0c3.68 6.72 7.040 13.44 10.24 20.32l2.88 6.4q3.36 7.52 6.56 15.040l2.88 7.36c1.92 5.12 3.84 10.4 5.6 16l2.24 6.56c2.4 7.52 4.64 15.040 6.56 22.56v0c1.92 7.52 3.52 15.040 5.12 22.56 0 2.4 0.8 4.8 1.28 7.36 0.96 5.44 1.92 10.88 2.56 16q0 4.16 1.12 8.32c0 5.6 1.12 11.2 1.6 16.8 0 2.56 0 4.96 0 7.52 0 8.16 0 16 0 24.48 1.44 12.8 1.44 24.64-0.16 36.48zM766.4 691.84c22.249-23.137 41.459-49.44 56.833-78.108l0.927-1.892-279.36-115.84v103.68zM545.76 798.4q10.4-0.96 20.64-2.56l6.24-1.12 13.6-2.56 8.48-1.92 11.68-3.040 8-2.24q8.32-2.56 16-5.44l4.16-1.44q8.32-3.2 16-6.72l5.44-2.4 13.44-6.56 5.12-2.56 15.040-8.32 2.72-1.6c5.6-3.36 11.040-6.88 16-10.56l1.44-0.96-165.76-69.44v129.44zM618.080 112l-3.040-0.96c-6.56-2.080-13.12-3.84-19.84-5.44l-16-3.52-9.28-1.6c-8.32-1.28-16-2.56-25.12-3.2h-3.040c-9.6 0-19.36-1.28-29.12-1.28-0.107 0-0.235 0-0.362 0-123.605 0-232.331 63.71-295.129 160.084l-0.829 1.357-0.96 1.6c-2.4 3.68-4.64 7.52-7.040 11.36-30.279 50.904-48.176 112.237-48.176 177.75 0 31.101 4.034 61.261 11.606 89.983l-0.55-2.454c1.92 7.2 4 14.24 6.4 21.28s4.16 12.32 6.56 18.4l1.44 3.68c19.469 46.153 46.505 85.501 79.947 118.348l0.053 0.052c13.115 13.014 27.215 25.084 42.161 36.071l1.039 0.729c41.816 30.233 91.941 51.716 146.287 60.683l2.033 0.277c7.52 1.12 15.040 2.24 22.88 2.88v0-363.36l19.36-18.72 238.080-238.080c-33.647-28.462-73.392-50.958-116.871-65.214l-2.489-0.706zM782.72 224l-90.88 90.88 166.080 68.8c-11.839-61.582-38.299-115.62-75.647-160.229l0.447 0.549zM642.72 363.2l-73.44 73.44 278.72 115.52c9.432-28.989 15.226-62.399 15.993-97.049l0.007-0.391z" />
<glyph unicode="&#xe95c;" glyph-name="donut-fill" d="M657.12 349.12l171.2-171.2c55.7 64.078 92.149 146.223 99.581 236.592l0.099 1.488h-243.040c-4.875-25.384-14.597-47.876-28.217-67.453l0.377 0.573zM684.96 480h243.040c-15.739 205.436-178.564 368.261-382.587 383.913l-1.413 0.087v-242.4c71.854-13.73 127.555-69.647 140.791-140.511l0.169-1.089zM512 272c-0.087 0-0.19 0-0.292 0-97.202 0-176 78.798-176 176 0 85.993 61.672 157.581 143.199 172.949l1.094 0.171v242.88c-215.668-17.016-384.231-196.215-384.231-414.785 0-229.75 186.25-416 416-416 103.601 0 198.356 37.871 271.178 100.525l-0.547-0.46-170.56 170.72c-27.798-19.817-62.401-31.768-99.783-32h-0.057z" />
<glyph unicode="&#xe95d;" glyph-name="donut-outline" d="M512 864c-229.75 0-416-186.25-416-416s186.25-416 416-416c229.75 0 416 186.25 416 416v0c0 229.75-186.25 416-416 416v0zM653.6 343.68c15.411 20.318 26.613 44.691 31.819 71.213l0.181 1.107h177.6c-7.106-76.211-37.63-144.195-84.208-197.873l0.368 0.433zM512 560c61.856 0 112-50.144 112-112s-50.144-112-112-112c-61.856 0-112 50.144-112 112v0c0 61.856 50.144 112 112 112v0zM862.56 480h-177.6c-13.645 71.686-69.274 127.315-139.86 140.785l-1.1 0.175v177.6c169.159-15.891 302.669-149.401 318.453-317.155l0.107-1.405zM160 448c0 0.005 0 0.011 0 0.018 0 183.138 139.858 333.61 318.595 350.436l1.405 0.107v-177.6c-82.672-15.496-144.397-87.109-144.397-173.139 0-97.202 78.798-176 176-176 35.398 0 68.356 10.45 95.956 28.434l-0.678-0.415 125.92-125.92c-59.826-48.498-136.884-77.863-220.8-77.863-194.384 0-351.967 157.563-352 351.939v0.003z" />
<glyph unicode="&#xe95e;" glyph-name="line-chart" d="M637.92 421.6c5.070-3.528 11.357-5.636 18.137-5.636 10.589 0 19.976 5.143 25.801 13.067l0.062 0.089 256 352c3.841 5.223 6.147 11.782 6.147 18.88 0 17.71-14.357 32.067-32.067 32.067-10.612 0-20.021-5.155-25.858-13.098l-0.062-0.089-237.6-326.88-230.4 158.4c-5.057 3.502-11.322 5.595-18.076 5.595-12.732 0-23.728-7.436-28.881-18.202l-0.083-0.193-256-544c-1.844-3.919-2.92-8.511-2.92-13.355 0-12.936 7.675-24.078 18.72-29.123l0.2-0.082c3.793-1.828 8.235-2.938 12.925-3.039l0.035-0.001c12.732 0.003 23.726 7.44 28.877 18.207l0.083 0.193 240 509.6zM194.080 409.44l-85.6 36c-3.366 1.315-7.264 2.076-11.339 2.076-17.673 0-32-14.327-32-32 0-12.726 7.429-23.717 18.186-28.873l0.192-0.083 83.52-34.56zM934.56 454.56c-5.784 5.751-13.757 9.305-22.56 9.305s-16.776-3.555-22.562-9.307l-239.998-239.998-236.96 102.88-41.28 17.44-27.040-58.080 43.040-18.080 256-112c3.681-1.718 7.992-2.721 12.537-2.721 0.093 0 0.185 0 0.277 0.001h-0.014c8.821 0.038 16.793 3.64 22.558 9.438l256.002 256.002c5.751 5.784 9.305 13.757 9.305 22.56s-3.555 16.776-9.307 22.562l0.002-0.002z" />
<glyph unicode="&#xe95f;" glyph-name="format-jpg" d="M697.92 444c0.393-0.004 0.857-0.006 1.322-0.006 26.371 0 51.003 7.444 71.909 20.346l-0.591-0.339c10.523 5.937 17.512 17.043 17.512 29.782 0 0.78-0.026 1.555-0.078 2.322l0.006-0.104v49.44c0.001 0.096 0.002 0.209 0.002 0.322 0 14.315-11.605 25.92-25.92 25.92-0.113 0-0.226-0.001-0.339-0.002h-50.703c-0.577 0.051-1.247 0.080-1.925 0.080-12.813 0-23.2-10.387-23.2-23.2s10.387-23.2 23.2-23.2c0.678 0 1.348 0.029 2.011 0.086l-0.086-0.006h25.92v-22.72c-10.217-6.441-22.647-10.264-35.969-10.264-0.63 0-1.257 0.009-1.883 0.026l0.092-0.002c-0.131-0.001-0.285-0.002-0.439-0.002-31.37 0-56.8 25.43-56.8 56.8 0 1.295 0.043 2.581 0.129 3.854l-0.009-0.173c-0.026 0.639-0.041 1.39-0.041 2.143 0 30.339 23.854 55.107 53.829 56.571l0.131 0.005c0.593 0.019 1.289 0.030 1.988 0.030 14.981 0 28.809-4.938 39.946-13.274l-0.174 0.125c4.331-3.37 9.848-5.403 15.84-5.403 14.302 0 25.899 11.584 25.92 25.881v0.002c-0.264 8.707-4.73 16.318-11.43 20.902l-0.090 0.058c-18.335 12.801-41.089 20.454-65.631 20.454-1.959 0-3.906-0.049-5.842-0.145l0.272 0.011c-0.572 0.011-1.246 0.017-1.921 0.017-59.558 0-107.84-48.282-107.84-107.84 0-0.175 0-0.349 0.001-0.524v0.027c-0.025-0.855-0.039-1.862-0.039-2.871 0-58.145 47.135-105.28 105.28-105.28 1.984 0 3.955 0.055 5.911 0.163l-0.272-0.012zM421.12 445.76c0.286-0.011 0.623-0.018 0.961-0.018 14.315 0 25.92 11.605 25.92 25.92 0 0.063 0 0.125-0.001 0.187v-0.010 36.16h29.76c52 0 85.6 29.44 85.6 75.36s-32 73.76-81.28 73.76h-60.96c-0.096 0.001-0.209 0.002-0.322 0.002-14.315 0-25.92-11.605-25.92-25.92 0-0.113 0.001-0.226 0.002-0.339v0.017-159.040c0-0.048-0.001-0.105-0.001-0.162 0-14.315 11.605-25.92 25.92-25.92 0.113 0 0.225 0.001 0.338 0.002h-0.017zM448 609.12h30.24c12 0 32-3.52 32-27.040 0-16-12.16-26.56-31.2-26.56h-31.040zM880 832h-736c-26.51 0-48-21.49-48-48v0-672c0-26.51 21.49-48 48-48v0h736c26.51 0 48 21.49 48 48v0 672c0 26.51-21.49 48-48 48v0zM864 128h-704v640h704zM216.96 463.040c14.833-11.481 33.699-18.404 54.183-18.404 0.302 0 0.603 0.001 0.903 0.004h-0.046c1.535-0.111 3.326-0.173 5.132-0.173 19.594 0 37.457 7.415 50.934 19.592l-0.066-0.059c12.582 13.656 20.295 31.966 20.295 52.077 0 1.605-0.049 3.199-0.146 4.78l0.011-0.217v112c0.051 0.613 0.080 1.327 0.080 2.047 0 14.492-11.748 26.24-26.24 26.24s-26.24-11.748-26.24-26.24c0-0.721 0.029-1.434 0.086-2.14l-0.006 0.093v-109.44c0-19.84-7.68-29.44-23.68-29.44-9.391 0.126-17.943 3.617-24.528 9.321l0.048-0.041c-4.077 3.301-9.326 5.299-15.042 5.299-0.337 0-0.672-0.007-1.005-0.021l0.048 0.002c-0.001 0-0.001 0-0.002 0-13.785 0-24.96-11.175-24.96-24.96 0-0.113 0.001-0.225 0.002-0.337v0.017c0.234-8.148 4.171-15.331 10.179-19.955l0.061-0.045zM252 208h376.64c8.8 0 14.24 7.36 9.6 13.28l-81.44 105.44c-2.407 2.625-5.852 4.264-9.68 4.264s-7.273-1.639-9.671-4.254l-0.009-0.010-52-67.36-97.76 120.48c-2.396 2.523-5.775 4.092-9.52 4.092s-7.124-1.569-9.515-4.086l-0.005-0.006-126.24-158.56c-4.64-5.76 0.8-13.28 9.6-13.28z" />
<glyph unicode="&#xe960;" glyph-name="format-png" d="M423.36 434.4c0.095-0.001 0.207-0.002 0.32-0.002 13.432 0 24.32 10.888 24.32 24.32 0 0.001 0 0.001 0 0.002v0 103.84l86.56-113.44c5.332-8.331 14.495-13.803 24.943-13.92h0.497c0.096-0.001 0.209-0.002 0.322-0.002 13.432 0 24.32 10.888 24.32 24.32 0 0.113-0.001 0.226-0.002 0.339v-0.017 162.88c0.204 1.182 0.32 2.544 0.32 3.932 0 13.432-10.888 24.32-24.32 24.32s-24.32-10.888-24.32-24.32c0-1.389 0.116-2.75 0.34-4.075l-0.020 0.143v-99.68l-83.36 109.44c-5.352 8.31-14.502 13.772-24.938 13.92h-4.662c-0.096 0.001-0.209 0.002-0.322 0.002-13.432 0-24.32-10.888-24.32-24.32 0-0.113 0.001-0.226 0.002-0.339v0.017-163.040c0-13.432 10.888-24.32 24.32-24.32v0zM242.56 210.4c-4.64-5.76 0-13.28 9.6-13.28h376.48c8.8 0 14.24 7.36 9.6 13.28l-81.28 104.8c-2.407 2.625-5.852 4.264-9.68 4.264s-7.273-1.639-9.671-4.254l-0.009-0.010-52-67.36-97.76 120.16c-2.419 2.784-5.965 4.533-9.92 4.533s-7.501-1.75-9.906-4.517l-0.014-0.016zM730.080 432c0.058 0 0.126 0 0.194 0 26.902 0 51.995 7.747 73.169 21.133l-0.564-0.333c10.122 5.509 16.876 16.066 16.876 28.2 0 0.774-0.027 1.542-0.082 2.302l0.006-0.102v50.56c0 0.048 0.001 0.105 0.001 0.162 0 13.432-10.888 24.32-24.32 24.32-0.113 0-0.225-0.001-0.338-0.002h-51.503c-11.885 0-21.52-9.635-21.52-21.52s9.635-21.52 21.52-21.52h28.48v-26.24c-10.862-7.139-24.177-11.388-38.484-11.388-0.702 0-1.401 0.010-2.098 0.031l0.102-0.002c-0.031 0-0.068 0-0.104 0-32.872 0-59.52 26.648-59.52 59.52 0 1.238 0.038 2.468 0.112 3.687l-0.008-0.167c-0.028 0.686-0.044 1.491-0.044 2.3 0 31.931 25.144 57.989 56.713 59.455l0.132 0.005c0.624 0.020 1.358 0.031 2.095 0.031 15.595 0 29.994-5.117 41.611-13.764l-0.186 0.132c4.018-3.192 9.165-5.12 14.762-5.12 0.041 0 0.083 0 0.124 0h-0.006c13.223 0.269 23.84 11.052 23.84 24.315 0 0.002 0 0.003 0 0.005v0c-0.053 8.143-4.047 15.342-10.169 19.791l-0.071 0.049c-18.332 12.797-41.083 20.447-65.62 20.447-1.906 0-3.802-0.046-5.685-0.137l0.266 0.010c-0.572 0.011-1.246 0.017-1.921 0.017-59.382 0-107.52-48.138-107.52-107.52 0-0.175 0-0.349 0.001-0.524v0.027c-0.030-0.937-0.047-2.039-0.047-3.145 0-58.056 47.064-105.12 105.12-105.12 1.648 0 3.288 0.038 4.918 0.113l-0.231-0.008zM880 820.48h-736c-26.51 0-48-21.49-48-48v0-672c0-26.51 21.49-48 48-48v0h736c26.51 0 48 21.49 48 48v0 672c0 26.51-21.49 48-48 48v0zM864 116.48h-704v640h704zM228.96 434.4c0.096-0.001 0.209-0.002 0.322-0.002 13.432 0 24.32 10.888 24.32 24.32 0 0.113-0.001 0.226-0.002 0.339v-0.017 38.72h32c51.52 0 84.8 29.12 84.8 74.080v0c0 44.32-32 72.8-80 72.8h-61.44c-0.048 0-0.105 0.001-0.162 0.001-13.432 0-24.32-10.888-24.32-24.32 0-0.113 0.001-0.225 0.002-0.338v0.017-161.6c0.18-13.293 10.999-24.001 24.318-24.001 0.057 0 0.114 0 0.171 0.001h-0.009zM253.6 600.32h32.8c21.92 0 34.56-10.56 34.56-28.96v0c-0.184-16.384-13.508-29.595-29.918-29.595-1.071 0-2.129 0.056-3.172 0.166l0.13-0.011h-34.4z" />
<glyph unicode="&#xe961;" glyph-name="piechart" d="M546.4 846.56c-0.718 0.057-1.555 0.090-2.4 0.090-17.673 0-32-14.327-32-32 0-0.032 0-0.063 0-0.095v0.005-382.56h382.56c0.027 0 0.058 0 0.090 0 17.673 0 32 14.327 32 32 0 0.845-0.033 1.682-0.097 2.51l0.007-0.11c-17.321 202.608-177.552 362.839-378.617 380.054l-1.543 0.106zM576 496v282.080c143.349-27.51 254.57-138.731 281.725-279.865l0.355-2.215zM496 112c-167.145 0.987-302.261 136.712-302.261 303.995 0 138.798 93.018 255.87 220.116 292.279l2.145 0.526v66.24c-166.107-37.841-288.205-184.284-288.205-359.245 0-203.241 164.759-368 368-368 174.961 0 321.404 122.098 358.77 285.735l0.475 2.47h-66.24c-36.302-129.974-153.566-223.771-292.774-224h-0.026z" />
<glyph unicode="&#xe962;" glyph-name="piechart-fill" d="M449.44 720c-185.568 0-336-150.432-336-336s150.432-336 336-336c185.568 0 336 150.432 336 336v0h-336zM563.84 845.12c-0.718 0.057-1.555 0.090-2.4 0.090-17.673 0-32-14.327-32-32 0-0.032 0-0.063 0-0.095v0.005-350.56h350.56c0.030 0 0.067 0 0.103 0 17.673 0 32 14.327 32 32 0 0.901-0.037 1.793-0.11 2.676l0.008-0.116c-17.16 184.936-163.205 330.926-346.648 347.887l-1.512 0.113z" />
<glyph unicode="&#xe963;" glyph-name="comment-blank-fill" d="M816 832h-608c-44.183 0-80-35.817-80-80v0-448c0-44.183 35.817-80 80-80v0h80v-128c0.011-17.665 14.334-31.98 32-31.98 7.596 0 14.574 2.647 20.062 7.068l-0.062-0.048 164.64 152.96h311.36c44.183 0 80 35.817 80 80v0 448c0 44.183-35.817 80-80 80v0z" />
<glyph unicode="&#xe964;" glyph-name="calculate-plus-minus" d="M256 488c0-17.673 14.327-32 32-32s32 14.327 32 32v0 112h112c17.673 0 32 14.327 32 32s-14.327 32-32 32v0h-112v112c0 17.673-14.327 32-32 32s-32-14.327-32-32v0-112h-112c-17.673 0-32-14.327-32-32s14.327-32 32-32v0h112zM822.56 718.56c-5.784 5.751-13.757 9.305-22.56 9.305s-16.776-3.555-22.562-9.307l-575.998-575.998c-6.865-5.904-11.185-14.6-11.185-24.305 0-17.673 14.327-32 32-32 9.705 0 18.401 4.321 24.27 11.143l0.035 0.042 576 576c5.751 5.784 9.305 13.757 9.305 22.56s-3.555 16.776-9.307 22.562l0.002-0.002zM880 216h-288c-17.673 0-32-14.327-32-32s14.327-32 32-32v0h288c17.673 0 32 14.327 32 32s-14.327 32-32 32v0z" />
<glyph unicode="&#xe965;" glyph-name="database" d="M512 832c-190.88 0-384-54.88-384-160v-448c0-105.12 193.12-160 384-160s384 54.88 384 160v448c0 105.12-193.12 160-384 160zM832 224c0-38.24-128-96-320-96s-320 57.76-320 96v131.52c72.48-44.48 196.64-67.52 320-67.52s247.52 23.040 320 67.52zM832 448c0-38.24-128-96-320-96s-320 57.76-320 96v131.52c72.48-44.48 196.64-67.52 320-67.52s247.52 23.040 320 67.52zM512 576c-192 0-320 57.76-320 96s128 96 320 96 320-57.76 320-96-128-96-320-96z" />
<glyph unicode="&#xe966;" glyph-name="bell-fill3" d="M862.24 256.96l-62.24 99.68v148.8c-2.032 118.261-76.205 218.695-180.312 259.337l-1.928 0.663c-19.353 39.712-59.418 66.591-105.76 66.591s-86.407-26.879-105.454-65.897l-0.306-0.694c-106.035-41.305-180.208-141.739-182.237-259.751l-0.003-0.249v-148.8l-62.24-99.68c-3.052-4.814-4.864-10.675-4.864-16.96 0-17.639 14.272-31.945 31.899-32h646.405c17.632 0.055 31.904 14.36 31.904 32 0 6.285-1.812 12.147-4.942 17.091l0.078-0.131zM416 160h-14.72c8.49-54.168 54.823-95.116 110.72-95.116s102.23 40.948 110.638 94.483l0.082 0.633h-206.72z" />
<glyph unicode="&#xe967;" glyph-name="bell-fill" d="M862.24 272.96l-62.24 99.68v132.8c-2.032 118.261-76.205 218.695-180.312 259.337l-1.928 0.663c-19.353 39.712-59.418 66.591-105.76 66.591s-86.407-26.879-105.454-65.897l-0.306-0.694c-106.035-41.305-180.208-141.739-182.237-259.751l-0.003-0.249v-132.8l-62.24-99.68c-3.052-4.814-4.864-10.675-4.864-16.96 0-17.639 14.272-31.945 31.899-32h646.405c17.632 0.055 31.904 14.36 31.904 32 0 6.285-1.812 12.147-4.942 17.091l0.078-0.131zM512 64c53.019 0 96 42.981 96 96v0h-192c0-53.019 42.981-96 96-96v0z" />
<glyph unicode="&#xe968;" glyph-name="calendar-blank2" d="M832 832h-128v32c0 17.673-14.327 32-32 32s-32-14.327-32-32v0-32h-256v32c0 17.673-14.327 32-32 32s-32-14.327-32-32v0-32h-128c-35.346 0-64-28.654-64-64v0-640c0-35.346 28.654-64 64-64v0h640c35.346 0 64 28.654 64 64v0 640c0 35.346-28.654 64-64 64v0zM832 128h-640v448h640zM832 640h-640v128h128v-32c0-17.673 14.327-32 32-32s32 14.327 32 32v0 32h256v-32c0-17.673 14.327-32 32-32s32 14.327 32 32v0 32h128z" />
<glyph unicode="&#xe969;" glyph-name="ruler" d="M917.92 650.080l-203.84 203.84c-11.584 11.597-27.594 18.77-45.28 18.77s-33.696-7.174-45.279-18.77l-517.441-517.921c-11.597-11.584-18.77-27.594-18.77-45.28s7.174-33.696 18.77-45.279l0.001-0.001 203.84-203.36c11.584-11.597 27.594-18.77 45.28-18.77s33.696 7.174 45.279 18.77l517.441 517.921c11.454 11.56 18.531 27.473 18.531 45.040s-7.077 33.48-18.536 45.045l0.005-0.005zM355.2 87.36l-203.84 203.84 88.64 89.12 67.68-67.84c5.782-5.736 13.744-9.281 22.535-9.281 0.065 0 0.13 0 0.195 0.001h-0.010c0.008 0 0.017 0 0.026 0 8.79 0 16.753 3.544 22.537 9.282l-0.002-0.002c5.798 5.792 9.385 13.797 9.385 22.64s-3.587 16.848-9.385 22.64v0l-67.68 67.84 102.080 102.4 113.44-113.44c5.792-5.798 13.797-9.385 22.64-9.385s16.848 3.587 22.64 9.385v0c5.798 5.792 9.385 13.797 9.385 22.64s-3.587 16.848-9.385 22.64v0l-114.080 112.8 101.92 101.76 67.84-67.68c5.794-5.794 13.799-9.378 22.64-9.378 17.683 0 32.018 14.335 32.018 32.018 0 8.841-3.584 16.846-9.378 22.64v0l-67.2 68 88.96 88.64 203.84-203.84z" />
<glyph unicode="&#xe96a;" glyph-name="bell-fill2" d="M862.24 256.96l-62.24 99.68v148.8c-2.032 118.261-76.205 218.695-180.312 259.337l-1.928 0.663c-19.353 39.712-59.418 66.591-105.76 66.591s-86.407-26.879-105.454-65.897l-0.306-0.694c-106.035-41.305-180.208-141.739-182.237-259.751l-0.003-0.249v-148.8l-62.24-99.68c-3.052-4.814-4.864-10.675-4.864-16.96 0-17.639 14.272-31.945 31.899-32h646.405c17.632 0.055 31.904 14.36 31.904 32 0 6.285-1.812 12.147-4.942 17.091l0.078-0.131zM512 64c53.019 0 96 42.981 96 96v0h-192c0-53.019 42.981-96 96-96v0z" />
<glyph unicode="&#xe96b;" glyph-name="checkbox-checked" d="M736 768h-448c-53.019 0-96-42.981-96-96v0-448c0-53.019 42.981-96 96-96v0h448c53.019 0 96 42.981 96 96v0 448c0 53.019-42.981 96-96 96v0zM429.6 260.96l-152.64 152.64 56.64 56.48 96-96 260.8 260.96 56.64-56.64z" />
<glyph unicode="&#xe96c;" glyph-name="checkbox-indeterminate" d="M736 768h-448c-53.019 0-96-42.981-96-96v0-448c0-53.019 42.981-96 96-96v0h448c53.019 0 96 42.981 96 96v0 448c0 53.019-42.981 96-96 96v0zM688 408h-352v80h352z" />
<glyph unicode="&#xe96d;" glyph-name="chart-arrow" d="M896 160h-736v608c0 17.673-14.327 32-32 32s-32-14.327-32-32v0-640c0-17.673 14.327-32 32-32v0h768c17.673 0 32 14.327 32 32s-14.327 32-32 32v0zM273.12 259.68c4.242-2.318 9.293-3.681 14.661-3.681 0.077 0 0.154 0 0.23 0.001h-0.012c12.228 0.004 22.852 6.866 28.236 16.948l0.084 0.172 151.040 286.88h336l-105.6-105.44c-5.794-5.794-9.378-13.799-9.378-22.64 0-17.683 14.335-32.018 32.018-32.018 8.841 0 16.846 3.584 22.64 9.378v0l182.24 182.72-182.56 182.72c-5.662 5.163-13.226 8.325-21.529 8.325-17.673 0-32-14.327-32-32 0-8.263 3.132-15.795 8.273-21.472l-0.024 0.027 105.28-105.6h-354.72c-12.228-0.004-22.852-6.866-28.236-16.948l-0.084-0.172-160-304c-2.311-4.314-3.668-9.436-3.668-14.876 0-12.227 6.858-22.852 16.936-28.24l0.172-0.084z" />
<glyph unicode="&#xe96e;" glyph-name="calculate-delta" d="M748.64 494.24c-5.364 10.592-16.169 17.726-28.64 17.726s-23.276-7.134-28.556-17.544l-0.084-0.182-160-320c-2.103-4.147-3.335-9.041-3.335-14.224 0-6.225 1.778-12.036 4.853-16.951l-0.078 0.134c5.726-9.172 15.759-15.187 27.198-15.2h320.002c11.584 0.192 21.65 6.511 27.118 15.849l0.082 0.151c2.997 4.781 4.775 10.591 4.775 16.816 0 5.182-1.232 10.077-3.419 14.407l0.084-0.183zM611.84 192l108.16 216.48 108.16-216.48zM896 768h-368c-13.492-0.041-25.015-8.426-29.685-20.263l-0.075-0.217-202.88-521.28-93.44 128c-5.785 8.262-15.212 13.631-25.9 13.76h-64.020c-17.673 0-32-14.327-32-32s14.327-32 32-32v0h48l118.4-162.88c5.842-7.93 15.116-13.040 25.587-13.12h4.173c11.749 1.614 21.353 9.407 25.524 19.943l0.076 0.217 216.16 555.84h346.080c17.673 0 32 14.327 32 32s-14.327 32-32 32v0z" />
<glyph unicode="&#xe96f;" glyph-name="format-csv" d="M529.28 408.64c-36.96 9.44-41.92 13.28-41.92 24s8.96 14.080 22.72 14.080c15.62-0.657 29.969-5.582 42.061-13.629l-0.301 0.189c3.877-2.411 8.583-3.84 13.622-3.84 0.048 0 0.097 0 0.145 0h-0.007c0.048 0 0.104-0.001 0.161-0.001 14.050 0 25.44 11.39 25.44 25.44 0 9.072-4.749 17.035-11.896 21.539l-0.105 0.062c-19.018 12.248-42.242 19.527-67.167 19.527-0.462 0-0.923-0.002-1.384-0.007l0.070 0.001c-45.44 0-77.12-27.52-77.12-67.68 0-45.6 32-57.76 72.16-67.84 36.32-9.28 38.88-14.72 38.88-23.040s-9.76-16-25.92-16c-19.381 0.245-37.134 7.017-51.212 18.212l0.172-0.132c-4.274 3.105-9.626 4.967-15.413 4.967-0.206 0-0.412-0.002-0.617-0.007l0.030 0.001c-0.143 0.003-0.312 0.005-0.481 0.005-13.873 0-25.12-11.247-25.12-25.12 0-0.058 0-0.116 0.001-0.173v0.009c0-0.012 0-0.027 0-0.041 0-8.417 4.062-15.885 10.332-20.551l0.068-0.048c22.247-15.962 49.982-25.587 79.958-25.76h0.042c48.96 0 80 27.040 80 69.44s-25.6 55.52-67.2 66.4zM372.16 344.64c-6.113-0.093-11.69-2.314-16.040-5.953l0.040 0.033c-11.028-9.932-25.701-16.007-41.792-16.007-0.326 0-0.652 0.002-0.977 0.007l0.049-0.001c-31.476 0.663-56.738 26.335-56.738 57.908 0 1.186 0.036 2.364 0.106 3.533l-0.008-0.161c-0.063 1.007-0.099 2.184-0.099 3.369 0 31.364 25.138 56.857 56.365 57.43l0.054 0.001c15.318-0.079 29.37-5.434 40.447-14.338l-0.127 0.098c4.451-3.185 10-5.1 15.995-5.12h0.005c0.001 0 0.001 0 0.002 0 14.645 0 26.537 11.781 26.718 26.383v0.017c-0.025 8.698-4.129 16.433-10.499 21.394l-0.061 0.046c-18.927 14.22-42.819 22.772-68.708 22.772-1.214 0-2.423-0.019-3.628-0.056l0.176 0.004c-0.912 0.027-1.984 0.043-3.060 0.043-60.707 0-109.92-49.213-109.92-109.92 0-0.746 0.007-1.491 0.022-2.234l-0.002 0.111c-0.030-0.961-0.048-2.090-0.048-3.224 0-60.089 48.711-108.8 108.8-108.8 0.804 0 1.607 0.009 2.407 0.026l-0.119-0.002c1.437-0.068 3.121-0.106 4.814-0.106 27.723 0 53.028 10.354 72.259 27.405l-0.113-0.099c5.646 4.671 9.216 11.679 9.216 19.52 0 13.939-11.282 25.244-25.213 25.28h-0.003zM673.6 475.52c-3.889 10.995-14.195 18.73-26.307 18.73-0.258 0-0.515-0.004-0.771-0.010l0.038 0.001c-0.095 0.001-0.207 0.002-0.32 0.002-14.757 0-26.72-11.963-26.72-26.72 0-0.001 0-0.001 0-0.002v0c0.15-4.618 1.255-8.943 3.123-12.832l-0.083 0.192 67.68-161.76c4.546-12.319 16.124-20.973 29.742-21.12h3.058c13.279 0.463 24.462 8.949 28.887 20.739l0.073 0.221 68.16 163.2c1.603 3.474 2.592 7.526 2.719 11.794l0.001 0.046c0 0.001 0 0.003 0 0.004 0 14.492-11.748 26.24-26.24 26.24-0.169 0-0.337-0.002-0.505-0.005h0.025c-0.016 0-0.035 0-0.053 0-11.596 0-21.546-7.049-25.798-17.096l-0.069-0.184-48.8-126.56zM909.28 656l-157.28 157.28c-11.579 11.567-27.569 18.72-45.23 18.72-0.018 0-0.035 0-0.053 0h-562.717c-26.51 0-48-21.49-48-48v0-672c0-26.51 21.49-48 48-48v0h736c26.51 0 48 21.49 48 48v0 498.72c0 0.015 0 0.033 0 0.050 0 17.661-7.153 33.65-18.721 45.23l0.001-0.001zM736 738.72l98.72-98.72h-98.72zM864 128h-704v640h512v-128c0-35.346 28.654-64 64-64v0h128z" />
<glyph unicode="&#xe970;" glyph-name="format-xls" d="M587.040 325.28h-81.28v142.4c0 15.022-12.178 27.2-27.2 27.2s-27.2-12.178-27.2-27.2v-165.44c-0.001-0.096-0.002-0.209-0.002-0.322 0-14.845 12.035-26.88 26.88-26.88 0.113 0 0.226 0.001 0.339 0.002h108.463c13.873 0 25.12 11.247 25.12 25.12s-11.247 25.12-25.12 25.12v0zM348.96 386.4l51.040 62.72c4.731 5.421 7.671 12.512 7.839 20.285l0.001 0.035c0 0.048 0.001 0.104 0.001 0.161 0 13.906-11.228 25.189-25.112 25.279h-0.009c-10.787-0.060-20.251-5.671-25.687-14.118l-0.073-0.122-42.24-55.52-42.72 56.64c-5.085 7.853-13.802 12.975-23.715 12.975-0.325 0-0.649-0.006-0.972-0.016l0.047 0.001c-0.144 0.003-0.314 0.004-0.484 0.004-14.58 0-26.4-11.82-26.4-26.4 0-0.17 0.002-0.34 0.005-0.51v0.025c0.383-7.673 3.412-14.572 8.185-19.869l-0.025 0.029 51.2-62.4-54.56-66.88c-4.731-5.421-7.671-12.512-7.839-20.285l-0.001-0.035c0-0.048-0.001-0.104-0.001-0.161 0-13.906 11.228-25.189 25.112-25.279h0.009c10.918 0.275 20.4 6.176 25.683 14.902l0.077 0.138 45.28 58.88 45.76-60c5.069-7.942 13.836-13.132 23.815-13.132 0.29 0 0.579 0.004 0.867 0.013l-0.042-0.001c0.144-0.003 0.314-0.004 0.484-0.004 14.58 0 26.4 11.82 26.4 26.4 0 0.17-0.002 0.34-0.005 0.51v-0.025c-0.402 7.462-3.303 14.179-7.872 19.397l0.032-0.037zM909.28 656l-157.28 157.28c-11.579 11.567-27.569 18.72-45.23 18.72-0.018 0-0.035 0-0.053 0h-562.717c-26.51 0-48-21.49-48-48v0-672c0-26.51 21.49-48 48-48v0h736c26.51 0 48 21.49 48 48v0 498.72c0 0.015 0 0.033 0 0.050 0 17.661-7.153 33.65-18.721 45.23l0.001-0.001zM736 738.72l98.72-98.72h-98.72zM864 128h-704v640h512v-128c0-35.346 28.654-64 64-64v0h128zM640 428c0-45.92 32-57.6 72.64-68.16 36.48-9.44 39.040-14.88 39.040-23.2s-9.76-16-26.080-16c-19.431 0.259-37.234 7.026-51.377 18.215l0.177-0.135c-4.257 3.105-9.593 4.968-15.363 4.968-0.224 0-0.447-0.003-0.67-0.008l0.033 0.001c-0.143 0.003-0.312 0.005-0.481 0.005-13.962 0-25.28-11.318-25.28-25.28 0-0.058 0-0.116 0.001-0.173v0.009c0-0.036 0-0.078 0-0.12 0-8.441 4.060-15.933 10.333-20.632l0.067-0.048c22.45-15.922 50.408-25.452 80.591-25.452 0.636 0 1.271 0.004 1.905 0.013l-0.096-0.001c49.28 0 81.12 27.2 81.12 69.76s-27.84 56-69.6 66.88c-37.12 9.6-42.080 13.44-42.080 24.16s8.96 14.080 22.72 14.080c15.671-0.695 30.065-5.613 42.233-13.634l-0.313 0.194c3.922-2.412 8.672-3.84 13.756-3.84 0.001 0 0.003 0 0.004 0v0c0.143-0.003 0.312-0.005 0.481-0.005 13.962 0 25.28 11.318 25.28 25.28 0 0.058 0 0.116-0.001 0.173v-0.009c0.001 0.098 0.002 0.214 0.002 0.331 0 9.060-4.828 16.993-12.051 21.367l-0.111 0.063c-18.983 12.057-42.107 19.214-66.902 19.214-0.667 0-1.333-0.005-1.998-0.016l0.1 0.001c-46.080 0-78.080-27.68-78.080-68z" />
<glyph unicode="&#xe971;" glyph-name="close-circle" d="M633.28 614.56l-121.28-121.28-121.28 121.28-45.28-45.28 121.28-121.28-121.28-121.28 45.28-45.28 121.28 121.28 121.28-121.28 45.28 45.28-121.28 121.28 121.28 121.28zM926.72 481.76c-17.971 214.794-196.739 382.319-414.634 382.319-229.75 0-416-186.25-416-416s186.25-416 416-416c114.874 0 218.873 46.561 294.154 121.841v0c75.262 75.495 121.797 179.666 121.797 294.706 0 11.662-0.478 23.213-1.416 34.633l0.099-1.499zM713.12 158.88c-38.4-27.458-84.104-47.403-133.577-56.634l-2.103-0.326c-19.721-3.921-42.395-6.165-65.593-6.165-194.404 0-352 157.596-352 352 0 22.716 2.152 44.929 6.262 66.447l-0.35-2.201c9.984 54.933 31.782 103.53 62.72 144.895l-0.64-0.895c64.779 87.828 167.858 144.17 284.096 144.17 13.494 0 26.811-0.759 39.91-2.238l-1.606 0.147c67.118-7.021 127.283-32.216 176.799-70.514l-0.799 0.594c84.774-64.953 138.895-166.237 138.895-280.161 0-119.28-59.329-224.703-150.088-288.369l-1.128-0.75z" />
<glyph unicode="&#xe972;" glyph-name="check-for-checkbox" d="M690.4 635.040l-260.8-260.96-96 96.16-56.64-56.64 152.64-152.64 317.44 317.44-56.64 56.64z" />
<glyph unicode="&#xe973;" glyph-name="chevron-down2" d="M720 535.2l-209.44-209.44-209.28 209.44-56.64-56.64 265.92-265.92 265.92 265.92-56.48 56.64z" />
<glyph unicode="&#xe974;" glyph-name="checkbox-unchecked" d="M736 704c17.673 0 32-14.327 32-32v0-448c0-17.673-14.327-32-32-32v0h-448c-17.673 0-32 14.327-32 32v0 448c0 17.673 14.327 32 32 32v0h448zM736 768h-448c-53.019 0-96-42.981-96-96v0-448c0-53.019 42.981-96 96-96v0h448c53.019 0 96 42.981 96 96v0 448c0 53.019-42.981 96-96 96v0z" />
<glyph unicode="&#xe975;" glyph-name="clock" d="M512 864c-229.75 0-416-186.25-416-416s186.25-416 416-416c229.75 0 416 186.25 416 416v0c0 229.75-186.25 416-416 416v0zM512 96c-194.404 0-352 157.596-352 352s157.596 352 352 352c194.404 0 352-157.596 352-352v0c0-194.404-157.596-352-352-352v0zM544 461.28v194.72c0 17.673-14.327 32-32 32s-32-14.327-32-32v0-221.28l153.44-153.28c5.559-4.783 12.847-7.695 20.815-7.695 17.673 0 32 14.327 32 32 0 7.968-2.912 15.255-7.73 20.857l0.035-0.042z" />
</font>
</defs>
</svg>
